<svg width="128" height="141" viewBox="0 0 128 141" fill="none" xmlns="http://www.w3.org/2000/svg">
<g clip-path="url(#clip0_134_5972)">
<path d="M101.243 13.6959H20.7566C9.29306 13.6959 0 22.989 0 34.4525V114.939C0 126.403 9.29306 135.696 20.7566 135.696H101.243C112.707 135.696 122 126.403 122 114.939V34.4525C122 22.989 112.707 13.6959 101.243 13.6959Z" fill="#E9511D"/>
<path fill-rule="evenodd" clip-rule="evenodd" d="M63.9963 140.192H117.03C117.03 92.8802 77.4754 118.409 77.4754 78.9963H50.3315C50.3315 118.409 10.9703 92.8872 10.9703 140.192H64.0037H63.9963Z" fill="#E4AE7C"/>
<path fill-rule="evenodd" clip-rule="evenodd" d="M34.9969 55.0234C34.8707 53.6858 29.1035 52.1087 27.1885 56.4808C25.2661 60.853 28.7249 67.0486 35.2567 67.5344C41.7884 68.0202 39.866 66.9289 39.866 66.9289L34.9969 55.0234Z" fill="#E4AE7C"/>
<path fill-rule="evenodd" clip-rule="evenodd" d="M93.1443 55.0234C93.2705 53.6858 99.0303 52.1087 100.953 56.4808C102.875 60.853 99.4162 67.0486 92.8845 67.5344C86.3527 68.0202 88.2752 66.9289 88.2752 66.9289L93.1443 55.0234Z" fill="#E4AE7C"/>
<path fill-rule="evenodd" clip-rule="evenodd" d="M77.6906 77.891C77.6906 77.891 77.6163 79.7215 77.6609 82.3899C72.9031 93.7321 55.3936 94.1545 50.3166 82.9038C50.3834 79.9679 50.3018 77.891 50.3018 77.891H77.6906Z" fill="#D67F54"/>
<path fill-rule="evenodd" clip-rule="evenodd" d="M63.9963 84.4738C30.0238 85.2483 12.8705 5.77533 63.9963 7.81002C115.122 5.77533 97.9688 85.2412 63.9963 84.4738Z" fill="#E4AE7C"/>
<path fill-rule="evenodd" clip-rule="evenodd" d="M48.6765 49.5812C48.7284 50.0599 48.3573 50.4894 47.8526 50.5317C47.3478 50.5809 46.8951 50.2289 46.8505 49.7502C46.806 49.2996 46.8357 48.8419 46.9619 48.3984C47.0881 47.9689 47.2885 47.5535 47.5779 47.1733C48.2163 46.3355 49.1589 45.8216 50.1609 45.6667C51.163 45.5118 52.2244 45.723 53.1077 46.3285C53.6718 46.7157 54.1023 47.2226 54.3769 47.7788C54.6664 48.3561 54.7925 48.9968 54.748 49.6305C54.7109 50.1092 54.273 50.4753 53.7682 50.4401C53.2635 50.4049 52.8776 49.9895 52.9147 49.5108C52.9369 49.1658 52.8701 48.8208 52.7217 48.511C52.5732 48.2153 52.3431 47.9408 52.0462 47.7366C51.5712 47.4127 50.9997 47.3001 50.4578 47.3775C49.9234 47.462 49.4187 47.7366 49.0698 48.1872C48.914 48.3914 48.8026 48.6096 48.7433 48.8419C48.6765 49.0813 48.6542 49.3277 48.6765 49.5671V49.5812Z" fill="#39271F"/>
<path fill-rule="evenodd" clip-rule="evenodd" d="M48.8322 56.5935C50.5691 57.8538 50.6433 59.7054 49.0029 60.7263C47.3626 61.7472 44.6237 61.543 42.8942 60.2827C41.1574 59.0225 41.0832 57.1708 42.7235 56.15C44.3639 55.1291 47.1028 55.3333 48.8322 56.5935Z" fill="#DA9077"/>
<path fill-rule="evenodd" clip-rule="evenodd" d="M79.3532 56.5935C77.6164 57.8538 77.5422 59.7054 79.1825 60.7263C80.8229 61.7472 83.5618 61.543 85.2912 60.2827C87.028 59.0225 87.1023 57.1708 85.4619 56.15C83.8215 55.1291 81.0827 55.3333 79.3532 56.5935Z" fill="#DA9077"/>
<path fill-rule="evenodd" clip-rule="evenodd" d="M53.9166 38.2812C53.8052 38.2319 53.6865 38.1897 53.5751 38.1475C52.2465 37.6969 51.1183 37.5701 49.6858 37.6687C48.2829 37.8095 47.2364 38.1123 46.0562 38.7459C45.5069 39.0838 43.3619 40.7313 43.9705 41.3368C44.2154 41.4002 46.3531 40.3652 46.984 40.1751C47.9638 39.9005 48.7505 39.7949 49.7897 39.8161C50.7546 39.8583 51.482 39.9921 52.3579 40.3159C52.3801 40.3159 52.5434 40.3863 52.5731 40.4004C54.3619 41.2241 54.206 41.7592 55.4233 40.9636C57.3086 40.0132 55.3714 38.9994 53.9166 38.2812Z" fill="#3F2716"/>
<path fill-rule="evenodd" clip-rule="evenodd" d="M74.0835 38.2812C74.1948 38.2319 74.3061 38.1897 74.4249 38.1475C75.7535 37.6969 76.8817 37.5701 78.3142 37.6687C79.7171 37.8095 80.7711 38.1123 81.9438 38.7459C82.4931 39.0838 84.6382 40.7313 84.0295 41.3368C83.7846 41.4002 81.6469 40.3652 81.016 40.1751C80.0363 39.9005 79.2495 39.7949 78.2103 39.8161C77.2454 39.8583 76.518 39.9921 75.6422 40.3159C75.6199 40.3159 75.4566 40.3863 75.4269 40.4004C73.6381 41.2241 73.794 41.7592 72.5767 40.9636C70.6914 40.0132 72.6287 38.9994 74.0835 38.2812Z" fill="#3F2716"/>
<path fill-rule="evenodd" clip-rule="evenodd" d="M55.1858 63.3383C58.3181 63.3031 61.4355 63.282 64.5529 63.282C67.6703 63.282 70.7952 63.3031 73.92 63.3383C73.92 67.9991 69.0732 69.6607 64.5678 69.6607H64.5529H64.5381C60.0326 69.6607 55.1858 67.9991 55.1858 63.3383Z" fill="white"/>
<path fill-rule="evenodd" clip-rule="evenodd" d="M62.4004 72.4416C62.2223 72.3431 62.1703 72.1318 62.2668 71.9629C62.3707 71.7939 62.5934 71.7446 62.7716 71.8361C63.2763 72.1178 63.922 72.2586 64.5678 72.2586C65.2135 72.2586 65.8444 72.1178 66.3343 71.8361C66.505 71.7376 66.7351 71.7869 66.8391 71.9558C66.943 72.1178 66.891 72.336 66.7129 72.4346C66.1042 72.7866 65.3397 72.9556 64.5678 72.9556C63.7958 72.9556 63.0239 72.7796 62.4004 72.4346V72.4416Z" fill="#D67F54"/>
<path fill-rule="evenodd" clip-rule="evenodd" d="M63.7217 56.9456C63.5213 56.9456 63.3506 56.7907 63.3506 56.5936C63.3506 56.3964 63.5139 56.2415 63.7217 56.2415C64.605 56.2415 65.659 56.2345 66.4754 56.1007C67.1435 55.9951 67.6408 55.8191 67.6408 55.5305C67.6408 54.5237 66.5645 48.2788 66.5645 48.2576C66.5348 48.0675 66.6684 47.8915 66.8688 47.8563C67.0692 47.8282 67.2548 47.9549 67.2919 48.145C67.2919 48.1661 68.383 54.4744 68.383 55.5234C68.383 56.2627 67.6259 56.6147 66.6016 56.7837C65.7258 56.9245 64.6347 56.9315 63.7291 56.9315L63.7217 56.9456Z" fill="#D67F54"/>
<path fill-rule="evenodd" clip-rule="evenodd" d="M98.8596 59.9307C98.8596 60.1208 98.6963 60.2827 98.4884 60.2827C98.2806 60.2827 98.1173 60.1279 98.1173 59.9307C98.1173 58.8676 97.9243 58.1988 97.6126 57.8397C97.427 57.6214 97.1895 57.5229 96.9297 57.5158C96.6254 57.5158 96.284 57.6144 95.9277 57.8115C94.9628 58.3325 93.9608 59.4309 93.4115 60.6348C93.1443 61.2121 92.9142 61.8035 92.7806 62.2541C93.3447 61.8809 93.9682 61.7331 94.4952 61.7824C94.7921 61.8105 95.0667 61.9021 95.2894 62.0569C95.5195 62.2189 95.6976 62.4371 95.7867 62.7188C95.9351 63.1975 95.8238 63.8382 95.2819 64.6126C95.1706 64.7746 94.9405 64.8168 94.7698 64.7112C94.5991 64.6056 94.5545 64.3873 94.6659 64.2254C95.0741 63.6551 95.1706 63.2186 95.0815 62.9229C95.0444 62.7962 94.9628 62.6976 94.8663 62.6272C94.7475 62.5498 94.5991 62.5005 94.4284 62.4864C93.9533 62.4442 93.3595 62.6343 92.8548 63.113C92.7212 63.2397 92.595 63.3102 92.4837 63.3383C92.1868 63.4017 92.0161 63.275 91.9493 63.0004V62.9793C91.9196 62.8736 91.927 62.7399 91.9493 62.5709C92.0309 62.071 92.3501 61.198 92.7286 60.3672C93.3447 59.0366 94.4655 57.8045 95.5566 57.2201C96.0242 56.9667 96.4992 56.8259 96.9372 56.84C97.4122 56.854 97.8427 57.03 98.1767 57.4173C98.5924 57.9031 98.8521 58.7127 98.8521 59.9448L98.8596 59.9307Z" fill="#D67F54"/>
<path fill-rule="evenodd" clip-rule="evenodd" d="M29.8753 59.9307C29.8753 60.1208 29.712 60.2827 29.5042 60.2827C29.2964 60.2827 29.1331 60.1278 29.1331 59.9307C29.1331 58.6986 29.3928 57.8819 29.8011 57.4031C30.1351 57.0159 30.5656 56.8329 31.0406 56.8258C31.4785 56.8188 31.9536 56.9596 32.4212 57.206C33.5123 57.7974 34.6405 59.0224 35.2491 60.3531C35.6351 61.1839 35.9469 62.0639 36.0285 62.5568C36.0582 62.7257 36.0582 62.8595 36.0359 62.9651V62.9862C35.9691 63.2608 35.7984 63.3875 35.5015 63.3242C35.3828 63.3031 35.264 63.2256 35.1304 63.0989C34.6331 62.6201 34.0319 62.43 33.5568 62.4723C33.3861 62.4864 33.2377 62.5356 33.1189 62.6131C33.015 62.6835 32.9408 62.7821 32.9037 62.9088C32.8146 63.2045 32.9111 63.641 33.3193 64.2113C33.4307 64.3732 33.3861 64.5844 33.2154 64.6971C33.0447 64.8027 32.822 64.7604 32.7033 64.5985C32.1614 63.8311 32.0427 63.1834 32.1911 62.7046C32.2802 62.43 32.4509 62.2047 32.6884 62.0428C32.9111 61.895 33.1857 61.7964 33.4826 61.7682C34.0096 61.719 34.6331 61.8668 35.1972 62.2399C35.0636 61.7894 34.8335 61.198 34.5663 60.6206C34.0096 59.4238 33.015 58.3184 32.0501 57.7974C31.6938 57.6073 31.3449 57.4947 31.048 57.5017C30.7883 57.5017 30.5507 57.6073 30.3652 57.8256C30.0534 58.1846 29.8605 58.8535 29.8605 59.9166L29.8753 59.9307Z" fill="#D67F54"/>
<path fill-rule="evenodd" clip-rule="evenodd" d="M75.2709 49.5812C75.3229 50.0599 74.9517 50.4894 74.447 50.5317C73.9423 50.5739 73.4895 50.2289 73.445 49.7502C73.4004 49.2996 73.4376 48.8419 73.5563 48.3984C73.6825 47.9689 73.8829 47.5535 74.1724 47.1733C74.8107 46.3355 75.7534 45.8216 76.7628 45.6667C77.7648 45.5118 78.8262 45.723 79.7095 46.3285C80.2736 46.7157 80.7041 47.2226 80.9788 47.7788C81.2682 48.3561 81.3944 48.9968 81.3499 49.6305C81.3128 50.1092 80.8748 50.4753 80.3701 50.4401C79.8654 50.4049 79.4794 49.9895 79.5165 49.5108C79.5388 49.1658 79.472 48.8208 79.3236 48.511C79.1751 48.2153 78.945 47.9408 78.6407 47.7366C78.1656 47.4127 77.5941 47.3001 77.0523 47.3775C76.5179 47.462 76.0131 47.7366 75.6643 48.1872C75.5084 48.3913 75.3971 48.6096 75.3303 48.8419C75.2635 49.0813 75.2412 49.3277 75.2635 49.5671L75.2709 49.5812Z" fill="#39271F"/>
<path fill-rule="evenodd" clip-rule="evenodd" d="M90.2198 26.0797C84.074 23.5662 82.8493 20.7148 81.1941 17.4269C77.9653 11.006 79.6576 3.95143 85.9296 1.69848C98.0876 -2.66662 108.271 8.42918 106.683 17.3917C105.562 23.7282 98.2583 29.3746 90.2198 26.0797Z" fill="#2E1E11"/>
<path fill-rule="evenodd" clip-rule="evenodd" d="M37.9286 26.0797C44.0744 23.5662 45.2991 20.7148 46.9543 17.4269C50.1831 11.006 48.4908 3.95143 42.2188 1.69848C30.0608 -2.66662 19.8772 8.42918 21.4656 17.3917C22.5864 23.7282 29.8901 29.3746 37.9286 26.0797Z" fill="#2E1E11"/>
<path fill-rule="evenodd" clip-rule="evenodd" d="M35.0562 61.3106C36.3997 60.0081 33.9948 53.4464 35.8504 44.3642C37.706 35.282 60.3148 24.2777 64.0038 19.3212C67.6927 24.2777 90.3015 35.282 92.1571 44.3642C94.0127 53.4464 92.9736 55.5726 94.317 56.8751C95.3487 57.8749 108.694 6.26816 64.0038 6.63426C15.7059 6.63426 34.9078 61.4514 35.0562 61.3106Z" fill="#4E3832"/>
<path fill-rule="evenodd" clip-rule="evenodd" d="M63.9147 18.3496C65.3917 26.8686 46.9321 31.466 43.1615 54.1997C39.7991 74.4904 45.7594 94.5839 45.7594 94.5839C46.0488 95.7034 44.6757 95.1542 43.3916 92.6126C41.4469 88.7685 29.8308 68.0061 33.9874 49.0391C38.1439 30.072 54.1245 21.3489 63.9221 18.3567L63.9147 18.3496Z" fill="#F1D3A4"/>
<path fill-rule="evenodd" clip-rule="evenodd" d="M64.0854 18.3496C62.6083 26.8686 81.0679 31.466 84.8385 54.1997C88.2009 74.4904 82.2407 94.5839 82.2407 94.5839C81.9512 95.7034 83.3244 95.1542 84.6084 92.6126C86.5531 88.7685 98.1692 68.0061 94.0127 49.0391C89.8561 30.072 73.8756 21.3489 64.078 18.3567L64.0854 18.3496Z" fill="#F1D3A4"/>
<path fill-rule="evenodd" clip-rule="evenodd" d="M78.47 88.5432C70.8546 93.3237 56.6703 93.7954 49.3889 88.3531C48.9212 90.3949 48.2829 92.1691 47.511 93.725C56.6035 99.1884 71.0772 98.8364 80.3553 93.8025C79.5908 92.2747 78.9524 90.5357 78.47 88.5362V88.5432Z" fill="#35253D"/>
<path fill-rule="evenodd" clip-rule="evenodd" d="M10.9703 140.192H117.037C117.037 121.289 110.721 114.016 103.135 109.58C81.7507 134.166 46.8207 134.011 25.6074 109.123C17.7099 113.516 10.9778 120.627 10.9778 140.192H10.9703Z" fill="#35253D"/>
<path fill-rule="evenodd" clip-rule="evenodd" d="M25.5777 125.731C25.5777 125.442 25.8301 125.21 26.1344 125.21C26.4387 125.21 26.6836 125.449 26.6836 125.738L26.55 140.199C26.55 140.488 26.2977 140.72 25.9934 140.72C25.689 140.72 25.4441 140.481 25.4441 140.192L25.5777 125.731Z" fill="#23142B"/>
<path fill-rule="evenodd" clip-rule="evenodd" d="M101.457 125.731C101.457 125.442 101.71 125.21 102.014 125.21C102.318 125.21 102.563 125.449 102.563 125.738L102.43 140.199C102.43 140.488 102.177 140.72 101.873 140.72C101.569 140.72 101.324 140.481 101.324 140.192L101.457 125.731Z" fill="#23142B"/>
<path fill-rule="evenodd" clip-rule="evenodd" d="M43.6365 86.6141C43.7256 86.7902 43.6514 86.9943 43.4658 87.0788C43.2802 87.1633 43.065 87.0929 42.9759 86.9169C37.32 75.8492 35.9543 63.1201 38.8861 51.4892C41.677 40.4286 48.3646 30.3607 58.949 23.6793C59.1197 23.5737 59.3498 23.6159 59.4612 23.7778C59.5725 23.9398 59.528 24.151 59.3572 24.2636C48.9287 30.8394 42.3524 40.7524 39.5987 51.6511C36.7039 63.1271 38.0548 75.6944 43.6365 86.6141Z" fill="#DDBA8A"/>
<path fill-rule="evenodd" clip-rule="evenodd" d="M85.0241 86.9169C84.935 87.0929 84.7198 87.1633 84.5342 87.0788C84.3487 86.9943 84.2744 86.7902 84.3635 86.6141C89.9452 75.6944 91.2961 63.1271 88.4013 51.6511C85.6476 40.7524 79.0713 30.8394 68.6428 24.2636C68.4721 24.158 68.4275 23.9398 68.5389 23.7778C68.6502 23.6159 68.8803 23.5737 69.051 23.6793C79.6428 30.3607 86.323 40.4286 89.1139 51.4892C92.0457 63.1201 90.68 75.8563 85.0241 86.9169Z" fill="#DDBA8A"/>
</g>
<defs>
<clipPath id="clip0_134_5972">
<rect width="128" height="140" fill="white" transform="translate(0 0.713257)"/>
</clipPath>
</defs>
</svg>
