<svg width="128" height="141" viewBox="0 0 128 141" fill="none" xmlns="http://www.w3.org/2000/svg">
<g clip-path="url(#clip0_134_5876)">
<path d="M20.7578 15.3788H101.242C112.696 15.3788 122 24.6823 122 36.1366V116.621C122 128.075 112.696 137.379 101.242 137.379H20.7578C9.30353 137.379 0 128.075 0 116.621V36.1437C0 24.6894 9.30353 15.3859 20.7578 15.3859V15.3788Z" fill="#9976AE"/>
<path fill-rule="evenodd" clip-rule="evenodd" d="M63.9963 140.199H11.3118C10.7032 114.981 31.434 100.343 49.2331 94.8825C50.6804 87.8449 50.3093 78.7233 50.3093 78.7233H77.6981C77.6981 78.7233 77.327 87.8449 78.7744 94.8825C96.5734 100.343 117.304 114.988 116.696 140.199H64.0111H63.9963Z" fill="#58556C"/>
<path fill-rule="evenodd" clip-rule="evenodd" d="M34.9968 58.4931C34.8706 57.1732 29.1033 55.617 27.1884 59.9312C25.2659 64.2454 28.7248 70.359 35.2565 70.8383C41.7883 71.3177 39.8659 70.2409 39.8659 70.2409L35.0042 58.4931H34.9968Z" fill="#E4AE7C"/>
<path fill-rule="evenodd" clip-rule="evenodd" d="M93.1442 58.4931C93.2703 57.1732 99.0376 55.617 100.953 59.9312C102.868 64.2454 99.4161 70.359 92.8844 70.8383C86.3526 71.3177 88.275 70.2409 88.275 70.2409L93.1442 58.4931Z" fill="#E4AE7C"/>
<path fill-rule="evenodd" clip-rule="evenodd" d="M77.8614 87.7686C71.9309 98.3839 56.6629 99.4885 50.1089 88.1785C50.2796 85.8651 50.339 83.6837 50.3464 82.0024H77.6536C77.661 83.5864 77.7129 85.608 77.8614 87.7686Z" fill="#D67F54"/>
<path fill-rule="evenodd" clip-rule="evenodd" d="M63.9963 87.5532C30.0238 88.3174 12.8705 9.89738 63.9963 11.9121C115.122 9.90433 97.9688 88.3243 63.9963 87.5532Z" fill="#E4AE7C"/>
<path fill-rule="evenodd" clip-rule="evenodd" d="M52.588 51.1569C53.9538 52.0808 54.2581 53.8593 53.2709 55.1307C52.2837 56.402 50.3761 56.6938 49.0178 55.7698C47.6521 54.8458 47.3478 53.0673 48.335 51.796C49.3222 50.5247 51.2223 50.2329 52.588 51.1569Z" fill="#20201E"/>
<path fill-rule="evenodd" clip-rule="evenodd" d="M75.605 51.1569C74.2393 52.0808 73.9349 53.8593 74.9221 55.1307C75.9093 56.402 77.8169 56.6938 79.1752 55.7698C80.5409 54.8458 80.8452 53.0673 79.858 51.796C78.8709 50.5247 76.9633 50.2329 75.605 51.1569Z" fill="#20201E"/>
<path fill-rule="evenodd" clip-rule="evenodd" d="M48.8322 61.4943C50.5691 62.7379 50.6433 64.565 49.0029 65.5723C47.3626 66.5797 44.6237 66.3851 42.8942 65.1346C41.1574 63.8911 41.0832 62.064 42.7235 61.0566C44.3639 60.0493 47.1028 60.2508 48.8322 61.4943Z" fill="#DA9077"/>
<path fill-rule="evenodd" clip-rule="evenodd" d="M79.3534 61.4943C77.6165 62.7379 77.5423 64.565 79.1826 65.5723C80.823 66.5797 83.5619 66.3851 85.2913 65.1346C87.0282 63.8911 87.1024 62.064 85.462 61.0566C83.8217 60.0493 81.0828 60.2508 79.3534 61.4943Z" fill="#DA9077"/>
<path fill-rule="evenodd" clip-rule="evenodd" d="M53.9166 43.4247C53.8052 43.376 53.6865 43.3344 53.5751 43.2927C52.2465 42.8481 51.1183 42.723 49.6858 42.8203C48.2829 42.9592 47.2289 43.2579 46.0562 43.8832C45.5069 44.2167 43.3619 45.8423 43.9705 46.4398C44.2154 46.5023 46.3531 45.481 46.984 45.2935C47.9563 45.0225 48.7505 44.9183 49.7897 44.9392C50.7546 44.9808 51.482 45.1128 52.3579 45.4255C52.3801 45.4255 52.5434 45.4949 52.5731 45.5088C54.3619 46.3217 54.206 46.8496 55.4233 46.0646C57.3086 45.1267 55.3714 44.1263 53.9166 43.4177V43.4247Z" fill="#3F2716"/>
<path fill-rule="evenodd" clip-rule="evenodd" d="M74.0833 43.4247C74.1947 43.376 74.3134 43.3344 74.4248 43.2927C75.7534 42.8481 76.8816 42.723 78.3141 42.8203C79.717 42.9592 80.7635 43.2579 81.9437 43.8832C82.493 44.2167 84.638 45.8423 84.0294 46.4398C83.7845 46.5023 81.6468 45.481 81.0159 45.2935C80.0361 45.0225 79.2494 44.9183 78.2102 44.9392C77.2453 44.9808 76.5179 45.1128 75.642 45.4255C75.6198 45.4255 75.4565 45.4949 75.4268 45.5088C73.638 46.3217 73.7939 46.8496 72.5766 46.0646C70.6913 45.1267 72.6285 44.1263 74.0833 43.4177V43.4247Z" fill="#3F2716"/>
<path fill-rule="evenodd" clip-rule="evenodd" d="M62.4005 77.1254C62.2298 77.0282 62.1704 76.8198 62.2669 76.653C62.3708 76.4863 62.5935 76.4377 62.7716 76.528C63.2764 76.8059 63.9221 76.9448 64.5679 76.9448C65.2136 76.9448 65.8445 76.8059 66.3344 76.528C66.5051 76.4307 66.7352 76.4794 66.8391 76.6461C66.9431 76.8059 66.8911 77.0212 66.713 77.1185C66.1043 77.4659 65.3398 77.6326 64.5679 77.6326C63.7959 77.6326 63.024 77.4589 62.4005 77.1185V77.1254Z" fill="#D67F54"/>
<path fill-rule="evenodd" clip-rule="evenodd" d="M63.7217 64.6553C63.5213 64.6553 63.3506 64.5025 63.3506 64.308C63.3506 64.1134 63.5139 63.9606 63.7217 63.9606C64.605 63.9606 65.6664 63.9536 66.4754 63.8216C67.1435 63.7174 67.6408 63.5438 67.6408 63.2589C67.6408 62.2655 66.5645 56.1033 66.5645 56.0825C66.5348 55.8949 66.6684 55.7212 66.8688 55.6865C67.0692 55.6587 67.2548 55.7837 67.2919 55.9713C67.2919 55.9922 68.383 62.2168 68.383 63.252C68.383 63.9745 67.6259 64.3288 66.6016 64.4955C65.7258 64.6345 64.6347 64.6414 63.7217 64.6414V64.6553Z" fill="#D67F54"/>
<path fill-rule="evenodd" clip-rule="evenodd" d="M98.8595 63.3423C98.8595 63.5299 98.6962 63.6896 98.4884 63.6896C98.2806 63.6896 98.1173 63.5368 98.1173 63.3423C98.1173 62.2932 97.9243 61.6402 97.6126 61.279C97.427 61.0636 97.1895 60.9663 96.9297 60.9594C96.6254 60.9594 96.284 61.0566 95.9277 61.2512C94.9628 61.7653 93.9607 62.849 93.404 64.037C93.1368 64.6067 92.9067 65.1902 92.7731 65.6348C93.3372 65.2666 93.9607 65.1208 94.4877 65.1694C94.7846 65.1972 95.0592 65.2875 95.2819 65.4403C95.512 65.6001 95.6901 65.8155 95.7792 66.0934C95.9277 66.5658 95.8163 67.198 95.2745 67.9622C95.1632 68.122 94.9331 68.1636 94.7623 68.0594C94.5916 67.9552 94.5471 67.7399 94.6584 67.5801C95.0667 67.0173 95.1632 66.5866 95.0741 66.2948C95.037 66.1698 94.9553 66.0725 94.8588 66.0031C94.7401 65.9266 94.5916 65.878 94.4209 65.8641C93.9459 65.8224 93.3521 66.01 92.8474 66.4824C92.7138 66.6075 92.5876 66.6769 92.4762 66.7047C92.1793 66.7672 92.0086 66.6422 91.9418 66.3713V66.3504C91.9121 66.2462 91.9196 66.1142 91.9418 65.9475C92.0235 65.4542 92.3426 64.5928 92.7212 63.773C93.3372 62.46 94.458 61.2442 95.5491 60.6676C96.0167 60.4175 96.4918 60.2786 96.9297 60.2925C97.4047 60.3063 97.8352 60.48 98.1692 60.8691C98.5849 61.3484 98.8373 62.1474 98.8373 63.3631L98.8595 63.3423Z" fill="#D67F54"/>
<path fill-rule="evenodd" clip-rule="evenodd" d="M29.8753 63.3423C29.8753 63.5298 29.712 63.6896 29.5042 63.6896C29.2964 63.6896 29.1331 63.5368 29.1331 63.3423C29.1331 62.1265 29.3928 61.3206 29.8011 60.8482C30.1351 60.4592 30.5656 60.2855 31.0406 60.2716C31.4785 60.2647 31.9536 60.4036 32.4212 60.6468C33.5123 61.2234 34.6405 62.4391 35.2491 63.7522C35.6351 64.5719 35.9469 65.4403 36.0285 65.9266C36.0582 66.0864 36.0582 66.2254 36.0359 66.3296V66.3504C35.9691 66.6214 35.7984 66.7464 35.5015 66.6839C35.3828 66.663 35.264 66.5866 35.1304 66.4616C34.6331 65.9892 34.0319 65.8016 33.5568 65.8433C33.3861 65.8572 33.2377 65.9058 33.1189 65.9822C33.015 66.0517 32.9408 66.1489 32.9037 66.274C32.8146 66.5658 32.9111 66.9965 33.3193 67.5592C33.4307 67.719 33.3861 67.9344 33.2154 68.0386C33.0447 68.1428 32.822 68.1011 32.7033 67.9413C32.1614 67.1841 32.0427 66.5519 32.1985 66.0725C32.2876 65.8016 32.4583 65.5793 32.6958 65.4195C32.9185 65.2736 33.1931 65.1833 33.49 65.1485C34.017 65.0999 34.6405 65.2458 35.2046 65.614C35.071 65.1694 34.8409 64.5858 34.5737 64.0162C34.0244 62.8351 33.0224 61.7444 32.0501 61.2303C31.6938 61.0427 31.3449 60.9316 31.048 60.9385C30.7883 60.9385 30.5507 61.0427 30.3652 61.2581C30.0534 61.6194 29.8605 62.2724 29.8605 63.3214L29.8753 63.3423Z" fill="#D67F54"/>
<path fill-rule="evenodd" clip-rule="evenodd" d="M101.598 18.4359C103.016 18.6929 102.831 19.7767 98.6962 22.5069C102.511 27.0087 103.098 34.1574 101.799 40.8684C101.517 42.2995 97.2118 52.4563 93.1517 59.1048C92.7731 59.7231 93.0255 45.919 88.765 40.4029C86.6051 37.6032 84.8237 34.2894 80.4148 31.5244C80.3702 32.3094 82.9829 34.4492 82.0106 34.8799C78.2771 36.5264 67.7595 34.8243 62.9052 33.6711C64.3006 35.0188 65.7258 35.9984 65.1913 36.4847C63.5213 38.02 52.9443 35.6233 46.42 31.5175C44.839 36.4083 42.6048 41.5909 40.0961 42.9803C33.3788 46.6832 36.3032 62.3074 34.5441 60.0079C26.4536 49.476 28.4948 35.8386 28.4948 35.8386C27.708 36.9988 26.8173 38.0061 26.2013 39.208C25.0879 41.3825 24.3234 21.3954 34.4699 18.8041C34.4699 18.8041 32.8666 18.283 28.7471 19.0055C27.233 19.2695 31.7161 15.3722 36.5556 14.865C36.6966 12.899 37.6318 4.99999 43.8073 2.45037C46.6723 1.26935 51.3633 0.463471 50.7621 0.803883C47.8228 2.47121 46.9767 4.79158 46.9767 4.79158C69.5632 -5.17766 79.8358 5.42377 88.6834 12.0653C91.3629 14.073 97.0262 18.0955 101.591 18.4289L101.598 18.4359Z" fill="#35253D"/>
<path fill-rule="evenodd" clip-rule="evenodd" d="M50.0347 44.564C53.0408 44.564 55.7648 45.7033 57.7318 47.5513C59.6987 49.3923 60.9234 51.9419 60.9234 54.7555C60.9234 57.5691 59.7062 60.1188 57.7318 61.9598C55.7648 63.8008 53.0408 64.9471 50.0347 64.9471C47.0286 64.9471 44.3046 63.8077 42.3376 61.9598C40.3707 60.1188 39.146 57.5691 39.146 54.7555C39.146 51.9419 40.3633 49.3923 42.3376 47.5513C44.3046 45.7033 47.0286 44.564 50.0347 44.564ZM56.4329 48.767C54.7925 47.2317 52.5361 46.2869 50.0347 46.2869C47.5334 46.2869 45.2769 47.2317 43.6366 48.767C42.0036 50.3024 40.9868 52.4143 40.9868 54.7555C40.9868 57.0967 42.0036 59.2087 43.6366 60.744C45.2769 62.2793 47.5334 63.2242 50.0347 63.2242C52.5361 63.2242 54.7925 62.2793 56.4329 60.744C58.0732 59.2087 59.0827 57.0967 59.0827 54.7555C59.0827 52.4143 58.0732 50.3024 56.4329 48.767Z" fill="#2E1E11"/>
<path fill-rule="evenodd" clip-rule="evenodd" d="M77.9654 44.564C80.9715 44.564 83.6955 45.7033 85.6625 47.5513C87.6294 49.3923 88.8541 51.9419 88.8541 54.7555C88.8541 57.5691 87.6368 60.1188 85.6625 61.9598C83.6955 63.8008 80.9715 64.9471 77.9654 64.9471C74.9593 64.9471 72.2353 63.8077 70.2683 61.9598C68.3014 60.1188 67.0767 57.5691 67.0767 54.7555C67.0767 51.9419 68.2939 49.3923 70.2683 47.5513C72.2353 45.7033 74.9593 44.564 77.9654 44.564ZM84.3635 48.767C82.7232 47.2317 80.4667 46.2869 77.9654 46.2869C75.464 46.2869 73.2076 47.2317 71.5672 48.767C69.9269 50.3024 68.9174 52.4143 68.9174 54.7555C68.9174 57.0967 69.9269 59.2087 71.5672 60.744C73.2076 62.2793 75.464 63.2242 77.9654 63.2242C80.4667 63.2242 82.7232 62.2793 84.3635 60.744C85.9965 59.2087 87.0133 57.0967 87.0133 54.7555C87.0133 52.4143 86.0039 50.3024 84.3635 48.767Z" fill="#2E1E11"/>
<path fill-rule="evenodd" clip-rule="evenodd" d="M39.7398 53.9218C40.1183 53.7968 40.5414 53.9774 40.675 54.3387C40.8086 54.693 40.6156 55.089 40.2297 55.214L33.7425 57.4024C33.3639 57.5274 32.9408 57.3468 32.8072 56.9856C32.6736 56.6312 32.8666 56.2353 33.2526 56.1102L39.7398 53.9218Z" fill="#2E1E11"/>
<path fill-rule="evenodd" clip-rule="evenodd" d="M87.7927 55.214C87.4141 55.089 87.2137 54.693 87.3473 54.3387C87.4809 53.9844 87.904 53.7968 88.2826 53.9218L94.7698 56.1102C95.1483 56.2352 95.3487 56.6312 95.2151 56.9855C95.0815 57.3399 94.6584 57.5274 94.2799 57.4024L87.7927 55.214Z" fill="#2E1E11"/>
<path fill-rule="evenodd" clip-rule="evenodd" d="M60.1589 53.9636C59.9511 54.2901 59.4983 54.3873 59.1494 54.1928C58.8006 53.9914 58.6967 53.5745 58.9045 53.248C58.9045 53.248 60.1515 51.2611 63.9963 51.2611C67.8411 51.2611 69.0807 53.2411 69.0881 53.248C69.2959 53.5745 69.192 53.9983 68.8432 54.1928C68.4943 54.3943 68.0415 54.2901 67.8337 53.9636C67.8337 53.9636 67.0098 52.6436 63.9963 52.6436C60.9828 52.6436 60.1589 53.9636 60.1589 53.9636Z" fill="#2E1E11"/>
<path fill-rule="evenodd" clip-rule="evenodd" d="M75.5234 67.9136C70.8992 69.5184 56.8411 69.4906 52.4767 68.1081C54.889 76.3336 73.1779 76.2016 75.5234 67.9136Z" fill="white"/>
<path fill-rule="evenodd" clip-rule="evenodd" d="M49.812 86.3236C49.4335 86.1708 48.4686 86.1847 48.4686 86.8238C48.4686 87.5116 49.1588 89.8876 48.6615 91.6383C48.142 93.4862 47.2661 95.0076 48.2756 95.3758C52.9146 97.064 57.9767 97.9533 63.0536 98.0505C68.7541 98.1617 74.4768 97.2655 79.6799 95.3758C80.6894 95.0076 79.8135 93.4862 79.2939 91.6383C78.7966 89.8876 79.4869 87.5116 79.4944 86.8238C79.4944 86.1847 78.5294 86.1708 78.1509 86.3236C69.0955 89.957 58.8674 89.957 49.812 86.3236Z" fill="#67627E"/>
<path fill-rule="evenodd" clip-rule="evenodd" d="M25.5777 125.93C25.5777 125.645 25.8301 125.416 26.1344 125.416C26.4387 125.416 26.6836 125.652 26.6836 125.937L26.55 140.206C26.55 140.491 26.2977 140.72 25.9934 140.72C25.689 140.72 25.4441 140.484 25.4441 140.199L25.5777 125.93Z" fill="#383546"/>
<path fill-rule="evenodd" clip-rule="evenodd" d="M101.457 125.93C101.457 125.645 101.71 125.416 102.014 125.416C102.318 125.416 102.563 125.652 102.563 125.937L102.43 140.206C102.43 140.491 102.177 140.72 101.873 140.72C101.569 140.72 101.324 140.484 101.324 140.199L101.457 125.93Z" fill="#383546"/>
<path fill-rule="evenodd" clip-rule="evenodd" d="M50.9773 87.9353C50.9773 87.7477 51.1554 87.5948 51.3559 87.6018C51.5563 87.6018 51.7196 87.7685 51.7121 87.9561C51.6973 88.4285 51.6899 88.8662 51.6824 89.3108C51.675 90.2209 51.6602 91.1449 51.5637 92.2356C51.4078 93.9585 50.4206 95.3966 50.4206 95.4035C50.3093 95.5633 50.0866 95.6119 49.9159 95.5077C49.7452 95.4035 49.6932 95.1951 49.8046 95.0353C49.8046 95.0353 50.6953 93.7431 50.8363 92.18C50.9328 91.0823 50.9476 90.1861 50.955 89.3039C50.955 88.8453 50.9699 88.3938 50.9847 87.9353H50.9773Z" fill="#58556C"/>
<path fill-rule="evenodd" clip-rule="evenodd" d="M53.9983 88.9427C53.9983 88.7551 54.1764 88.6023 54.3769 88.6092C54.5773 88.6092 54.7405 88.776 54.7331 88.9635C54.7183 89.436 54.7109 89.8736 54.7034 90.3182C54.696 91.2283 54.6812 92.1523 54.5847 93.243C54.4288 94.9659 53.4416 96.404 53.4416 96.4109C53.3303 96.5707 53.1076 96.6194 52.9369 96.5151C52.7662 96.4109 52.7142 96.2025 52.8256 96.0427C52.8256 96.0427 53.7162 94.7436 53.8573 93.1874C53.9538 92.0898 53.9686 91.1936 53.976 90.3113C53.976 89.8528 53.9909 89.4012 54.0057 88.9427H53.9983Z" fill="#58556C"/>
<path fill-rule="evenodd" clip-rule="evenodd" d="M57.1676 89.4846C57.1676 89.297 57.3458 89.1442 57.5462 89.1511C57.7466 89.1511 57.9099 89.3178 57.9024 89.5054C57.8876 89.9778 57.8802 90.4155 57.8727 90.8601C57.8653 91.7702 57.8505 92.6942 57.754 93.7849C57.5981 95.5078 56.6109 96.9459 56.6109 96.9528C56.4996 97.1126 56.2769 97.1612 56.1062 97.057C55.9355 96.9528 55.8835 96.7444 55.9949 96.5846C55.9949 96.5846 56.8856 95.2855 57.0266 93.7293C57.1231 92.6317 57.1379 91.7355 57.1453 90.8532C57.1453 90.3947 57.1602 89.9431 57.175 89.4846H57.1676Z" fill="#58556C"/>
<path fill-rule="evenodd" clip-rule="evenodd" d="M60.4262 90.0334C60.4262 89.8458 60.6043 89.693 60.8047 89.6999C61.0051 89.6999 61.1684 89.8667 61.161 90.0542C61.1461 90.5267 61.1387 90.9643 61.1313 91.409C61.1239 92.319 61.109 93.243 61.0125 94.3337C60.8567 96.0566 59.8695 97.4947 59.8695 97.5016C59.7581 97.6614 59.5355 97.7101 59.3648 97.6059C59.194 97.5016 59.1421 97.2932 59.2534 97.1334C59.2534 97.1334 60.1441 95.8343 60.2851 94.2781C60.3816 93.1805 60.3965 92.2843 60.4039 91.402C60.4039 90.9435 60.4187 90.4919 60.4336 90.0334H60.4262Z" fill="#58556C"/>
<path fill-rule="evenodd" clip-rule="evenodd" d="M75.9093 87.9562C75.9093 87.7687 76.0652 87.6089 76.2656 87.6019C76.466 87.6019 76.6367 87.7478 76.6441 87.9354C76.659 88.3939 76.6664 88.8524 76.6738 89.304C76.6812 90.1863 76.6961 91.0825 76.7926 92.1801C76.9336 93.7363 77.8243 95.0285 77.8243 95.0354C77.9356 95.1952 77.8837 95.4106 77.713 95.5078C77.5422 95.6121 77.3121 95.5634 77.2082 95.4036C77.2082 95.4036 76.2136 93.9656 76.0652 92.2357C75.9687 91.145 75.9538 90.221 75.9464 89.3109C75.9464 88.8663 75.9316 88.4217 75.9167 87.9562H75.9093Z" fill="#58556C"/>
<path fill-rule="evenodd" clip-rule="evenodd" d="M72.8884 88.9636C72.8884 88.776 73.0443 88.6162 73.2447 88.6093C73.4451 88.6093 73.6158 88.7551 73.6233 88.9427C73.6381 89.4012 73.6455 89.8598 73.6529 90.3113C73.6604 91.1936 73.6752 92.0898 73.7717 93.1875C73.9127 94.7436 74.8034 96.0358 74.8034 96.0428C74.9148 96.2025 74.8628 96.4179 74.6921 96.5152C74.5214 96.6194 74.2913 96.5707 74.1874 96.411C74.1874 96.411 73.1928 94.9729 73.0443 93.243C72.9478 92.1523 72.933 91.2283 72.9255 90.3183C72.9255 89.8736 72.9107 89.429 72.8959 88.9636H72.8884Z" fill="#58556C"/>
<path fill-rule="evenodd" clip-rule="evenodd" d="M69.719 89.5054C69.719 89.3179 69.8749 89.1581 70.0753 89.1511C70.2757 89.1511 70.4464 89.297 70.4538 89.4846C70.4687 89.9431 70.4761 90.4016 70.4835 90.8532C70.4909 91.7355 70.5058 92.6317 70.6023 93.7293C70.7433 95.2855 71.634 96.5777 71.634 96.5846C71.7453 96.7444 71.6934 96.9528 71.5226 97.057C71.3519 97.1612 71.1218 97.1126 71.0179 96.9528C71.0179 96.9528 70.0233 95.5148 69.8749 93.7849C69.7784 92.6942 69.771 91.7702 69.7561 90.8601C69.7561 90.4155 69.7413 89.9709 69.7264 89.5054H69.719Z" fill="#58556C"/>
<path fill-rule="evenodd" clip-rule="evenodd" d="M66.4531 90.0543C66.4531 89.8667 66.609 89.7069 66.8094 89.7C67.0098 89.7 67.1805 89.8459 67.1879 90.0334C67.2028 90.4919 67.2102 90.9504 67.2176 91.402C67.2251 92.2843 67.2399 93.1805 67.3364 94.2782C67.4774 95.8343 68.3681 97.1265 68.3681 97.1335C68.4795 97.2932 68.4275 97.5086 68.2568 97.6059C68.0861 97.7101 67.856 97.6615 67.7521 97.5017C67.7521 97.5017 66.7574 96.0636 66.609 94.3337C66.5125 93.243 66.4977 92.3191 66.4902 91.409C66.4902 90.9643 66.4754 90.5197 66.4605 90.0543H66.4531Z" fill="#58556C"/>
<path fill-rule="evenodd" clip-rule="evenodd" d="M63.4841 90.0473C63.4841 89.8597 63.6474 89.7 63.8478 89.7C64.0482 89.7 64.2115 89.8528 64.2115 90.0473L64.2264 97.321C64.2264 97.5086 64.0631 97.6614 63.8627 97.6614C63.6623 97.6614 63.499 97.5086 63.499 97.321L63.4841 90.0473Z" fill="#58556C"/>
<path fill-rule="evenodd" clip-rule="evenodd" d="M43.8815 15.7748C43.785 15.6081 43.8518 15.3996 44.0299 15.3093C44.2081 15.219 44.4308 15.2815 44.5272 15.4483C46.5536 18.9635 50.7547 22.0481 55.6015 24.5144C61.7844 27.6545 68.9916 29.7595 74.076 30.4195C74.2764 30.4473 74.4174 30.6209 74.3877 30.8085C74.358 30.9961 74.1725 31.1281 73.9721 31.1003C68.8135 30.4334 61.5024 28.3006 55.2452 25.1257C50.2871 22.6108 45.9746 19.429 43.8741 15.7817L43.8815 15.7748Z" fill="#432D4C"/>
<path fill-rule="evenodd" clip-rule="evenodd" d="M48.0009 12.7597C47.8005 12.7597 47.6298 12.6068 47.6298 12.4123C47.6298 12.2178 47.7931 12.0649 48.0009 12.0649C53.924 12.0649 59.4389 13.0237 64.4639 14.5868C70.3795 16.4278 75.6198 19.1025 80.0361 22.0203C84.69 25.0979 88.4458 28.5715 91.1475 32.7884C93.8493 37.0054 95.4971 41.9448 95.935 47.9611C95.9499 48.1487 95.794 48.3154 95.5936 48.3293C95.3932 48.3432 95.215 48.1973 95.2002 48.0098C94.7771 42.1116 93.1664 37.2624 90.5166 33.1427C87.8742 29.0231 84.1853 25.612 79.6131 22.5899C75.2487 19.6999 70.0752 17.06 64.2338 15.2468C59.283 13.7045 53.8498 12.7597 48.0009 12.7597Z" fill="#432D4C"/>
<path fill-rule="evenodd" clip-rule="evenodd" d="M50.6879 9.62653C50.5023 9.70989 50.2871 9.62653 50.198 9.45979C50.1164 9.28611 50.198 9.08464 50.3762 9.00128C65.4808 2.4848 75.323 8.97349 83.8068 14.559C85.9 15.9415 87.9189 17.2684 89.8932 18.3175C90.0714 18.4078 90.1307 18.6232 90.0343 18.7829C89.9378 18.9497 89.7077 19.0052 89.5369 18.9149C87.5255 17.8451 85.4991 16.5112 83.3912 15.1218C75.0706 9.64042 65.414 3.27678 50.6953 9.62653H50.6879Z" fill="#432D4C"/>
<path fill-rule="evenodd" clip-rule="evenodd" d="M40.8531 21.5549C40.8457 21.3673 41.0016 21.2005 41.202 21.1936C41.4024 21.1867 41.5805 21.3325 41.5879 21.5201C41.6918 23.3681 41.1352 26.0011 40.1628 28.5993C39.2276 31.1142 37.9064 33.6082 36.4442 35.345C33.6014 38.7214 33.5568 42.8758 33.5568 42.8897C33.5568 43.0773 33.3861 43.2301 33.1857 43.2301C32.9853 43.2301 32.822 43.0703 32.822 42.8828C32.822 42.8689 32.8666 38.4782 35.8652 34.9213C37.2755 33.247 38.5596 30.8224 39.4651 28.377C40.4003 25.8552 40.9496 23.3264 40.8457 21.5618L40.8531 21.5549Z" fill="#432D4C"/>
</g>
<defs>
<clipPath id="clip0_134_5876">
<rect width="128" height="140" fill="white" transform="translate(0 0.713257)"/>
</clipPath>
</defs>
</svg>
