<svg width="128" height="141" viewBox="0 0 128 141" fill="none" xmlns="http://www.w3.org/2000/svg">
<g clip-path="url(#clip0_134_6088)">
<path d="M20.7578 9.99988H101.242C112.696 9.99988 122 19.3034 122 30.7577V111.242C122 122.696 112.696 132 101.242 132H20.7578C9.30353 132 0 122.696 0 111.242V30.7577C0 19.3034 9.30353 9.99988 20.7578 9.99988Z" fill="#47665A"/>
<path fill-rule="evenodd" clip-rule="evenodd" d="M63.9964 140.155H11.3119C10.7033 112.753 31.4342 96.8472 49.2332 90.9138C50.6805 83.2669 50.3094 73.3553 50.3094 73.3553H77.6982C77.6982 73.3553 77.3271 83.2669 78.7745 90.9138C96.5735 96.8472 117.304 112.76 116.696 140.155H64.0112H63.9964Z" fill="#E4AE7C"/>
<path fill-rule="evenodd" clip-rule="evenodd" d="M77.8764 83.1837C76.1618 86.5127 70.1867 89.6983 63.9964 89.7512C58.0214 89.804 51.831 86.8373 50.1165 83.6291C50.2872 81.1153 50.3466 78.745 50.354 76.9182H77.6611C77.6686 78.6393 77.7205 80.836 77.869 83.1837H77.8764Z" fill="#D67F54"/>
<path fill-rule="evenodd" clip-rule="evenodd" d="M34.9969 51.3731C34.8707 49.9389 29.1035 48.2479 27.1885 52.9357C25.2661 57.6235 28.7249 64.2665 35.2567 64.7873C41.7884 65.3082 39.866 64.1381 39.866 64.1381L34.9969 51.3731Z" fill="#E4AE7C"/>
<path fill-rule="evenodd" clip-rule="evenodd" d="M63.9964 140.155H11.3119C10.8146 117.946 24.3383 103.294 38.9605 95.3751C39.6508 95.0203 40.3039 94.6806 40.92 94.356C43.7034 92.967 46.5017 91.8271 49.2331 90.9137C49.3074 90.5287 49.3742 90.1438 49.4335 89.7512C55.3938 92.4235 66.5349 95.3826 78.626 90.106C78.6705 90.3778 78.7225 90.6495 78.767 90.9137C81.4614 91.812 84.23 92.9444 86.9763 94.3032C87.6443 94.6579 88.3643 95.0278 89.1288 95.4204C103.714 103.347 117.178 117.991 116.688 140.155H64.0038H63.9964Z" fill="#575756"/>
<path fill-rule="evenodd" clip-rule="evenodd" d="M93.1443 51.3731C93.2705 49.9389 99.0303 48.2479 100.953 52.9357C102.875 57.6235 99.4162 64.2665 92.8845 64.7873C86.3527 65.3082 88.2752 64.1381 88.2752 64.1381L93.1443 51.3731Z" fill="#E4AE7C"/>
<path fill-rule="evenodd" clip-rule="evenodd" d="M63.9963 82.9502C30.0238 83.7806 12.8705 -1.43021 63.9963 0.751394C115.122 -1.43021 97.9688 83.7806 63.9963 82.9427V82.9502Z" fill="#E4AE7C"/>
<path fill-rule="evenodd" clip-rule="evenodd" d="M98.8596 56.6347C98.8596 56.8385 98.6963 57.0121 98.4884 57.0121C98.2806 57.0121 98.1173 56.846 98.1173 56.6347C98.1173 55.4948 97.9243 54.7852 97.6126 54.3927C97.427 54.1587 97.1895 54.053 96.9297 54.0454C96.6254 54.0454 96.284 54.1511 95.9277 54.3625C94.9628 54.9211 93.9608 56.0987 93.4115 57.3895C93.1443 58.0085 92.9142 58.6426 92.7806 59.1258C93.3447 58.7257 93.9682 58.5671 94.4952 58.62C94.7921 58.6502 95.0667 58.7483 95.2894 58.9144C95.5195 59.088 95.6976 59.322 95.7867 59.624C95.9351 60.1373 95.8238 60.8242 95.2819 61.6546C95.1706 61.8282 94.9405 61.8735 94.7698 61.7603C94.5991 61.6471 94.5545 61.413 94.6659 61.2394C95.0741 60.628 95.1706 60.1599 95.0815 59.8429C95.0444 59.707 94.9628 59.6013 94.8663 59.5259C94.7475 59.4428 94.5991 59.39 94.4284 59.3749C93.9533 59.3296 93.3595 59.5334 92.8548 60.0467C92.7212 60.1826 92.595 60.2581 92.4837 60.2883C92.1868 60.3562 92.0161 60.2203 91.9493 59.9259V59.9033C91.9196 59.7901 91.927 59.6466 91.9493 59.4655C92.0309 58.9295 92.3501 57.9934 92.7286 57.1027C93.3447 55.676 94.4655 54.3549 95.5566 53.7284C96.0242 53.4566 96.4992 53.3056 96.9372 53.3207C97.4122 53.3358 97.8427 53.5245 98.1767 53.9473C98.5924 54.4681 98.8521 55.3363 98.8521 56.6573L98.8596 56.6347Z" fill="#D67F54"/>
<path fill-rule="evenodd" clip-rule="evenodd" d="M29.8753 56.6347C29.8753 56.8385 29.712 57.0121 29.5042 57.0121C29.2964 57.0121 29.1331 56.8461 29.1331 56.6347C29.1331 55.3136 29.3928 54.438 29.8011 53.9247C30.1351 53.5019 30.5656 53.3132 31.0406 53.2981C31.4785 53.2906 31.9536 53.4415 32.4212 53.7058C33.5123 54.3323 34.6405 55.6533 35.2491 57.0801C35.6351 57.9708 35.9469 58.9144 36.0285 59.4428C36.0582 59.6165 36.0582 59.7674 36.0359 59.8807V59.9033C35.9691 60.1977 35.7984 60.3336 35.5015 60.2657C35.3828 60.243 35.264 60.16 35.1304 60.0241C34.6331 59.5108 34.0319 59.307 33.5568 59.3523C33.3861 59.3674 33.2377 59.4202 33.1189 59.5032C33.015 59.5787 32.9408 59.6844 32.9037 59.8203C32.8146 60.1373 32.9111 60.6054 33.3193 61.2168C33.4307 61.3904 33.3861 61.6244 33.2154 61.7377C33.0447 61.8509 32.822 61.8056 32.7033 61.632C32.1614 60.8092 32.0427 60.1222 32.1911 59.6014C32.2802 59.307 32.4509 59.0654 32.6884 58.8918C32.9111 58.7333 33.1857 58.6351 33.4826 58.5974C34.0096 58.5445 34.6331 58.7031 35.1972 59.1031C35.0636 58.62 34.8335 57.9859 34.5663 57.3669C34.0096 56.0836 33.015 54.8985 32.0501 54.3399C31.6938 54.136 31.3449 54.0153 31.048 54.0228C30.7883 54.0228 30.5507 54.136 30.3652 54.37C30.0534 54.7626 29.8605 55.4722 29.8605 56.612L29.8753 56.6347Z" fill="#D67F54"/>
<path fill-rule="evenodd" clip-rule="evenodd" d="M25.5779 124.642C25.5779 124.332 25.8303 124.083 26.1346 124.083C26.4389 124.083 26.6839 124.34 26.6839 124.649L26.5503 140.155C26.5503 140.464 26.2979 140.713 25.9936 140.713C25.6893 140.713 25.4443 140.457 25.4443 140.147L25.5779 124.642Z" fill="#383546"/>
<path fill-rule="evenodd" clip-rule="evenodd" d="M101.457 124.642C101.457 124.332 101.71 124.083 102.014 124.083C102.318 124.083 102.563 124.34 102.563 124.649L102.43 140.155C102.43 140.464 102.177 140.713 101.873 140.713C101.569 140.713 101.324 140.457 101.324 140.147L101.457 124.642Z" fill="#383546"/>
<path fill-rule="evenodd" clip-rule="evenodd" d="M32.5847 45.1077C33.0301 43.3187 33.7797 38.1402 33.8243 38.9479C34.6259 54.6947 40.69 65.0215 46.2791 69.5507C51.8014 74.0196 43.2062 58.4767 63.4472 58.688C63.6402 58.688 63.8184 58.688 64.0039 58.688C64.1895 58.688 64.375 58.688 64.5606 58.688C84.7942 58.4767 76.2064 74.0196 81.7287 69.5507C87.3178 65.029 93.3819 54.6947 94.1836 38.9479C94.2281 38.1402 94.9703 43.3187 95.4231 45.1077C92.2315 64.7271 79.977 83.3424 64.0113 82.9498C48.0457 83.3424 35.7912 64.7195 32.5996 45.1077H32.5847Z" fill="#784928"/>
<path fill-rule="evenodd" clip-rule="evenodd" d="M33.7869 50.83C34.2026 49.5995 34.455 47.0405 34.4104 43.7341C34.351 39.1369 40.6082 36.8723 39.8585 30.2897C37.6615 10.9648 52.3876 17.5096 63.9963 17.5172V0.751272C34.544 -0.509377 27.7525 27.24 33.7795 50.83H33.7869Z" fill="#784928"/>
<path fill-rule="evenodd" clip-rule="evenodd" d="M94.3172 50.4148C93.9609 49.1466 93.7011 46.7838 93.5898 43.7341C93.419 39.1444 87.392 36.8722 88.1417 30.2897C90.3387 10.9648 75.6126 17.5096 64.0039 17.5171V0.751263C93.2854 -0.501837 100.166 26.9154 94.3246 50.4148H94.3172Z" fill="#784928"/>
<path fill-rule="evenodd" clip-rule="evenodd" d="M52.5806 43.4017C53.9463 44.4056 54.2506 46.3381 53.2635 47.7196C52.2763 49.101 50.3761 49.418 49.0104 48.4141C47.6447 47.4101 47.3403 45.4776 48.3275 44.0961C49.3147 42.7147 51.2223 42.3977 52.5806 43.4017Z" fill="#20201E"/>
<path fill-rule="evenodd" clip-rule="evenodd" d="M75.6051 43.4017C74.2394 44.4056 73.9351 46.3381 74.9223 47.7196C75.9094 49.101 77.817 49.418 79.1753 48.4141C80.541 47.4101 80.8454 45.4776 79.8582 44.0961C78.871 42.7147 76.9634 42.3977 75.6051 43.4017Z" fill="#20201E"/>
<path fill-rule="evenodd" clip-rule="evenodd" d="M48.8324 54.6343C50.5693 55.9856 50.6435 57.9709 49.0032 59.0655C47.3628 60.16 44.6239 59.9487 42.8945 58.5899C41.1576 57.2387 41.0834 55.2533 42.7238 54.1588C44.3641 53.0642 47.103 53.2831 48.8324 54.6343Z" fill="#DA9077"/>
<path fill-rule="evenodd" clip-rule="evenodd" d="M79.3535 54.6343C77.6166 55.9856 77.5424 57.9709 79.1828 59.0655C80.8231 60.16 83.562 59.9487 85.2914 58.5899C87.0283 57.2387 87.1025 55.2533 85.4621 54.1588C83.8218 53.0642 81.0829 53.2831 79.3535 54.6343Z" fill="#DA9077"/>
<path fill-rule="evenodd" clip-rule="evenodd" d="M53.9168 34.9998C53.8055 34.947 53.6867 34.9017 53.5754 34.8564C52.2468 34.3733 51.1186 34.2374 49.686 34.3431C48.2832 34.4941 47.2366 34.8187 46.0564 35.4981C45.5072 35.8604 43.3621 37.6268 43.9707 38.276C44.2157 38.344 46.3533 37.2343 46.9842 37.0305C47.964 36.7361 48.7508 36.6228 49.7899 36.6455C50.7549 36.6908 51.4822 36.8342 52.3581 37.1739C52.3804 37.1739 52.5437 37.2494 52.5733 37.2645C54.3622 38.1477 54.2063 38.7214 55.4236 37.8684C57.3089 36.8493 55.3716 35.7623 53.9168 34.9923V34.9998Z" fill="#3F2716"/>
<path fill-rule="evenodd" clip-rule="evenodd" d="M74.0835 34.9998C74.1948 34.947 74.3061 34.9017 74.4249 34.8564C75.7535 34.3733 76.8817 34.2374 78.3142 34.3431C79.7171 34.4941 80.7711 34.8187 81.9438 35.4981C82.4931 35.8604 84.6382 37.6268 84.0295 38.276C83.7846 38.344 81.6469 37.2343 81.016 37.0305C80.0363 36.7361 79.2495 36.6228 78.2103 36.6455C77.2454 36.6908 76.518 36.8342 75.6422 37.1739C75.6199 37.1739 75.4566 37.2494 75.4269 37.2645C73.6381 38.1477 73.794 38.7214 72.5767 37.8684C70.6914 36.8493 72.6287 35.7623 74.0835 34.9923V34.9998Z" fill="#3F2716"/>
<path fill-rule="evenodd" clip-rule="evenodd" d="M62.4004 71.6191C62.2223 71.5134 62.1703 71.287 62.2668 71.1058C62.3707 70.9246 62.5934 70.8718 62.7716 70.9699C63.2763 71.2719 63.922 71.4228 64.5678 71.4228C65.2135 71.4228 65.8444 71.2719 66.3343 70.9699C66.505 70.8642 66.7351 70.9171 66.8391 71.0982C66.943 71.2719 66.891 71.5059 66.7129 71.6116C66.1042 71.989 65.3397 72.1702 64.5678 72.1702C63.7958 72.1702 63.0239 71.9814 62.4004 71.6116V71.6191Z" fill="#D67F54"/>
<path fill-rule="evenodd" clip-rule="evenodd" d="M63.7217 58.0615C63.5213 58.0615 63.3506 57.8954 63.3506 57.684C63.3506 57.4727 63.5139 57.3066 63.7217 57.3066C64.605 57.3066 65.659 57.299 66.4754 57.1556C67.1435 57.0424 67.6408 56.8537 67.6408 56.5442C67.6408 55.4647 66.5645 48.7689 66.5645 48.7462C66.5348 48.5424 66.6684 48.3537 66.8688 48.316C67.0692 48.2858 67.2548 48.4216 67.2919 48.6255C67.2919 48.6481 68.383 55.4118 68.383 56.5366C68.383 57.3217 67.6259 57.7067 66.6016 57.8878C65.7258 58.0388 64.6347 58.0464 63.7291 58.0464L63.7217 58.0615Z" fill="#D67F54"/>
<path fill-rule="evenodd" clip-rule="evenodd" d="M50.0347 36.2378C53.0408 36.2378 55.7648 37.4758 57.7318 39.4838C59.6987 41.4842 60.9234 44.2546 60.9234 47.3119C60.9234 50.3691 59.7062 53.1395 57.7318 55.14C55.7648 57.1404 53.0408 58.386 50.0347 58.386C47.0286 58.386 44.3046 57.148 42.3376 55.14C40.3633 53.1395 39.146 50.3691 39.146 47.3119C39.146 44.2546 40.3633 41.4842 42.3376 39.4838C44.3046 37.4758 47.0286 36.2378 50.0347 36.2378ZM56.4329 40.8048C54.7925 39.1365 52.5361 38.1099 50.0347 38.1099C47.5334 38.1099 45.2769 39.1365 43.6366 40.8048C42.0036 42.4731 40.9868 44.7679 40.9868 47.3119C40.9868 49.8558 41.9962 52.1507 43.6366 53.8189C45.2769 55.4872 47.5334 56.5139 50.0347 56.5139C52.5361 56.5139 54.7925 55.4872 56.4329 53.8189C58.0732 52.1507 59.0827 49.8558 59.0827 47.3119C59.0827 44.7679 58.0732 42.4731 56.4329 40.8048Z" fill="#2E1E11"/>
<path fill-rule="evenodd" clip-rule="evenodd" d="M77.9654 36.2378C80.9715 36.2378 83.6955 37.4758 85.6625 39.4838C87.6294 41.4842 88.8541 44.2546 88.8541 47.3119C88.8541 50.3691 87.6368 53.1395 85.6625 55.14C83.6881 57.1404 80.9715 58.386 77.9654 58.386C74.9593 58.386 72.2353 57.148 70.2683 55.14C68.2939 53.1395 67.0767 50.3691 67.0767 47.3119C67.0767 44.2546 68.2939 41.4842 70.2683 39.4838C72.2353 37.4758 74.9593 36.2378 77.9654 36.2378ZM84.3635 40.8048C82.7232 39.1365 80.4667 38.1099 77.9654 38.1099C75.464 38.1099 73.2076 39.1365 71.5672 40.8048C69.9269 42.4731 68.9174 44.7679 68.9174 47.3119C68.9174 49.8558 69.9269 52.1507 71.5672 53.8189C73.2076 55.4872 75.464 56.5139 77.9654 56.5139C80.4667 56.5139 82.7232 55.4872 84.3635 53.8189C86.0039 52.1507 87.0133 49.8558 87.0133 47.3119C87.0133 44.7679 86.0039 42.4731 84.3635 40.8048Z" fill="#2E1E11"/>
<path fill-rule="evenodd" clip-rule="evenodd" d="M39.7399 46.4061C40.1185 46.2702 40.5415 46.4665 40.6751 46.859C40.8087 47.244 40.6158 47.6743 40.2298 47.8102L33.7426 50.188C33.364 50.3239 32.941 50.1277 32.8074 49.7351C32.6737 49.3501 32.8667 48.9198 33.2527 48.784L39.7399 46.4061Z" fill="#2E1E11"/>
<path fill-rule="evenodd" clip-rule="evenodd" d="M87.7927 47.8101C87.4141 47.6742 87.2137 47.2439 87.3473 46.859C87.4809 46.474 87.904 46.2701 88.2826 46.406L94.7698 48.7839C95.1483 48.9198 95.3487 49.3501 95.2151 49.735C95.0815 50.12 94.6584 50.3238 94.2799 50.188L87.7927 47.8101Z" fill="#2E1E11"/>
<path fill-rule="evenodd" clip-rule="evenodd" d="M60.159 46.4514C59.9438 46.8062 59.4984 46.9118 59.1496 46.7005C58.8007 46.4816 58.6968 46.0286 58.9046 45.6738C58.9046 45.6738 60.1516 43.5149 63.9964 43.5149C67.8412 43.5149 69.0882 45.6663 69.0882 45.6738C69.3035 46.0286 69.1921 46.4891 68.8433 46.7005C68.4944 46.9194 68.0417 46.8062 67.8338 46.4514C67.8338 46.4514 67.0099 45.0171 63.9964 45.0171C60.9829 45.0171 60.159 46.4514 60.159 46.4514Z" fill="#2E1E11"/>
<path fill-rule="evenodd" clip-rule="evenodd" d="M75.5235 61.6094C70.8993 63.3531 56.8412 63.323 52.4768 61.8207C54.8891 70.7585 73.178 70.6151 75.5235 61.6094Z" fill="white"/>
<path fill-rule="evenodd" clip-rule="evenodd" d="M34.9151 18.0154C37.1567 18.4004 41.484 18.4608 43.7033 17.6379C48.5353 15.0411 53.8498 18.3777 64.0037 18.2947C68.6501 18.2947 80.9862 17.268 85.2616 12.1575C87.3844 9.62111 86.271 14.0296 82.1367 16.8906C84.5861 17.8191 90.1381 18.8608 93.1442 18.1437C88.7724 7.515 79.5463 0.0869781 63.9963 0.751272C48.5056 0.0869781 39.2944 7.45461 34.9077 18.0078L34.9151 18.0154Z" fill="#231A11"/>
<path fill-rule="evenodd" clip-rule="evenodd" d="M44.9058 92.2499C44.9058 91.6309 45.4031 91.1251 46.0117 91.1251C46.6203 91.1251 47.1176 91.6309 47.1176 92.2499C47.1176 99.1118 49.3221 106.698 52.7513 112.398C55.8093 117.486 59.8174 121.018 64.0037 121.018C68.19 121.018 72.3391 117.569 75.4194 112.458C78.7595 106.917 80.8898 99.4665 80.8898 92.2499C80.8898 91.6309 81.3871 91.1251 81.9957 91.1251C82.6043 91.1251 83.1016 91.6309 83.1016 92.2499C83.1016 99.8742 80.8378 107.755 77.3047 113.628C73.8384 119.388 69.1178 123.268 64.0037 123.268C58.8896 123.268 54.3174 119.29 50.866 113.568C47.2364 107.536 44.9058 99.5118 44.9058 92.2499Z" fill="#D57B19"/>
</g>
<defs>
<clipPath id="clip0_134_6088">
<rect width="128" height="140" fill="white" transform="translate(0 0.713257)"/>
</clipPath>
</defs>
</svg>
