<svg width="128" height="141" viewBox="0 0 128 141" fill="none" xmlns="http://www.w3.org/2000/svg">
<g clip-path="url(#clip0_134_6159)">
<path d="M20.7578 12.9999H101.242C112.696 12.9999 122 22.3034 122 33.7577V114.242C122 125.696 112.696 135 101.242 135H20.7578C9.30353 135 0 125.696 0 114.242V33.7577C0 22.3034 9.30353 12.9999 20.7578 12.9999Z" fill="#E1A73B"/>
<path fill-rule="evenodd" clip-rule="evenodd" d="M61.0791 18.4548C61.0791 18.4548 74.0164 18.3891 70.6318 8.45104C66.3416 -4.14069 40.029 -1.03381 39.2497 15.3479C38.4703 31.7362 34.7665 38.8039 30.2834 44.1571C25.8002 49.5039 15.6612 60.3681 24.2415 80.034C32.8144 99.7 20.3447 102.8 20.3447 102.8C22.3785 102.636 27.7597 104.311 31.1073 103.713C40.2369 102.084 54.8071 96.3566 54.6512 92.2776C53.9981 74.6939 71.4111 65.0251 61.0865 18.4482L61.0791 18.4548Z" fill="#3A2100"/>
<path fill-rule="evenodd" clip-rule="evenodd" d="M63.677 23.3219C69.7114 23.3219 74.6325 19.5056 74.6325 14.8354C74.6325 10.1653 69.7114 6.349 63.677 6.349C57.6425 6.349 52.7214 10.1653 52.7214 14.8354C52.7214 19.5056 57.6425 23.3219 63.677 23.3219Z" fill="#BB495C"/>
<path fill-rule="evenodd" clip-rule="evenodd" d="M34.9966 60.7687C34.8705 59.5207 29.1032 58.0494 27.1882 62.1284C25.2658 66.2074 28.7247 71.9876 35.2564 72.4408C41.7882 72.8941 39.8658 71.8759 39.8658 71.8759L35.0041 60.7687H34.9966Z" fill="#E4AE7C"/>
<path fill-rule="evenodd" clip-rule="evenodd" d="M93.144 60.7687C93.2702 59.5207 99.03 58.0494 100.952 62.1284C102.875 66.2074 99.416 71.9876 92.8843 72.4408C86.3525 72.8941 88.2749 71.8759 88.2749 71.8759L93.144 60.7687Z" fill="#E4AE7C"/>
<path fill-rule="evenodd" clip-rule="evenodd" d="M63.9962 140.227H11.3117C10.703 116.384 31.4339 102.544 49.2329 97.3812C50.6729 90.7274 50.3092 82.103 50.3092 82.103H77.698C77.698 82.103 77.3269 90.7274 78.7742 97.3812C96.5732 102.544 117.304 116.39 116.695 140.227H64.011H63.9962Z" fill="#E4AE7C"/>
<path fill-rule="evenodd" clip-rule="evenodd" d="M77.6906 82.0964C77.6906 82.0964 77.6163 83.8042 77.6609 86.2937C72.4577 97.8607 56.3065 99.1613 50.3166 86.7732C50.3834 84.0341 50.3018 82.0964 50.3018 82.0964H77.6906Z" fill="#D67F54"/>
<path fill-rule="evenodd" clip-rule="evenodd" d="M118.484 140.227C119.108 116.679 98.2063 102.892 79.9619 97.5782C72.2722 112.679 55.6163 112.311 48.1864 97.5388C29.9049 102.82 8.89202 116.62 9.5155 140.227H118.484Z" fill="#BB495C"/>
<path fill-rule="evenodd" clip-rule="evenodd" d="M63.9963 88.2445C30.0238 88.9671 12.8705 14.8224 63.9963 16.7207C115.122 14.8224 97.9688 88.9671 63.9963 88.2445Z" fill="#E4AE7C"/>
<path fill-rule="evenodd" clip-rule="evenodd" d="M52.5879 52.4596C53.9536 53.3332 54.258 55.0147 53.2708 56.2167C52.2836 57.4187 50.376 57.6946 49.0177 56.821C47.652 55.9474 47.3477 54.2659 48.3349 53.0638C49.322 51.8618 51.2296 51.5859 52.5879 52.4596Z" fill="#20201E"/>
<path fill-rule="evenodd" clip-rule="evenodd" d="M75.6049 52.4596C74.2391 53.3332 73.9348 55.0147 74.922 56.2167C75.9092 57.4187 77.8168 57.6946 79.1751 56.821C80.5408 55.9474 80.8451 54.2659 79.8579 53.0638C78.8707 51.8618 76.9632 51.5859 75.6049 52.4596Z" fill="#20201E"/>
<path fill-rule="evenodd" clip-rule="evenodd" d="M48.8322 62.2334C50.5691 63.4092 50.6433 65.1367 49.0029 66.0891C47.3626 67.0415 44.6237 66.8576 42.8942 65.6753C41.1574 64.4995 41.0832 62.772 42.7235 61.8196C44.3639 60.8672 47.1028 61.0511 48.8322 62.2334Z" fill="#DA9077"/>
<path fill-rule="evenodd" clip-rule="evenodd" d="M79.3532 62.2334C77.6164 63.4092 77.5422 65.1367 79.1825 66.0891C80.8229 67.0415 83.5618 66.8576 85.2912 65.6753C87.028 64.4995 87.1023 62.772 85.4619 61.8196C83.8215 60.8672 81.0827 61.0511 79.3532 62.2334Z" fill="#DA9077"/>
<path fill-rule="evenodd" clip-rule="evenodd" d="M53.9166 45.1489C53.8052 45.1029 53.6865 45.0635 53.5751 45.0241C52.2465 44.5972 51.1257 44.4855 49.6858 44.5775C48.2829 44.7088 47.2289 44.9913 46.0562 45.5824C45.5069 45.8977 43.3619 47.4347 43.9705 47.9996C44.2154 48.0587 46.3531 47.0932 46.984 46.9158C47.9638 46.6597 48.7505 46.5611 49.7897 46.5808C50.7546 46.6202 51.482 46.745 52.3579 47.0472C52.3801 47.0472 52.5434 47.1129 52.5731 47.126C54.3693 47.8945 54.206 48.3937 55.4233 47.6515C57.3086 46.7647 55.3714 45.8189 53.9166 45.1489Z" fill="#3F2716"/>
<path fill-rule="evenodd" clip-rule="evenodd" d="M74.0832 45.1489C74.1945 45.1029 74.3059 45.0635 74.4246 45.0241C75.7533 44.5972 76.8815 44.4855 78.314 44.5775C79.7168 44.7088 80.7708 44.9913 81.9436 45.5824C82.4928 45.8977 84.6379 47.4347 84.0293 47.9996C83.7843 48.0587 81.6467 47.0932 81.0158 46.9158C80.036 46.6597 79.2492 46.5611 78.2101 46.5808C77.2452 46.6202 76.5178 46.745 75.6419 47.0472C75.6197 47.0472 75.4564 47.1129 75.4267 47.126C73.6379 47.8945 73.7937 48.3937 72.5765 47.6515C70.6912 46.7647 72.6284 45.8189 74.0832 45.1489Z" fill="#3F2716"/>
<path fill-rule="evenodd" clip-rule="evenodd" d="M57.8208 68.5259C60.0698 68.4931 62.3114 68.4734 64.553 68.4734C66.7945 68.4734 69.0361 68.4931 71.2925 68.5259C71.2925 72.8742 67.8114 74.4244 64.5678 74.4244H64.5455C61.3019 74.4244 57.8208 72.8742 57.8208 68.5259Z" fill="white"/>
<path fill-rule="evenodd" clip-rule="evenodd" d="M70.8396 70.976C69.7931 73.472 67.1061 74.4245 64.5677 74.4245H64.5454C62.0069 74.4245 59.32 73.472 58.2734 70.976C60.374 70.9498 62.4597 70.9301 64.5528 70.9301C66.646 70.9301 68.7391 70.9432 70.8322 70.976H70.8396Z" fill="#88342A"/>
<path fill-rule="evenodd" clip-rule="evenodd" d="M62.4004 77.0124C62.2223 76.9204 62.1703 76.7234 62.2668 76.5657C62.3707 76.4147 62.5934 76.3621 62.7716 76.4475C63.2763 76.7103 63.922 76.8416 64.5678 76.8416C65.2135 76.8416 65.8444 76.7103 66.3343 76.4475C66.505 76.3556 66.7351 76.4015 66.8391 76.5592C66.943 76.7168 66.891 76.9139 66.7129 77.0058C66.1042 77.3343 65.3397 77.4919 64.5678 77.4919C63.7958 77.4919 63.0239 77.3277 62.4004 77.0058V77.0124Z" fill="#D67F54"/>
<path fill-rule="evenodd" clip-rule="evenodd" d="M63.7217 62.5553C63.5213 62.5553 63.3506 62.4108 63.3506 62.2269C63.3506 62.043 63.5139 61.8985 63.7217 61.8985C64.605 61.8985 65.659 61.8919 66.4754 61.7671C67.1435 61.6686 67.6408 61.5043 67.6408 61.235C67.6408 60.2958 66.5645 54.4695 66.5645 54.4498C66.5348 54.2725 66.6684 54.1083 66.8688 54.0754C67.0692 54.0492 67.2548 54.1674 67.2919 54.3447C67.2919 54.3644 68.383 60.2498 68.383 61.2285C68.383 61.9116 67.6259 62.2466 66.6016 62.4042C65.7183 62.5356 64.6347 62.5422 63.7217 62.5422V62.5553Z" fill="#D67F54"/>
<path fill-rule="evenodd" clip-rule="evenodd" d="M98.8595 65.3468C98.8595 65.5242 98.6962 65.6753 98.4884 65.6753C98.2806 65.6753 98.1173 65.5307 98.1173 65.3468C98.1173 64.355 97.9243 63.7376 97.6125 63.396C97.427 63.1924 97.1895 63.1004 96.9297 63.0939C96.6254 63.0939 96.2839 63.1858 95.9277 63.3697C94.9627 63.8558 93.9607 64.8805 93.404 66.0037C93.1368 66.5423 92.9067 67.1006 92.7731 67.5144C93.3372 67.1663 93.9607 67.0284 94.4877 67.0743C94.7846 67.1006 95.0592 67.186 95.2819 67.3305C95.5194 67.4816 95.6901 67.6852 95.7792 67.9414C95.9276 68.388 95.8163 68.9858 95.2745 69.7083C95.1631 69.8594 94.933 69.8988 94.7623 69.8002C94.5916 69.7017 94.5471 69.4981 94.6584 69.347C95.0666 68.815 95.1631 68.4077 95.0741 68.1319C95.037 68.0136 94.9553 67.9217 94.8514 67.856C94.7401 67.7837 94.5842 67.7377 94.4135 67.7246C93.9384 67.6852 93.3446 67.8625 92.8399 68.3092C92.7063 68.4274 92.5801 68.4931 92.4688 68.5194C92.1719 68.5719 92.0012 68.4603 91.9344 68.2041V68.1844C91.9047 68.0859 91.9121 67.9611 91.9344 67.8034C92.016 67.3371 92.3352 66.5226 92.7137 65.7475C93.3298 64.5061 94.4506 63.3566 95.5417 62.8114C96.0093 62.5749 96.4843 62.4436 96.9223 62.4567C97.3973 62.4633 97.8278 62.6341 98.1618 62.9953C98.5775 63.4485 98.8298 64.2039 98.8298 65.3534L98.8595 65.3468Z" fill="#D67F54"/>
<path fill-rule="evenodd" clip-rule="evenodd" d="M29.8753 65.3469C29.8753 65.5242 29.712 65.6753 29.5042 65.6753C29.2964 65.6753 29.1331 65.5308 29.1331 65.3469C29.1331 64.1974 29.3928 63.4355 29.8085 62.9888C30.1425 62.6275 30.573 62.4568 31.048 62.4502C31.486 62.4436 31.961 62.5684 32.4286 62.8049C33.5197 63.3501 34.6479 64.4996 35.2566 65.741C35.6425 66.5161 35.9543 67.3371 36.0359 67.7969C36.0656 67.948 36.0656 68.0794 36.0434 68.1779V68.1976C35.9765 68.4538 35.8058 68.5654 35.5089 68.5129C35.3902 68.4932 35.2714 68.4209 35.1378 68.3027C34.6405 67.8626 34.0393 67.6787 33.5643 67.7181C33.3935 67.7312 33.2451 67.7772 33.1263 67.8495C33.0224 67.9152 32.9482 68.0071 32.9111 68.1253C32.822 68.4012 32.9185 68.8085 33.3267 69.3405C33.4381 69.4916 33.3935 69.6886 33.2228 69.7937C33.0521 69.8923 32.822 69.8528 32.7107 69.7018C32.1688 68.9858 32.0501 68.3881 32.2059 67.9349C32.295 67.6787 32.4657 67.4685 32.7033 67.324C32.9259 67.1861 33.2006 67.0941 33.4975 67.0678C34.0244 67.0218 34.6479 67.1598 35.212 67.5079C35.0784 67.0875 34.8483 66.5358 34.5811 65.9972C34.0319 64.8805 33.0298 63.8493 32.0649 63.3632C31.7086 63.1859 31.3672 63.0873 31.0629 63.0873C30.8031 63.0873 30.5656 63.1859 30.38 63.3895C30.0683 63.731 29.8753 64.3485 29.8753 65.3403V65.3469Z" fill="#D67F54"/>
<path fill-rule="evenodd" clip-rule="evenodd" d="M33.3415 60.1971C10.3913 -2.1112 115.946 -3.91095 94.3614 59.8556C92.3573 65.0841 88.1859 41.2866 88.1785 41.1289C88.134 39.5788 84.6974 31.8543 80.3924 31.0529C66.9503 28.5569 39.9475 36.2814 39.8064 41.1289C39.8064 41.2997 37.9434 49.6745 36.0655 55.3628C34.7666 59.3038 34.0392 62.4633 33.3267 60.2037L33.3415 60.1971Z" fill="#4E2C0B"/>
<path fill-rule="evenodd" clip-rule="evenodd" d="M94.4282 59.5075C94.2946 60.657 90.3088 80.0865 90.2716 80.1916C88.3938 75.8893 91.1994 64.0595 91.7042 59.212C91.8749 56.5649 91.2366 52.4727 92.6617 52.5647C94.6138 51.8619 94.495 58.2201 94.4282 59.501V59.5075Z" fill="#4E2C0B"/>
<path fill-rule="evenodd" clip-rule="evenodd" d="M33.2823 59.3367C33.4159 60.4862 37.6912 80.0864 37.7283 80.1915C39.6062 75.8892 36.8005 64.0594 36.2958 59.2119C36.1251 56.5648 36.7634 52.4726 35.3383 52.5646C33.3862 51.8618 33.208 58.0493 33.2748 59.3301L33.2823 59.3367Z" fill="#4E2C0B"/>
<path fill-rule="evenodd" clip-rule="evenodd" d="M66.3566 35.0334C66.9578 37.1287 60.812 42.7973 62.1704 43.4542C64.4713 44.5708 73.9201 42.7185 80.526 36.1172C81.3574 35.283 81.4835 38.2848 83.8439 40.7742C86.516 43.5855 91.4741 46.029 92.9883 46.9026C94.4357 47.7434 94.4506 47.3427 94.8291 45.6152C96.3507 38.5804 91.6226 17.4365 63.9963 17.4365C32.9779 17.4365 30.8328 44.111 33.9799 47.5069C41.9665 46.1866 55.312 34.6918 53.8721 36.577C52.343 38.5672 45.2101 43.776 47.0805 43.7826C57.6278 43.8286 66.3121 34.8692 66.3566 35.0334Z" fill="#623A1C"/>
<path fill-rule="evenodd" clip-rule="evenodd" d="M63.9961 125.895C65.013 125.895 65.8443 122.446 65.8443 118.216C65.8443 113.986 65.013 110.538 63.9961 110.538C62.9793 110.538 62.1479 113.986 62.1479 118.216C62.1479 122.446 62.9793 125.895 63.9961 125.895Z" fill="#E4AE7C"/>
<path fill-rule="evenodd" clip-rule="evenodd" d="M25.5777 126.729C25.5777 126.46 25.8301 126.243 26.1344 126.243C26.4387 126.243 26.6836 126.466 26.6836 126.736L26.55 140.227C26.55 140.497 26.2977 140.713 25.9934 140.713C25.689 140.713 25.4441 140.49 25.4441 140.221L25.5777 126.729Z" fill="#B4283F"/>
<path fill-rule="evenodd" clip-rule="evenodd" d="M101.457 126.729C101.457 126.46 101.71 126.243 102.014 126.243C102.318 126.243 102.563 126.466 102.563 126.736L102.43 140.227C102.43 140.497 102.177 140.713 101.873 140.713C101.569 140.713 101.324 140.49 101.324 140.221L101.457 126.729Z" fill="#B4283F"/>
<path fill-rule="evenodd" clip-rule="evenodd" d="M39.5542 40.7151C39.3983 40.8268 39.1682 40.8071 39.0346 40.6626C38.9085 40.5246 38.9307 40.321 39.094 40.2028C39.7398 39.743 40.7938 39.0008 41.9145 38.206C49.3221 32.9643 60.441 25.1019 62.8904 21.6535C63.0017 21.5024 63.2244 21.4564 63.3951 21.5484C63.5658 21.6469 63.6178 21.844 63.5138 21.995C60.9976 25.5289 49.8194 33.4373 42.3747 38.7052C41.4543 39.3554 40.6082 39.9532 39.5542 40.702V40.7151Z" fill="#7C5032"/>
<path fill-rule="evenodd" clip-rule="evenodd" d="M51.3484 42.5281C51.1925 42.6397 50.9624 42.62 50.8288 42.4755C50.7026 42.3376 50.7249 42.134 50.8882 42.0157C53.2485 40.3342 59.9955 34.9284 64.9537 29.7721C67.9598 26.6455 70.2905 23.6241 70.5428 21.6207C70.5651 21.4433 70.7432 21.312 70.9511 21.3317C71.1515 21.3514 71.2999 21.509 71.2776 21.6929C71.0104 23.8408 68.6056 26.974 65.5253 30.1925C60.5374 35.3882 53.7384 40.8268 51.3632 42.5281H51.3484Z" fill="#7C5032"/>
<path fill-rule="evenodd" clip-rule="evenodd" d="M68.5166 41.1355C68.3681 41.2538 68.1381 41.2472 67.997 41.1158C67.8634 40.9845 67.8708 40.7809 68.0193 40.6561C70.5652 38.5804 72.7548 36.3209 74.3284 34.0351C75.7906 31.92 76.7332 29.7853 76.9633 27.7556C77.4458 23.4795 77.3567 22.9147 77.3567 22.9147C77.327 22.7373 77.4681 22.5731 77.6685 22.5468C77.8689 22.5206 78.0544 22.6454 78.0841 22.8227C78.0841 22.8227 78.188 23.4664 77.6982 27.8147C77.4532 29.9495 76.4809 32.1762 74.9593 34.37C73.3412 36.7084 71.1145 39.0139 68.5166 41.129V41.1355Z" fill="#7C5032"/>
<path fill-rule="evenodd" clip-rule="evenodd" d="M90.5612 38.009C90.5835 38.1863 90.4425 38.3505 90.2421 38.3702C90.0417 38.3899 89.8561 38.2651 89.8338 38.0878C89.4701 35.513 88.3196 32.9578 86.9688 30.7574C84.7717 27.1776 82.1219 24.583 81.4984 24.3794C81.3054 24.3203 81.2089 24.1298 81.2757 23.9656C81.3425 23.7948 81.5578 23.7094 81.7434 23.7686C82.4485 23.9985 85.3284 26.7375 87.6071 30.4487C88.9951 32.7082 90.1827 35.3422 90.5612 38.009Z" fill="#7C5032"/>
<path fill-rule="evenodd" clip-rule="evenodd" d="M70.8619 12.7664C70.9287 12.9372 70.8248 13.1211 70.6318 13.1737C70.4388 13.2262 70.231 13.1343 70.1716 12.97C69.7114 11.7483 69.1399 10.474 68.6055 9.51504C68.1676 8.72683 67.7816 8.16851 67.5515 8.08312C67.3659 8.01087 67.2769 7.82038 67.3585 7.65617C67.4402 7.49196 67.6554 7.41314 67.841 7.48539C68.2492 7.64303 68.7614 8.31301 69.2735 9.2326C69.8228 10.2179 70.4017 11.5184 70.8767 12.773L70.8619 12.7664Z" fill="#B4283F"/>
<path fill-rule="evenodd" clip-rule="evenodd" d="M57.613 12.8715C57.5536 13.0423 57.3532 13.1408 57.1528 13.0883C56.9598 13.0357 56.8485 12.8584 56.9078 12.681C57.3012 11.525 57.8802 10.5463 58.474 9.76463C59.4908 8.42467 60.5894 7.63645 60.8863 7.48538C61.0644 7.39999 61.2871 7.45254 61.3836 7.61018C61.4801 7.76782 61.4207 7.96488 61.2425 8.05027C60.9902 8.17507 60.0253 8.88446 59.09 10.1193C58.5334 10.855 57.9841 11.7746 57.6204 12.8584L57.613 12.8715Z" fill="#B4283F"/>
<path fill-rule="evenodd" clip-rule="evenodd" d="M64.3526 12.346C64.3526 12.5299 64.1893 12.6744 63.9815 12.6744C63.7736 12.6744 63.6104 12.5299 63.6104 12.346C63.6104 11.2622 64.0037 7.66924 64.0037 7.6561C64.026 7.47876 64.2041 7.34739 64.4046 7.36052C64.605 7.38023 64.7534 7.53787 64.7386 7.71522C64.7386 7.72836 64.3526 11.2688 64.3526 12.3394V12.346Z" fill="#B4283F"/>
<path fill-rule="evenodd" clip-rule="evenodd" d="M44.0448 98.7343C44.0225 98.5569 44.1636 98.3927 44.364 98.373C44.5644 98.3533 44.7499 98.4781 44.7722 98.6555C45.1878 101.611 47.2513 105.033 50.673 107.464C53.4713 109.447 57.1825 110.768 61.6508 110.617C61.8512 110.617 62.0219 110.748 62.0294 110.932C62.0294 111.109 61.8809 111.26 61.6731 111.267C57.0118 111.425 53.1373 110.045 50.2128 107.97C46.6352 105.428 44.4827 101.841 44.0448 98.7343Z" fill="#B4283F"/>
<path fill-rule="evenodd" clip-rule="evenodd" d="M83.2203 98.6555C83.2426 98.4781 83.4281 98.3533 83.6285 98.373C83.8289 98.3927 83.9774 98.5569 83.9477 98.7343C83.5098 101.841 81.3573 105.428 77.7797 107.97C74.8552 110.045 70.9807 111.425 66.3194 111.267C66.119 111.267 65.9557 111.109 65.9631 110.932C65.9631 110.755 66.1413 110.61 66.3417 110.617C70.81 110.768 74.5212 109.447 77.3195 107.464C80.7412 105.033 82.7972 101.611 83.2203 98.6555Z" fill="#B4283F"/>
</g>
<defs>
<clipPath id="clip0_134_6159">
<rect width="128" height="140" fill="white" transform="translate(0 0.713257)"/>
</clipPath>
</defs>
</svg>
