<svg width="27" height="30" viewBox="0 0 27 30" fill="none" xmlns="http://www.w3.org/2000/svg">
<path fill-rule="evenodd" clip-rule="evenodd" d="M20.1401 1.66665C20.1401 0.930267 19.5432 0.333313 18.8068 0.333313C18.0704 0.333313 17.4735 0.930267 17.4735 1.66665V2.99998H9.47347V1.66665C9.47347 0.930267 8.87652 0.333313 8.14014 0.333313C7.40376 0.333313 6.8068 0.930267 6.8068 1.66665V2.99998H4.14014C1.931 2.99998 0.140137 4.79084 0.140137 6.99998V25.6666C0.140137 27.8758 1.931 29.6666 4.14014 29.6666H22.8068C25.0159 29.6666 26.8068 27.8758 26.8068 25.6666V6.99998C26.8068 4.79084 25.0159 2.99998 22.8068 2.99998H20.1401V1.66665ZM24.1401 11V6.99998C24.1401 6.2636 23.5432 5.66665 22.8068 5.66665H20.1401V6.99998C20.1401 7.73636 19.5432 8.33331 18.8068 8.33331C18.0704 8.33331 17.4735 7.73636 17.4735 6.99998V5.66665H9.47347V6.99998C9.47347 7.73636 8.87652 8.33331 8.14014 8.33331C7.40376 8.33331 6.8068 7.73636 6.8068 6.99998V5.66665H4.14014C3.40376 5.66665 2.8068 6.2636 2.8068 6.99998V11H24.1401ZM2.8068 13.6666H24.1401V25.6666C24.1401 26.403 23.5432 27 22.8068 27H4.14014C3.40376 27 2.8068 26.403 2.8068 25.6666V13.6666Z" fill="#E9511D"/>
</svg>
