<svg width="15" height="16" viewBox="0 0 15 16" fill="none" xmlns="http://www.w3.org/2000/svg">
<path fill-rule="evenodd" clip-rule="evenodd" d="M10.8333 1.33341C10.8333 0.965225 10.5348 0.666748 10.1666 0.666748C9.79846 0.666748 9.49998 0.965225 9.49998 1.33341V2.00008H5.49998V1.33341C5.49998 0.965225 5.2015 0.666748 4.83331 0.666748C4.46512 0.666748 4.16665 0.965225 4.16665 1.33341V2.00008H2.83331C1.72874 2.00008 0.833313 2.89551 0.833313 4.00008V13.3334C0.833313 14.438 1.72874 15.3334 2.83331 15.3334H12.1666C13.2712 15.3334 14.1666 14.438 14.1666 13.3334V4.00008C14.1666 2.89551 13.2712 2.00008 12.1666 2.00008H10.8333V1.33341ZM12.8333 6.00008V4.00008C12.8333 3.63189 12.5348 3.33341 12.1666 3.33341H10.8333V4.00008C10.8333 4.36827 10.5348 4.66675 10.1666 4.66675C9.79846 4.66675 9.49998 4.36827 9.49998 4.00008V3.33341H5.49998V4.00008C5.49998 4.36827 5.2015 4.66675 4.83331 4.66675C4.46512 4.66675 4.16665 4.36827 4.16665 4.00008V3.33341H2.83331C2.46512 3.33341 2.16665 3.63189 2.16665 4.00008V6.00008H12.8333ZM2.16665 7.33341H12.8333V13.3334C12.8333 13.7016 12.5348 14.0001 12.1666 14.0001H2.83331C2.46512 14.0001 2.16665 13.7016 2.16665 13.3334V7.33341Z" fill="#E9511D"/>
</svg>
