<svg width="36" height="35" viewBox="0 0 36 35" fill="none" xmlns="http://www.w3.org/2000/svg">
<path fill-rule="evenodd" clip-rule="evenodd" d="M1.5 0C0.671573 0 0 0.671573 0 1.5C0 2.32843 0.671573 3 1.5 3H6.27047L7.51793 9.23262C7.52457 9.2753 7.53302 9.31739 7.54319 9.3588L10.0487 21.8772C10.2547 22.9126 10.8184 23.8439 11.6407 24.5059C12.4593 25.1649 13.4826 25.5165 14.533 25.5H29.087C30.1374 25.5165 31.1607 25.1649 31.9793 24.5059C32.802 23.8436 33.3655 22.9131 33.5713 21.8772L33.5734 21.866L35.9734 9.28099C36.0572 8.84187 35.9407 8.38827 35.6557 8.04383C35.3708 7.69939 34.947 7.5 34.5 7.5H10.2306L8.97083 1.20561C8.83052 0.504578 8.21494 0 7.5 0H1.5ZM10.8311 10.5H32.6869L30.6278 21.2976C30.5584 21.641 30.371 21.9493 30.0981 22.169C29.8239 22.3898 29.4807 22.507 29.1287 22.5003L29.1 22.5H14.52L14.4913 22.5003C14.1393 22.507 13.7961 22.3898 13.5219 22.169C13.2477 21.9482 13.0598 21.6381 12.9913 21.2928L10.8311 10.5Z" fill="#47665A"/>
<path d="M10.5 31.5C10.5 29.8431 11.8431 28.5 13.5 28.5C15.1569 28.5 16.5 29.8431 16.5 31.5C16.5 33.1569 15.1569 34.5 13.5 34.5C11.8431 34.5 10.5 33.1569 10.5 31.5Z" fill="#47665A"/>
<path d="M27 31.5C27 29.8431 28.3431 28.5 30 28.5C31.6569 28.5 33 29.8431 33 31.5C33 33.1569 31.6569 34.5 30 34.5C28.3431 34.5 27 33.1569 27 31.5Z" fill="#47665A"/>
</svg>
