<svg width="31" height="30" viewBox="0 0 31 30" fill="none" xmlns="http://www.w3.org/2000/svg">
<path d="M16.8071 6.99998C16.8071 6.2636 16.2102 5.66665 15.4738 5.66665C14.7374 5.66665 14.1405 6.2636 14.1405 6.99998V15C14.1405 15.505 14.4258 15.9667 14.8775 16.1925L20.2108 18.8592C20.8695 19.1885 21.6704 18.9216 21.9997 18.2629C22.329 17.6043 22.0621 16.8034 21.4034 16.4741L16.8071 14.1759V6.99998Z" fill="#E9511D"/>
<path fill-rule="evenodd" clip-rule="evenodd" d="M15.4738 0.333313C7.37362 0.333313 0.807129 6.8998 0.807129 15C0.807129 23.1002 7.37362 29.6666 15.4738 29.6666C23.574 29.6666 30.1405 23.1002 30.1405 15C30.1405 6.8998 23.574 0.333313 15.4738 0.333313ZM3.4738 15C3.4738 8.37256 8.84638 2.99998 15.4738 2.99998C22.1012 2.99998 27.4738 8.37256 27.4738 15C27.4738 21.6274 22.1012 27 15.4738 27C8.84638 27 3.4738 21.6274 3.4738 15Z" fill="#E9511D"/>
</svg>
