<svg width="24" height="25" viewBox="0 0 24 25" fill="none" xmlns="http://www.w3.org/2000/svg">
<path fill-rule="evenodd" clip-rule="evenodd" d="M15.7897 7.93443C16.6596 8.73276 17.8663 9.22727 19.2 9.22727C21.851 9.22727 24 7.27361 24 4.86364C24 2.45367 21.851 0.5 19.2 0.5C16.549 0.5 14.4 2.45367 14.4 4.86364C14.4 5.27495 14.4626 5.67297 14.5796 6.05025L8.21037 9.42929C7.34049 8.63091 6.13377 8.13636 4.8 8.13636C2.14903 8.13636 0 10.09 0 12.5C0 14.91 2.14903 16.8636 4.8 16.8636C6.13401 16.8636 7.34093 16.3689 8.21084 15.5703L14.5811 18.9449C14.4631 19.3236 14.4 19.7233 14.4 20.1364C14.4 22.5463 16.549 24.5 19.2 24.5C21.851 24.5 24 22.5463 24 20.1364C24 17.7264 21.851 15.7727 19.2 15.7727C17.8683 15.7727 16.6632 16.2658 15.7936 17.062L9.42061 13.6859C9.53748 13.3088 9.6 12.9111 9.6 12.5C9.6 12.0887 9.53741 11.6907 9.42043 11.3135L15.7897 7.93443ZM19.2 2.68182C17.8745 2.68182 16.8 3.65865 16.8 4.86364C16.8 5.2422 16.9061 5.59824 17.0926 5.90855C17.1051 5.92564 17.117 5.94315 17.1285 5.96107C17.1399 5.97885 17.1507 5.9968 17.1609 6.0149C17.5845 6.63362 18.3394 7.04545 19.2 7.04545C20.5255 7.04545 21.6 6.06862 21.6 4.86364C21.6 3.65865 20.5255 2.68182 19.2 2.68182ZM6.84021 11.3504C6.85012 11.3679 6.86061 11.3853 6.87168 11.4026C6.88282 11.4199 6.89441 11.4369 6.90643 11.4535C7.09359 11.7642 7.2 12.1208 7.2 12.5C7.2 12.8792 7.09356 13.2359 6.90636 13.5466C6.89423 13.5634 6.88254 13.5805 6.8713 13.598C6.8604 13.615 6.85006 13.6322 6.84028 13.6495C6.41692 14.2692 5.66147 14.6818 4.8 14.6818C3.47452 14.6818 2.4 13.705 2.4 12.5C2.4 11.295 3.47452 10.3182 4.8 10.3182C5.66142 10.3182 6.41684 10.7308 6.84021 11.3504ZM16.8 20.1364C16.8 19.7818 16.893 19.447 17.0581 19.1511C17.0878 19.1155 17.1155 19.0779 17.1409 19.0383C17.1652 19.0004 17.1868 18.9617 17.2055 18.9224C17.6363 18.3387 18.3688 17.9545 19.2 17.9545C20.5255 17.9545 21.6 18.9314 21.6 20.1364C21.6 21.3413 20.5255 22.3182 19.2 22.3182C17.8745 22.3182 16.8 21.3413 16.8 20.1364Z" fill="#47665A"/>
</svg>
