<svg width="29" height="30" viewBox="0 0 29 30" fill="none" xmlns="http://www.w3.org/2000/svg">
<path d="M28.9867 14.9533C28.9867 16.9267 28.6133 18.7756 27.8667 20.5C27.12 22.2244 26.1067 23.7267 24.8267 25.0067C23.5467 26.2867 22.0444 27.2911 20.32 28.02C18.6133 28.7489 16.7822 29.1133 14.8267 29.1133C12.8533 29.1133 11.0044 28.74 9.28 27.9933C7.55556 27.2467 6.05333 26.2333 4.77333 24.9533C3.51111 23.6733 2.50667 22.1711 1.76 20.4467C1.03111 18.7222 0.666667 16.8911 0.666667 14.9533C0.666667 12.9978 1.04 11.1578 1.78667 9.43333C2.53333 7.70889 3.54667 6.20667 4.82667 4.92667C6.12444 3.64667 7.62667 2.64222 9.33333 1.91333C11.0578 1.16667 12.8889 0.793333 14.8267 0.793333C16.7644 0.793333 18.5867 1.16667 20.2933 1.91333C22.0178 2.64222 23.52 3.64667 24.8 4.92667C26.0978 6.20667 27.12 7.70889 27.8667 9.43333C28.6133 11.14 28.9867 12.98 28.9867 14.9533ZM14.8267 24.3133C16.1244 24.3133 17.3422 24.0733 18.48 23.5933C19.6178 23.0956 20.6044 22.4289 21.44 21.5933C22.2933 20.74 22.96 19.7444 23.44 18.6067C23.9378 17.4689 24.1867 16.2511 24.1867 14.9533C24.1867 13.6733 23.9378 12.4644 23.44 11.3267C22.96 10.1889 22.2933 9.19333 21.44 8.34C20.6044 7.48667 19.6178 6.82 18.48 6.34C17.3422 5.84222 16.1244 5.59333 14.8267 5.59333C13.5467 5.59333 12.3378 5.84222 11.2 6.34C10.0622 6.82 9.06667 7.48667 8.21333 8.34C7.36 9.19333 6.68444 10.1889 6.18667 11.3267C5.70667 12.4644 5.46667 13.6733 5.46667 14.9533C5.46667 16.2511 5.70667 17.4689 6.18667 18.6067C6.68444 19.7444 7.36 20.74 8.21333 21.5933C9.06667 22.4289 10.0622 23.0956 11.2 23.5933C12.3378 24.0733 13.5467 24.3133 14.8267 24.3133ZM14.8267 11.5667C15.3067 11.5667 15.7511 11.6556 16.16 11.8333C16.5689 12.0111 16.9244 12.2511 17.2267 12.5533C17.5467 12.8556 17.7956 13.22 17.9733 13.6467C18.1511 14.0556 18.24 14.4911 18.24 14.9533C18.24 15.4333 18.1511 15.8778 17.9733 16.2867C17.7956 16.6956 17.5467 17.06 17.2267 17.38C16.9244 17.6822 16.5689 17.9222 16.16 18.1C15.7511 18.2778 15.3067 18.3667 14.8267 18.3667C14.3644 18.3667 13.9289 18.2778 13.52 18.1C13.1111 17.9222 12.7467 17.6822 12.4267 17.38C12.1244 17.06 11.8844 16.6956 11.7067 16.2867C11.5289 15.8778 11.44 15.4333 11.44 14.9533C11.44 14.4911 11.5289 14.0556 11.7067 13.6467C11.8844 13.22 12.1244 12.8556 12.4267 12.5533C12.7467 12.2511 13.1111 12.0111 13.52 11.8333C13.9289 11.6556 14.3644 11.5667 14.8267 11.5667Z" fill="#E9521E"/>
</svg>
