<svg width="24" height="25" viewBox="0 0 24 25" fill="none" xmlns="http://www.w3.org/2000/svg">
<path fill-rule="evenodd" clip-rule="evenodd" d="M10.5133 5.86252C8.69389 4.0431 5.74403 4.0431 3.92462 5.86252C2.1052 7.68193 2.10521 10.6318 3.92462 12.4512L4.70433 13.2309C4.71707 13.2437 4.72944 13.2567 4.74142 13.2701L12.0001 20.5288L19.2585 13.2704C19.2706 13.257 19.283 13.2438 19.2959 13.2309L20.0756 12.4512C21.895 10.6318 21.895 7.68193 20.0756 5.86252C18.2562 4.0431 15.3063 4.0431 13.4869 5.86252L12.7072 6.64222C12.3167 7.03275 11.6835 7.03275 11.293 6.64222L10.5133 5.86252ZM20.7486 14.6067C20.7365 14.6201 20.724 14.6333 20.7112 14.6462L12.7083 22.6491C12.5207 22.8366 12.2662 22.942 12.0009 22.9419C12.0007 22.9419 12.0012 22.9419 12.0009 22.9419C12.0007 22.9419 11.9996 22.9419 11.9993 22.9419C11.734 22.942 11.4796 22.8366 11.292 22.6491L3.28909 14.6462C3.27619 14.6333 3.26372 14.6201 3.25167 14.6067L2.51041 13.8654C-0.0900556 11.265 -0.0900594 7.04877 2.51041 4.4483C5.11087 1.84784 9.32705 1.84784 11.9275 4.4483L12.0001 4.5209L12.0727 4.4483C14.6732 1.84784 18.8894 1.84784 21.4898 4.4483C24.0903 7.04877 24.0903 11.265 21.4898 13.8654L20.7486 14.6067Z" fill="#47665A"/>
</svg>
