<svg width="14" height="16" viewBox="0 0 14 16" fill="none" xmlns="http://www.w3.org/2000/svg">
<path fill-rule="evenodd" clip-rule="evenodd" d="M7.40921 0.807104C7.16847 0.619861 6.83137 0.619861 6.59063 0.807104L0.590625 5.47377C0.428234 5.60007 0.333252 5.79428 0.333252 6V13.3333C0.333252 13.8638 0.543966 14.3725 0.919038 14.7476C1.29411 15.1226 1.80282 15.3333 2.33325 15.3333H11.6666C12.197 15.3333 12.7057 15.1226 13.0808 14.7476C13.4559 14.3725 13.6666 13.8638 13.6666 13.3333V6C13.6666 5.79428 13.5716 5.60007 13.4092 5.47377L7.40921 0.807104ZM9.66659 14H11.6666C11.8434 14 12.013 13.9298 12.138 13.8047C12.263 13.6797 12.3333 13.5101 12.3333 13.3333V6.32606L6.99992 2.17791L1.66659 6.32606V13.3333C1.66659 13.5101 1.73682 13.6797 1.86185 13.8047C1.98687 13.9298 2.15644 14 2.33325 14H4.33325V8C4.33325 7.63181 4.63173 7.33334 4.99992 7.33334H8.99992C9.36811 7.33334 9.66659 7.63181 9.66659 8V14ZM5.66659 14V8.66667H8.33325V14H5.66659Z" fill="#47665A"/>
</svg>
