<svg width="27" height="32" viewBox="0 0 27 32" fill="none" xmlns="http://www.w3.org/2000/svg">
<path fill-rule="evenodd" clip-rule="evenodd" d="M13.4735 8C10.528 8 8.14014 10.3878 8.14014 13.3333C8.14014 16.2789 10.528 18.6667 13.4735 18.6667C16.419 18.6667 18.8068 16.2789 18.8068 13.3333C18.8068 10.3878 16.419 8 13.4735 8ZM10.8068 13.3333C10.8068 11.8606 12.0007 10.6667 13.4735 10.6667C14.9462 10.6667 16.1401 11.8606 16.1401 13.3333C16.1401 14.8061 14.9462 16 13.4735 16C12.0007 16 10.8068 14.8061 10.8068 13.3333Z" fill="#E9511D"/>
<path fill-rule="evenodd" clip-rule="evenodd" d="M12.7331 31.7756C12.7335 31.7758 12.7339 31.7761 13.4735 30.6667L12.7331 31.7756C13.181 32.0742 13.7652 32.0746 14.2131 31.7761L13.4735 30.6667C14.2131 31.7761 14.2127 31.7763 14.2131 31.7761L14.2176 31.773L14.2265 31.7671L14.257 31.7464C14.283 31.7288 14.32 31.7035 14.3674 31.6707C14.4621 31.6051 14.5982 31.5095 14.7697 31.3856C15.1127 31.1379 15.5983 30.7763 16.179 30.3139C17.3384 29.3907 18.8876 28.0571 20.4414 26.417C23.4945 23.1943 26.8068 18.5359 26.8068 13.3333C26.8068 9.79711 25.402 6.40573 22.9016 3.90524C20.4011 1.40476 17.0097 0 13.4735 0C9.93725 0 6.54586 1.40476 4.04538 3.90524C1.54489 6.40573 0.140137 9.79711 0.140137 13.3333C0.140137 18.5359 3.45249 23.1943 6.50553 26.417C8.05932 28.0571 9.60858 29.3907 10.7679 30.3139C11.3486 30.7763 11.8342 31.1379 12.1772 31.3856C12.3488 31.5095 12.4848 31.6051 12.5795 31.6707C12.6269 31.7035 12.6639 31.7288 12.6899 31.7464L12.7205 31.7671L12.7293 31.773L12.7331 31.7756ZM5.931 5.79086C7.93139 3.79047 10.6445 2.66667 13.4735 2.66667C16.3024 2.66667 19.0156 3.79047 21.0159 5.79086C23.0163 7.79125 24.1401 10.5044 24.1401 13.3333C24.1401 17.4641 21.4525 21.4723 18.5055 24.583C17.0593 26.1096 15.6086 27.3593 14.5179 28.2278C14.112 28.551 13.7574 28.8203 13.4735 29.0301C13.1895 28.8203 12.835 28.551 12.429 28.2278C11.3384 27.3593 9.88762 26.1096 8.44141 24.583C5.49445 21.4723 2.8068 17.4641 2.8068 13.3333C2.8068 10.5044 3.93061 7.79125 5.931 5.79086Z" fill="#E9511D"/>
</svg>
