<svg width="15" height="14" viewBox="0 0 15 14" fill="none" xmlns="http://www.w3.org/2000/svg">
<path fill-rule="evenodd" clip-rule="evenodd" d="M7.83663 1.66659C5.07699 1.66659 2.83986 3.90371 2.83986 6.66335C2.83986 7.4621 3.02679 8.21528 3.35867 8.88329C3.43708 9.04111 3.44981 9.22355 3.39408 9.39074L2.54818 11.9284L5.11144 11.1018C5.27718 11.0484 5.45725 11.0619 5.61314 11.1395C6.28203 11.4725 7.03647 11.6601 7.83663 11.6601C10.5963 11.6601 12.8334 9.42299 12.8334 6.66335C12.8334 3.90371 10.5963 1.66659 7.83663 1.66659ZM1.50653 6.66335C1.50653 3.16734 4.34061 0.333252 7.83663 0.333252C11.3326 0.333252 14.1667 3.16734 14.1667 6.66335C14.1667 10.1594 11.3326 12.9935 7.83663 12.9935C6.92426 12.9935 6.05551 12.8 5.27044 12.4515L1.7038 13.6016C1.46459 13.6787 1.20233 13.6148 1.02549 13.4362C0.848641 13.2576 0.787268 12.9947 0.86675 12.7563L2.04498 9.22167C1.69866 8.43866 1.50653 7.57267 1.50653 6.66335Z" fill="#E9511D"/>
</svg>
