<svg width="27" height="30" viewBox="0 0 27 30" fill="none" xmlns="http://www.w3.org/2000/svg">
<path fill-rule="evenodd" clip-rule="evenodd" d="M17.6843 9.41983C18.6508 10.3956 19.9916 11 21.4735 11C24.419 11 26.8068 8.61217 26.8068 5.66665C26.8068 2.72113 24.419 0.333313 21.4735 0.333313C18.528 0.333313 16.1401 2.72113 16.1401 5.66665C16.1401 6.16936 16.2097 6.65583 16.3397 7.11696L9.26277 11.2469C8.29623 10.2711 6.95544 9.66665 5.47347 9.66665C2.52795 9.66665 0.140137 12.0545 0.140137 15C0.140137 17.9455 2.52795 20.3333 5.47347 20.3333C6.95571 20.3333 8.29672 19.7287 9.2633 18.7525L16.3414 22.8771C16.2103 23.34 16.1401 23.8285 16.1401 24.3333C16.1401 27.2788 18.528 29.6666 21.4735 29.6666C24.419 29.6666 26.8068 27.2788 26.8068 24.3333C26.8068 21.3878 24.419 19 21.4735 19C19.9938 19 18.6548 19.6026 17.6886 20.5758L10.6075 16.4494C10.7373 15.9886 10.8068 15.5024 10.8068 15C10.8068 14.4973 10.7373 14.0109 10.6073 13.5498L17.6843 9.41983ZM21.4735 2.99998C20.0007 2.99998 18.8068 4.19389 18.8068 5.66665C18.8068 6.12933 18.9246 6.56449 19.1319 6.94376C19.1457 6.96465 19.1591 6.98605 19.1718 7.00796C19.1845 7.02968 19.1965 7.05162 19.2078 7.07375C19.6785 7.82996 20.5172 8.33331 21.4735 8.33331C22.9462 8.33331 24.1401 7.13941 24.1401 5.66665C24.1401 4.19389 22.9462 2.99998 21.4735 2.99998ZM7.74037 13.5949C7.75139 13.6164 7.76304 13.6376 7.77534 13.6587C7.78772 13.6799 7.8006 13.7007 7.81395 13.7209C8.0219 14.1007 8.14014 14.5365 8.14014 15C8.14014 15.4635 8.02187 15.8994 7.81387 16.2792C7.80039 16.2996 7.7874 16.3206 7.77491 16.342C7.7628 16.3628 7.75131 16.3838 7.74045 16.4049C7.27005 17.1623 6.43065 17.6666 5.47347 17.6666C4.00071 17.6666 2.8068 16.4727 2.8068 15C2.8068 13.5272 4.00071 12.3333 5.47347 12.3333C6.4306 12.3333 7.26996 12.8376 7.74037 13.5949ZM18.8068 24.3333C18.8068 23.9 18.9102 23.4908 19.0936 23.1291C19.1266 23.0856 19.1574 23.0397 19.1856 22.9913C19.2126 22.9449 19.2365 22.8976 19.2574 22.8495C19.736 22.1362 20.5499 21.6666 21.4735 21.6666C22.9462 21.6666 24.1401 22.8606 24.1401 24.3333C24.1401 25.8061 22.9462 27 21.4735 27C20.0007 27 18.8068 25.8061 18.8068 24.3333Z" fill="#E9511D"/>
</svg>
