<svg width="24" height="20" viewBox="0 0 24 20" fill="none" xmlns="http://www.w3.org/2000/svg">
<path fill-rule="evenodd" clip-rule="evenodd" d="M17.8097 0.153818C16.7207 -0.118673 15.5743 -0.0501294 14.5255 0.350177C13.4767 0.750483 12.5761 1.46324 11.9456 2.39204C11.322 3.31064 10.9923 4.39674 10.9997 5.5064C9.74238 5.4119 8.51244 5.0719 7.38058 4.5022C5.95762 3.78597 4.73388 2.72895 3.81834 1.42527L2.99998 1.99998L2.10555 1.55277C2.0976 1.56867 2.09011 1.58472 2.08306 1.6009L2.08011 1.60765L2.06854 1.63458C2.05908 1.65683 2.04619 1.68764 2.03042 1.72657C1.99889 1.8044 1.95575 1.91487 1.90526 2.05452C1.8044 2.33349 1.67356 2.73076 1.54746 3.21835C1.29646 4.18888 1.05769 5.54227 1.12601 7.04539C1.19454 8.55289 1.57341 10.2316 2.57704 11.8163C3.3294 13.0042 4.41157 14.1054 5.91472 15.033C4.39635 15.7325 2.72654 16.0679 1.03973 16.0008C0.577004 15.9824 0.162178 16.2841 0.0371299 16.73C-0.0879187 17.1758 0.109527 17.6492 0.514338 17.8741C5.29085 20.5278 10.6509 20.5525 14.8448 18.3202C19.0631 16.075 22 11.5999 22 5.49998L22 5.49668C21.9994 5.33442 21.9917 5.17236 21.9769 5.01096C22.9424 3.93955 23.629 2.64313 23.9716 1.2366L23 0.999985L22.4236 0.182822C21.7151 0.682561 20.9448 1.08657 20.1326 1.38509C19.4722 0.794543 18.6758 0.370507 17.8097 0.153818ZM3.12395 6.95458C3.07425 5.86122 3.22094 4.84496 3.40463 4.04359C4.29723 4.95247 5.33583 5.71206 6.4814 6.28866C8.19897 7.15317 10.1037 7.57949 12.0259 7.52965C12.5679 7.51559 13 7.07217 13 6.52998V5.52998L12.9999 5.51658C12.9903 4.80375 13.1999 4.10519 13.6003 3.51536C14.0007 2.92553 14.5726 2.47291 15.2387 2.2187C15.9047 1.96449 16.6327 1.92096 17.3243 2.094C18.0159 2.26705 18.6376 2.64831 19.1054 3.18622C19.3635 3.48302 19.7717 3.60093 20.1483 3.48752C20.3799 3.41777 20.6092 3.34104 20.8357 3.25749C20.6469 3.50415 20.4406 3.73829 20.2178 3.95798C19.9801 4.19236 19.8751 4.52987 19.9378 4.85774C19.9783 5.06999 19.9992 5.28555 20 5.50165C19.9995 10.9008 17.4365 14.6751 13.9051 16.5547C11.307 17.9376 8.13025 18.3233 4.96008 17.5157C6.23418 17.1488 7.45067 16.5815 8.56161 15.8274C8.86203 15.6234 9.02831 15.2727 8.99602 14.911C8.96372 14.5494 8.73792 14.2336 8.40612 14.0862C6.31602 13.1572 5.04027 11.9676 4.26667 10.7462C3.48906 9.51836 3.18043 8.19708 3.12395 6.95458Z" fill="#47665A"/>
</svg>
