<svg width="17" height="16" viewBox="0 0 17 16" fill="none" xmlns="http://www.w3.org/2000/svg">
<path fill-rule="evenodd" clip-rule="evenodd" d="M8.5 0C6.0454 0 4.05556 1.79086 4.05556 4C4.05556 6.20914 6.0454 8 8.5 8C10.9546 8 12.9444 6.20914 12.9444 4C12.9444 1.79086 10.9546 0 8.5 0ZM5.83333 4C5.83333 2.67452 7.02724 1.6 8.5 1.6C9.97276 1.6 11.1667 2.67452 11.1667 4C11.1667 5.32548 9.97276 6.4 8.5 6.4C7.02724 6.4 5.83333 5.32548 5.83333 4Z" fill="#E9511D"/>
<path d="M4.94444 9.6C3.7657 9.6 2.63524 10.0214 1.80175 10.7716C0.968253 11.5217 0.5 12.5391 0.5 13.6V15.2C0.5 15.6418 0.897969 16 1.38889 16C1.87981 16 2.27778 15.6418 2.27778 15.2V13.6C2.27778 12.9635 2.55873 12.353 3.05883 11.9029C3.55892 11.4529 4.2372 11.2 4.94444 11.2H12.0556C12.7628 11.2 13.4411 11.4529 13.9412 11.9029C14.4413 12.353 14.7222 12.9635 14.7222 13.6V15.2C14.7222 15.6418 15.1202 16 15.6111 16C16.102 16 16.5 15.6418 16.5 15.2V13.6C16.5 12.5391 16.0317 11.5217 15.1983 10.7716C14.3648 10.0214 13.2343 9.6 12.0556 9.6H4.94444Z" fill="#E9511D"/>
</svg>
