<svg width="250" height="70" viewBox="0 0 250 70" fill="none" xmlns="http://www.w3.org/2000/svg">
<path d="M46.96 62.0502C47.46 62.2502 47.62 61.8902 47.25 61.4502C45.9 59.8502 38.36 57.9902 29.05 56.4702C13.75 53.9802 15.27 53.0902 14.42 54.2902C13.57 55.4902 13.11 55.7302 14.19 56.0302C15.27 56.3302 18.05 56.3902 27.91 57.8002C31.72 58.3402 40.05 59.2402 46.95 62.0402L46.96 62.0502Z" fill="#FFF6C7" stroke="#FFF6C7" stroke-width="0.5" stroke-miterlimit="10"/>
<path d="M47.42 66.9901C48.05 67.0301 48.28 66.1301 47.71 65.8301C45.56 64.6901 40.67 63.0401 29.71 62.0701C11.68 60.4801 9.77 59.1501 8.88 60.6701C7.99 62.1901 6.27 65.9601 7.55 66.2101C8.83 66.4601 18.35 64.4001 29.95 65.1901C34.43 65.4901 43.17 66.7001 47.42 66.9901Z" fill="#FFF6C7" stroke="#FFF6C7" stroke-width="0.5" stroke-miterlimit="10"/>
<path d="M50.44 62.0502C49.94 62.2502 49.78 61.8902 50.15 61.4502C51.5 59.8502 59.04 57.9902 68.35 56.4702C83.65 53.9802 82.13 53.0902 82.98 54.2902C83.83 55.4902 84.29 55.7302 83.21 56.0302C82.13 56.3302 79.35 56.3902 69.49 57.8002C65.68 58.3402 57.35 59.2402 50.45 62.0402L50.44 62.0502Z" fill="#FFF6C7" stroke="#FFF6C7" stroke-width="0.5" stroke-miterlimit="10"/>
<path d="M49.98 66.9901C49.35 67.0301 49.12 66.1301 49.69 65.8301C51.84 64.6901 56.73 63.0401 67.69 62.0701C85.72 60.4801 87.63 59.1501 88.52 60.6701C89.41 62.1901 91.13 65.9601 89.85 66.2101C88.56 66.4701 79.05 64.4001 67.45 65.1901C62.97 65.4901 54.23 66.7001 49.98 66.9901Z" fill="#FFF6C7" stroke="#FFF6C7" stroke-width="0.5" stroke-miterlimit="10"/>
<path d="M49.03 22.15C51.3496 22.15 53.23 20.2696 53.23 17.95C53.23 15.6304 51.3496 13.75 49.03 13.75C46.7104 13.75 44.83 15.6304 44.83 17.95C44.83 20.2696 46.7104 22.15 49.03 22.15Z" stroke="#FFF6C7" stroke-width="1.5" stroke-miterlimit="10"/>
<path d="M49.03 31.54C49.03 31.54 43.8 32.46 49.03 45.79C54.26 32.45 49.03 31.54 49.03 31.54Z" fill="#FFF6C7"/>
<path d="M39.82 30.1099C38.42 31.4499 39.45 36.0799 37.81 40.0499C36.16 44.0099 37.57 44.7599 37.57 44.7599C37.57 44.7599 39.52 45.9599 39.58 44.5599C39.63 43.2999 40.48 38.6799 41.85 35.0599C41.29 33.0999 40.89 31.2199 40.64 29.4199C40.32 29.6699 40.04 29.8999 39.82 30.0999V30.1099Z" fill="#FFF6C7"/>
<path d="M60.26 40.0502C58.61 36.0902 59.65 31.4502 58.25 30.1102C58.04 29.9102 57.76 29.6702 57.43 29.4302C57.18 31.2202 56.78 33.1002 56.22 35.0702C57.59 38.6902 58.43 43.3102 58.49 44.5702C58.55 45.9702 60.5 44.7702 60.5 44.7702C60.5 44.7702 61.9 44.0202 60.26 40.0602V40.0502Z" fill="#FFF6C7"/>
<path d="M58.39 59.6698C58.14 59.5098 58.11 59.1298 58.35 58.9498C58.8 58.6198 59.07 58.0898 59.13 57.2098C59.19 56.4298 59.01 55.9998 58.14 55.5698C57.89 55.4498 57.81 55.1298 57.88 54.8598C57.96 54.5498 58 54.2198 58 53.8798C57.98 51.8598 56.36 50.2798 54.39 50.3498C54.27 50.3498 54.15 50.3698 54.03 50.3798C53.66 50.4298 53.34 50.1298 53.34 49.7698L53.22 38.2598H44.86L44.97 48.0798C44.97 48.5398 44.51 48.8198 44.08 48.6398C43.72 48.4898 43.31 48.4098 42.89 48.4198C41.28 48.4798 39.98 49.8598 40 51.5098C40 52.1198 40.19 52.6798 40.5 53.1398C40.72 53.4598 40.59 53.8998 40.22 54.0298C38.73 54.5598 37.66 56.1298 37.68 57.9498C37.68 58.7198 39.23 59.8498 38.26 60.8498C37.14 61.9998 37.08 63.5098 38.29 63.9598L43.36 65.5098C44.33 65.7898 46.02 66.4998 48.13 66.9098C48.78 67.0398 49.45 67.0198 50.09 66.8498L51.03 66.5998C51.77 66.4198 53.55 66.0898 54.11 65.9098L58.59 64.3198C59.05 64.0898 59.94 63.7298 59.98 63.2998C60.26 60.6298 59.36 60.3098 58.38 59.6798L58.39 59.6698Z" stroke="#FFF6C7" stroke-width="1.5" stroke-miterlimit="10"/>
<path d="M49.03 31.54C49.03 31.54 43.8 32.46 49.03 45.79C54.26 32.45 49.03 31.54 49.03 31.54Z" fill="#FFF6C7"/>
<path d="M55.4 38.2098C63.36 15.2098 49.03 3.00977 49.03 3.00977C49.03 3.00977 34.7 15.2098 42.66 38.2098H55.4Z" stroke="#FFF6C7" stroke-width="1.5" stroke-miterlimit="10"/>
<path d="M72.6667 43V26.52H86.48V31.32H77.4667V43H72.6667ZM72.6667 20.7067V15.9067H88.2133V20.7067H72.6667ZM93.0104 43V15.9067H97.8104V43H93.0104ZM115.515 15.32C117.382 15.32 119.222 15.6667 120.928 16.3867C122.582 17.08 124.075 18.0667 125.382 19.32L122.048 22.76C120.288 21.0533 117.968 20.12 115.515 20.12C110.928 20.12 107.035 23.4 106.288 27.9067L101.542 27.1333C102.102 23.8533 103.782 20.8667 106.315 18.7067C107.568 17.64 108.982 16.7867 110.528 16.2267C112.128 15.6133 113.808 15.32 115.515 15.32ZM115.515 38.8133C117.968 38.8133 120.288 37.88 122.048 36.1733L125.382 39.6133C124.075 40.8667 122.582 41.8533 120.928 42.5467C119.222 43.24 117.382 43.6133 115.515 43.6133C113.808 43.6133 112.128 43.32 110.528 42.7067C108.982 42.12 107.568 41.2933 106.315 40.2267C103.782 38.0667 102.102 35.08 101.542 31.8L106.288 31C107.035 35.5333 110.928 38.8133 115.515 38.8133ZM147.378 15.9067V20.7067H140.391V43H135.591V15.9067H147.378ZM128.604 20.7067V15.9067H132.924V20.7067H128.604ZM152.167 43V15.9067H156.967V43H152.167ZM184.885 19.4533C186.165 20.76 187.205 22.2533 187.898 23.96C188.645 25.6933 189.018 27.56 189.018 29.4533C189.018 31.3733 188.645 33.24 187.898 34.9733C187.205 36.6533 186.165 38.1733 184.885 39.48C183.578 40.7867 182.058 41.8 180.378 42.52C178.618 43.24 176.778 43.6133 174.858 43.6133C172.938 43.6133 171.098 43.24 169.338 42.52C167.658 41.8 166.138 40.7867 164.858 39.48C163.551 38.1733 162.538 36.6533 161.818 34.9733C161.071 33.24 160.698 31.3733 160.698 29.4533C160.698 27.56 161.071 25.6933 161.818 23.96C162.538 22.2533 163.551 20.76 164.858 19.4533C166.138 18.1467 167.658 17.1333 169.338 16.4133C171.098 15.6667 172.938 15.2933 174.858 15.2933C176.778 15.2933 178.618 15.6667 180.378 16.4133C182.058 17.1333 183.578 18.1467 184.885 19.4533ZM174.858 38.8133C180.031 38.8133 184.218 34.6267 184.218 29.4533C184.218 24.3067 180.031 20.0933 174.858 20.0933C169.711 20.0933 165.498 24.3067 165.498 29.4533C165.498 34.6267 169.711 38.8133 174.858 38.8133ZM174.858 26.0667C176.751 26.0667 178.271 27.5867 178.271 29.4533C178.271 31.3467 176.751 32.8667 174.858 32.8667C172.991 32.8667 171.471 31.3467 171.471 29.4533C171.471 27.5867 172.991 26.0667 174.858 26.0667ZM197.56 15.9067V38.2H206.76V43H192.76V15.9067H197.56ZM211.573 43V15.9067H216.373V43H211.573ZM237.965 28.4667C238.738 29.2667 239.351 30.1733 239.778 31.1867C240.231 32.2267 240.471 33.3467 240.471 34.4933C240.471 35.64 240.231 36.76 239.778 37.8C239.351 38.8133 238.738 39.72 237.965 40.52C237.191 41.2933 236.285 41.9067 235.271 42.3333C234.205 42.7867 233.085 43 231.938 43H221.911V38.2H231.938C233.991 38.2 235.671 36.5467 235.671 34.4933C235.671 32.44 233.991 30.7867 231.938 30.7867H226.711V34.8933H221.911V25.9867H230.178C231.645 25.9867 232.818 24.7867 232.818 23.3467C232.818 21.88 231.645 20.7067 230.178 20.7067H221.698V15.9067H230.178C231.191 15.9067 232.151 16.0933 233.085 16.4933C233.965 16.8667 234.765 17.4 235.431 18.0933C236.125 18.76 236.658 19.56 237.031 20.44C237.431 21.3733 237.618 22.3333 237.618 23.3467C237.618 24.3333 237.431 25.32 237.031 26.2267C236.871 26.6 236.685 26.9467 236.498 27.2933C237.031 27.64 237.511 28.0133 237.965 28.4667Z" fill="#FFF6C7"/>
</svg>
