<svg width="250" height="70" viewBox="0 0 250 70" fill="none" xmlns="http://www.w3.org/2000/svg">
<path d="M58.39 59.67C58.14 59.51 58.11 59.13 58.35 58.95C58.8 58.62 59.07 58.09 59.13 57.21C59.19 56.43 59.01 56 58.14 55.57C57.89 55.45 57.81 55.13 57.88 54.86C57.96 54.55 58 54.22 58 53.88C57.98 51.86 56.36 50.28 54.39 50.35C54.27 50.35 54.15 50.37 54.03 50.38C53.66 50.43 53.34 50.13 53.34 49.77L53.22 38.26H44.86L44.97 48.08C44.97 48.54 44.51 48.82 44.08 48.64C43.72 48.49 43.31 48.41 42.89 48.42C41.28 48.48 39.98 49.86 40 51.51C40 52.12 40.19 52.68 40.5 53.14C40.72 53.46 40.59 53.9 40.22 54.03C38.73 54.56 37.66 56.13 37.68 57.95C37.68 58.72 39.23 59.85 38.26 60.85C37.14 62 37.08 63.51 38.29 63.96L43.36 65.51C44.33 65.79 46.02 66.5 48.13 66.91C48.78 67.04 49.45 67.02 50.09 66.85L51.03 66.6C51.77 66.42 53.55 66.09 54.11 65.91L58.59 64.32C59.05 64.09 59.94 63.73 59.98 63.3C60.26 60.63 59.36 60.31 58.38 59.68L58.39 59.67Z" fill="white" stroke="#040F14" stroke-width="1.5" stroke-miterlimit="10"/>
<path d="M46.96 62.05C47.46 62.25 47.62 61.89 47.25 61.45C45.9 59.85 38.36 57.99 29.05 56.47C13.75 53.98 15.27 53.09 14.42 54.29C13.57 55.49 13.11 55.73 14.19 56.03C15.27 56.33 18.05 56.39 27.91 57.8C31.72 58.34 40.05 59.24 46.95 62.04L46.96 62.05Z" fill="#040F14" stroke="#040F14" stroke-width="0.5" stroke-miterlimit="10"/>
<path d="M47.42 66.99C48.05 67.03 48.28 66.13 47.71 65.83C45.56 64.69 40.67 63.04 29.71 62.07C11.68 60.48 9.77001 59.15 8.88001 60.67C7.99001 62.19 6.27001 65.96 7.55001 66.21C8.83001 66.46 18.35 64.4 29.95 65.19C34.43 65.49 43.17 66.7 47.42 66.99Z" fill="#040F14" stroke="#040F14" stroke-width="0.5" stroke-miterlimit="10"/>
<path d="M50.44 62.05C49.94 62.25 49.78 61.89 50.15 61.45C51.5 59.85 59.04 57.99 68.35 56.47C83.65 53.98 82.13 53.09 82.98 54.29C83.83 55.49 84.29 55.73 83.21 56.03C82.13 56.33 79.35 56.39 69.49 57.8C65.68 58.34 57.35 59.24 50.45 62.04L50.44 62.05Z" fill="#040F14" stroke="#040F14" stroke-width="0.5" stroke-miterlimit="10"/>
<path d="M49.98 66.99C49.35 67.03 49.12 66.13 49.69 65.83C51.84 64.69 56.73 63.04 67.69 62.07C85.72 60.48 87.63 59.15 88.52 60.67C89.41 62.19 91.13 65.96 89.85 66.21C88.57 66.46 79.05 64.4 67.45 65.19C62.97 65.49 54.23 66.7 49.98 66.99Z" fill="#040F14" stroke="#040F14" stroke-width="0.5" stroke-miterlimit="10"/>
<path d="M49.03 31.54C49.03 31.54 43.8 32.46 49.03 45.79C54.26 32.45 49.03 31.54 49.03 31.54Z" fill="#040F14"/>
<path d="M39.82 30.11C38.42 31.45 39.45 36.08 37.81 40.05C36.16 44.01 37.57 44.76 37.57 44.76C37.57 44.76 39.52 45.96 39.58 44.56C39.63 43.3 40.48 38.68 41.85 35.06C41.29 33.1 40.89 31.22 40.64 29.42C40.32 29.67 40.04 29.9 39.82 30.1V30.11Z" fill="#040F14"/>
<path d="M60.26 40.05C58.61 36.09 59.65 31.45 58.25 30.11C58.04 29.91 57.76 29.67 57.43 29.43C57.18 31.22 56.78 33.1 56.22 35.07C57.59 38.69 58.43 43.31 58.49 44.57C58.55 45.97 60.5 44.77 60.5 44.77C60.5 44.77 61.9 44.02 60.26 40.06V40.05Z" fill="#040F14"/>
<path d="M55.4 38.21C63.36 15.21 49.03 3.01 49.03 3.01C49.03 3.01 34.7 15.21 42.66 38.21H55.4Z" fill="#578476" stroke="#040F14" stroke-width="1.5" stroke-miterlimit="10"/>
<path d="M72.6667 16.9067H88.2133V21.7067H72.6667V16.9067ZM72.6667 27.52H86.48V32.32H77.4667V44H72.6667V27.52ZM93.0104 16.9067H97.8104V44H93.0104V16.9067ZM115.515 16.32C117.399 16.32 119.177 16.6667 120.848 17.36C122.519 18.0356 124.031 19.0222 125.382 20.32L122.048 23.76C121.159 22.9067 120.155 22.2578 119.035 21.8133C117.915 21.3511 116.742 21.12 115.515 21.12C114.377 21.12 113.284 21.3156 112.235 21.7067C111.204 22.0978 110.279 22.64 109.462 23.3333C108.644 24.0267 107.959 24.8533 107.408 25.8133C106.857 26.7556 106.484 27.7867 106.288 28.9067L101.542 28.1333C101.844 26.4089 102.413 24.8267 103.248 23.3867C104.102 21.9467 105.142 20.7022 106.368 19.6533C107.613 18.6044 109.017 17.7867 110.582 17.2C112.146 16.6133 113.791 16.32 115.515 16.32ZM115.515 39.8133C116.742 39.8133 117.915 39.5911 119.035 39.1467C120.155 38.6844 121.159 38.0267 122.048 37.1733L125.382 40.6133C124.031 41.8933 122.519 42.88 120.848 43.5733C119.177 44.2667 117.399 44.6133 115.515 44.6133C113.791 44.6133 112.146 44.32 110.582 43.7333C109.017 43.1467 107.613 42.3289 106.368 41.28C105.124 40.2133 104.084 38.96 103.248 37.52C102.413 36.08 101.844 34.5067 101.542 32.8L106.288 32C106.484 33.1378 106.857 34.1867 107.408 35.1467C107.959 36.0889 108.644 36.9067 109.462 37.6C110.279 38.2933 111.204 38.8356 112.235 39.2267C113.284 39.6178 114.377 39.8133 115.515 39.8133ZM147.378 21.7067H140.391V44H135.591V16.9067H147.378V21.7067ZM128.604 16.9067H132.924V21.7067H128.604V16.9067ZM152.167 16.9067H156.967V44H152.167V16.9067ZM189.018 30.4533C189.018 32.4267 188.645 34.2756 187.898 36C187.151 37.7244 186.138 39.2267 184.858 40.5067C183.578 41.7867 182.076 42.7911 180.351 43.52C178.645 44.2489 176.813 44.6133 174.858 44.6133C172.885 44.6133 171.036 44.24 169.311 43.4933C167.587 42.7467 166.085 41.7333 164.805 40.4533C163.542 39.1733 162.538 37.6711 161.791 35.9467C161.062 34.2222 160.698 32.3911 160.698 30.4533C160.698 28.4978 161.071 26.6578 161.818 24.9333C162.565 23.2089 163.578 21.7067 164.858 20.4267C166.156 19.1467 167.658 18.1422 169.365 17.4133C171.089 16.6667 172.92 16.2933 174.858 16.2933C176.796 16.2933 178.618 16.6667 180.325 17.4133C182.049 18.1422 183.551 19.1467 184.831 20.4267C186.129 21.7067 187.151 23.2089 187.898 24.9333C188.645 26.64 189.018 28.48 189.018 30.4533ZM174.858 39.8133C176.156 39.8133 177.373 39.5733 178.511 39.0933C179.649 38.5956 180.636 37.9289 181.471 37.0933C182.325 36.24 182.991 35.2444 183.471 34.1067C183.969 32.9689 184.218 31.7511 184.218 30.4533C184.218 29.1733 183.969 27.9644 183.471 26.8267C182.991 25.6889 182.325 24.6933 181.471 23.84C180.636 22.9867 179.649 22.32 178.511 21.84C177.373 21.3422 176.156 21.0933 174.858 21.0933C173.578 21.0933 172.369 21.3422 171.231 21.84C170.093 22.32 169.098 22.9867 168.245 23.84C167.391 24.6933 166.716 25.6889 166.218 26.8267C165.738 27.9644 165.498 29.1733 165.498 30.4533C165.498 31.7511 165.738 32.9689 166.218 34.1067C166.716 35.2444 167.391 36.24 168.245 37.0933C169.098 37.9289 170.093 38.5956 171.231 39.0933C172.369 39.5733 173.578 39.8133 174.858 39.8133ZM174.858 27.0667C175.338 27.0667 175.782 27.1556 176.191 27.3333C176.6 27.5111 176.956 27.7511 177.258 28.0533C177.578 28.3556 177.827 28.72 178.005 29.1467C178.182 29.5556 178.271 29.9911 178.271 30.4533C178.271 30.9333 178.182 31.3778 178.005 31.7867C177.827 32.1956 177.578 32.56 177.258 32.88C176.956 33.1822 176.6 33.4222 176.191 33.6C175.782 33.7778 175.338 33.8667 174.858 33.8667C174.396 33.8667 173.96 33.7778 173.551 33.6C173.142 33.4222 172.778 33.1822 172.458 32.88C172.156 32.56 171.916 32.1956 171.738 31.7867C171.56 31.3778 171.471 30.9333 171.471 30.4533C171.471 29.9911 171.56 29.5556 171.738 29.1467C171.916 28.72 172.156 28.3556 172.458 28.0533C172.778 27.7511 173.142 27.5111 173.551 27.3333C173.96 27.1556 174.396 27.0667 174.858 27.0667ZM197.56 39.2H206.76V44H192.76V16.9067H197.56V39.2ZM211.573 16.9067H216.373V44H211.573V16.9067ZM240.471 35.4933C240.471 36.6667 240.24 37.7778 239.778 38.8267C239.333 39.8578 238.72 40.7556 237.938 41.52C237.173 42.2844 236.276 42.8889 235.245 43.3333C234.213 43.7778 233.111 44 231.938 44H221.911V39.2H231.938C232.453 39.2 232.933 39.1022 233.378 38.9067C233.84 38.7111 234.24 38.4533 234.578 38.1333C234.916 37.7956 235.182 37.4044 235.378 36.96C235.573 36.4978 235.671 36.0089 235.671 35.4933C235.671 34.9778 235.573 34.4978 235.378 34.0533C235.182 33.5911 234.916 33.2 234.578 32.88C234.24 32.5422 233.84 32.2756 233.378 32.08C232.933 31.8844 232.453 31.7867 231.938 31.7867H226.711V35.8933H221.911V26.9867H230.178C230.551 26.9867 230.898 26.9156 231.218 26.7733C231.538 26.6311 231.813 26.4444 232.045 26.2133C232.293 25.9644 232.48 25.68 232.605 25.36C232.747 25.04 232.818 24.7022 232.818 24.3467C232.818 23.6 232.56 22.9778 232.045 22.48C231.547 21.9644 230.925 21.7067 230.178 21.7067H221.698V16.9067H230.178C231.209 16.9067 232.178 17.1022 233.085 17.4933C233.991 17.8844 234.773 18.4178 235.431 19.0933C236.107 19.7689 236.64 20.56 237.031 21.4667C237.422 22.3733 237.618 23.3333 237.618 24.3467C237.618 25.1289 237.52 25.8222 237.325 26.4267C237.129 27.0133 236.853 27.6356 236.498 28.2933C237.102 28.6844 237.645 29.1467 238.125 29.68C238.622 30.1956 239.04 30.7644 239.378 31.3867C239.733 32.0089 240 32.6667 240.178 33.36C240.373 34.0533 240.471 34.7644 240.471 35.4933Z" fill="#040F14"/>
<path d="M49.03 22.15C51.3496 22.15 53.23 20.2696 53.23 17.95C53.23 15.6304 51.3496 13.75 49.03 13.75C46.7104 13.75 44.83 15.6304 44.83 17.95C44.83 20.2696 46.7104 22.15 49.03 22.15Z" fill="#E9511D" stroke="#040F14" stroke-width="1.5" stroke-miterlimit="10"/>
<path d="M49.03 31.54C49.03 31.54 43.8 32.46 49.03 45.79C54.26 32.45 49.03 31.54 49.03 31.54Z" fill="#040F14"/>
</svg>
