<svg width="278" height="266" viewBox="0 0 278 266" fill="none" xmlns="http://www.w3.org/2000/svg">
<path d="M168.074 167.048C167.309 166.58 167.243 165.484 167.963 164.963C169.304 164.016 170.113 162.494 170.312 159.94C170.489 157.685 169.958 156.451 167.332 155.216C166.578 154.865 166.334 153.94 166.545 153.173C166.789 152.269 166.922 151.322 166.91 150.354C166.844 144.534 161.991 139.99 156.074 140.182C155.709 140.193 155.354 140.225 155 140.278C153.903 140.427 152.939 139.554 152.928 138.512L152.562 105.336H127.466L127.787 133.649C127.798 134.979 126.391 135.788 125.117 135.266C124.02 134.83 122.812 134.596 121.549 134.639C116.707 134.798 112.829 138.788 112.873 143.544C112.895 145.3 113.45 146.906 114.38 148.226C115.034 149.162 114.646 150.418 113.549 150.801C109.084 152.333 105.86 156.855 105.926 162.1C105.948 164.314 110.591 167.569 107.666 170.453C104.32 173.762 104.131 178.114 107.754 179.422L122.978 183.88C125.892 184.678 130.956 186.743 137.294 187.924C139.244 188.285 141.26 188.232 143.188 187.743L146.014 187.03C148.23 186.498 153.57 185.562 155.265 185.03L168.694 180.454C170.068 179.805 172.739 178.763 172.883 177.507C173.725 169.814 171.021 168.889 168.096 167.08L168.074 167.048Z" fill="white" stroke="#040F14" stroke-width="2.5" stroke-miterlimit="10"/>
<path d="M133.781 173.9C135.288 174.485 135.754 173.432 134.657 172.187C130.601 167.591 107.965 162.207 80.0323 157.834C34.1057 150.652 38.6928 148.098 36.1333 151.567C33.5738 155.035 32.1999 155.727 35.4574 156.578C38.7149 157.429 47.0582 157.632 76.6418 161.685C88.0763 163.25 113.062 165.846 133.792 173.9H133.781Z" fill="#040F14" stroke="#040F14" stroke-width="0.5" stroke-miterlimit="10"/>
<path d="M135.155 188.136C137.039 188.264 137.726 185.657 136.031 184.795C129.582 181.497 114.912 176.741 82.0045 173.953C27.9009 169.357 22.1504 165.526 19.4801 169.91C16.8098 174.294 11.6354 185.157 15.5024 185.891C19.3693 186.626 47.9224 180.678 82.7247 182.955C96.1648 183.827 122.391 187.307 135.155 188.147V188.136Z" fill="#040F14" stroke="#040F14" stroke-width="0.5" stroke-miterlimit="10"/>
<path d="M144.219 173.9C142.712 174.485 142.246 173.432 143.343 172.187C147.399 167.591 170.035 162.207 197.968 157.834C243.894 150.652 239.307 148.098 241.867 151.567C244.426 155.035 245.8 155.727 242.543 156.578C239.285 157.429 230.942 157.632 201.358 161.685C189.924 163.25 164.938 165.846 144.208 173.9H144.219Z" fill="#040F14" stroke="#040F14" stroke-width="0.5" stroke-miterlimit="10"/>
<path d="M142.845 188.136C140.961 188.264 140.274 185.657 141.969 184.795C148.418 181.497 163.088 176.741 195.996 173.953C250.099 169.357 255.85 165.526 258.52 169.91C261.19 174.294 266.365 185.157 262.498 185.891C258.631 186.626 230.078 180.678 195.275 182.955C181.835 183.827 155.609 187.307 142.845 188.147V188.136Z" fill="#040F14" stroke="#040F14" stroke-width="0.5" stroke-miterlimit="10"/>
<path d="M139.997 85.9818C139.997 85.9818 124.308 88.6205 139.997 127.063C155.687 88.6312 139.997 85.9818 139.997 85.9818Z" fill="#040F14"/>
<path d="M112.342 81.8535C108.131 85.7158 111.245 99.069 106.303 110.496C101.361 121.913 105.572 124.073 105.572 124.073C105.572 124.073 111.422 127.542 111.61 123.498C111.777 119.87 114.314 106.56 118.425 96.1218C116.751 90.4613 115.555 85.0455 114.79 79.8851C113.826 80.598 112.973 81.279 112.342 81.8535Z" fill="#040F14"/>
<path d="M173.68 110.496C168.739 99.0797 171.852 85.7265 167.642 81.8535C167.01 81.2683 166.157 80.598 165.193 79.8851C164.429 85.0455 163.232 90.4719 161.559 96.1218C165.659 106.56 168.207 119.87 168.373 123.498C168.55 127.531 174.412 124.073 174.412 124.073C174.412 124.073 178.622 121.913 173.68 110.496Z" fill="#040F14"/>
<path d="M159.11 105.198C182.999 38.9211 139.997 3.74527 139.997 3.74527C139.997 3.74527 96.9958 38.9105 120.884 105.187H159.11V105.198Z" fill="#578476" stroke="#040F14" stroke-width="2.5" stroke-miterlimit="10"/>
<path d="M139.997 58.8924C146.955 58.8924 152.595 53.4761 152.595 46.7947C152.595 40.1133 146.955 34.697 139.997 34.697C133.04 34.697 127.399 40.1133 127.399 46.7947C127.399 53.4761 133.04 58.8924 139.997 58.8924Z" fill="#E9511D" stroke="#040F14" stroke-width="2.5" stroke-miterlimit="10"/>
<path d="M139.997 85.9818C139.997 85.9818 124.308 88.6205 139.997 127.063C155.687 88.6312 139.997 85.9818 139.997 85.9818Z" fill="#040F14"/>
<path d="M34.3333 238V217.4H51.6V223.4H40.3333V238H34.3333ZM34.3333 210.133V204.133H53.7667V210.133H34.3333ZM59.763 238V204.133H65.763V238H59.763ZM87.8938 203.4C90.2271 203.4 92.5271 203.833 94.6604 204.733C96.7271 205.6 98.5938 206.833 100.227 208.4L96.0604 212.7C93.8604 210.567 90.9604 209.4 87.8938 209.4C82.1604 209.4 77.2937 213.5 76.3604 219.133L70.4271 218.167C71.1271 214.067 73.2271 210.333 76.3938 207.633C77.9604 206.3 79.7271 205.233 81.6604 204.533C83.6604 203.767 85.7604 203.4 87.8938 203.4ZM87.8938 232.767C90.9604 232.767 93.8604 231.6 96.0604 229.467L100.227 233.767C98.5938 235.333 96.7271 236.567 94.6604 237.433C92.5271 238.3 90.2271 238.767 87.8938 238.767C85.7604 238.767 83.6604 238.4 81.6604 237.633C79.7271 236.9 77.9604 235.867 76.3938 234.533C73.2271 231.833 71.1271 228.1 70.4271 224L76.3604 223C77.2937 228.667 82.1604 232.767 87.8938 232.767ZM127.722 204.133V210.133H118.989V238H112.989V204.133H127.722ZM104.255 210.133V204.133H109.655V210.133H104.255ZM133.708 238V204.133H139.708V238H133.708ZM174.606 208.567C176.206 210.2 177.506 212.067 178.372 214.2C179.306 216.367 179.772 218.7 179.772 221.067C179.772 223.467 179.306 225.8 178.372 227.967C177.506 230.067 176.206 231.967 174.606 233.6C172.972 235.233 171.072 236.5 168.972 237.4C166.772 238.3 164.472 238.767 162.072 238.767C159.672 238.767 157.372 238.3 155.172 237.4C153.072 236.5 151.172 235.233 149.572 233.6C147.939 231.967 146.672 230.067 145.772 227.967C144.839 225.8 144.372 223.467 144.372 221.067C144.372 218.7 144.839 216.367 145.772 214.2C146.672 212.067 147.939 210.2 149.572 208.567C151.172 206.933 153.072 205.667 155.172 204.767C157.372 203.833 159.672 203.367 162.072 203.367C164.472 203.367 166.772 203.833 168.972 204.767C171.072 205.667 172.972 206.933 174.606 208.567ZM162.072 232.767C168.539 232.767 173.772 227.533 173.772 221.067C173.772 214.633 168.539 209.367 162.072 209.367C155.639 209.367 150.372 214.633 150.372 221.067C150.372 227.533 155.639 232.767 162.072 232.767ZM162.072 216.833C164.439 216.833 166.339 218.733 166.339 221.067C166.339 223.433 164.439 225.333 162.072 225.333C159.739 225.333 157.839 223.433 157.839 221.067C157.839 218.733 159.739 216.833 162.072 216.833ZM190.451 204.133V232H201.951V238H184.451V204.133H190.451ZM207.966 238V204.133H213.966V238H207.966ZM240.956 219.833C241.922 220.833 242.689 221.967 243.222 223.233C243.789 224.533 244.089 225.933 244.089 227.367C244.089 228.8 243.789 230.2 243.222 231.5C242.689 232.767 241.922 233.9 240.956 234.9C239.989 235.867 238.856 236.633 237.589 237.167C236.256 237.733 234.856 238 233.422 238H220.889V232H233.422C235.989 232 238.089 229.933 238.089 227.367C238.089 224.8 235.989 222.733 233.422 222.733H226.889V227.867H220.889V216.733H231.222C233.056 216.733 234.522 215.233 234.522 213.433C234.522 211.6 233.056 210.133 231.222 210.133H220.622V204.133H231.222C232.489 204.133 233.689 204.367 234.856 204.867C235.956 205.333 236.956 206 237.789 206.867C238.656 207.7 239.322 208.7 239.789 209.8C240.289 210.967 240.522 212.167 240.522 213.433C240.522 214.667 240.289 215.9 239.789 217.033C239.589 217.5 239.356 217.933 239.122 218.367C239.789 218.8 240.389 219.267 240.956 219.833Z" fill="#040F14"/>
</svg>
