<svg width="81" height="80" viewBox="0 0 81 80" fill="none" xmlns="http://www.w3.org/2000/svg">
<g clip-path="url(#clip0_147_4072)">
<path d="M55.8215 40.828C55.3377 39.9213 55.3122 39.1342 55.726 38.2652C55.7642 38.1834 55.7833 38.0952 55.8215 38.0133C56.3498 36.8422 56.3498 35.6017 56.3307 34.3486C56.3052 32.8185 55.7005 31.4647 55.0194 30.1487C54.7012 29.5254 54.6948 29.0342 54.9876 28.4045C55.5096 27.3089 55.7451 26.0684 55.4268 24.9287C54.9367 23.1405 53.7973 21.6796 52.2187 20.7099C51.0156 19.9732 49.6789 19.4506 48.2467 19.2365C47.5719 19.1357 46.9099 18.9657 46.0379 18.7831C46.7954 18.3361 47.3492 18.0023 47.9029 17.6686C48.7177 17.1838 49.5516 16.7241 50.3281 16.1889C50.8246 15.8488 51.2766 15.4081 51.0856 14.6147C50.1308 15.194 49.2333 15.7418 48.3422 16.2833C47.4446 16.8311 46.6171 17.5112 45.3568 17.826C45.5859 17.316 45.6751 16.8815 45.9297 16.6045C46.6362 15.8174 47.3619 15.024 48.1894 14.3691C48.7241 13.9409 49.4306 13.5442 50.0863 13.4939C51.4039 13.3931 52.7534 13.4624 53.9182 14.3061C54.994 15.0806 55.4014 16.0881 54.9176 17.3223C54.5038 18.3738 53.9691 19.3561 52.7597 19.715C52.7024 19.7339 52.677 19.8536 52.6388 19.9228C53.3135 20.5525 53.8291 20.6029 54.3765 19.9669C55.1849 19.0161 55.8597 18.0023 56.0061 16.68C56.1716 15.1688 55.6496 14.048 54.3893 13.2924C51.614 11.63 48.9341 12.1779 46.6808 14.2873C46.4071 14.5454 46.1588 14.8288 45.8087 15.194C45.6942 14.6651 45.6305 14.2621 45.5223 13.8717C45.2231 12.732 45.0894 11.4978 44.5548 10.4714C43.4981 8.45018 41.5185 7.39863 39.5834 6.37226C39.5325 6.34707 39.4688 6.32818 39.4115 6.32189C38.2148 6.24633 37.12 5.7174 35.8851 5.67962C35.0513 5.65443 34.542 5.89371 34.0646 6.43523C33.5809 6.98934 33.1289 7.57494 32.6897 8.16683C32.4733 8.46278 32.3205 8.8028 32.1359 9.11764L32.3014 9.24987C33.3835 8.28647 34.0965 6.93267 35.4204 6.07002C35.7451 6.74377 36.0506 7.36715 36.3498 7.98423C36.1716 8.10386 36.0634 8.17942 35.9233 8.28017C36.528 8.53834 36.528 8.53834 36.6681 9.14283C36.719 9.3758 36.7572 9.62767 36.8781 9.81658C36.9672 9.94881 37.19 10.0433 37.3555 10.0496C37.4255 10.0496 37.5974 9.7662 37.5719 9.65286C37.4064 8.93503 37.2091 8.2298 36.9863 7.52456C36.8845 7.20343 36.7126 6.90119 36.5726 6.59265C36.6171 6.54857 36.6617 6.50449 36.6999 6.46042C37.0245 6.64302 37.3555 6.80674 37.6674 7.00194C38.9341 7.80792 39.8062 8.93503 40.4236 10.2888C40.6973 10.8933 40.9965 11.5167 41.7094 11.8504C41.7413 11.6867 41.8113 11.5545 41.7731 11.4663C41.2066 10.1566 40.7674 8.77761 39.8953 7.59383C40.5637 7.98423 41.1366 8.46907 41.7667 8.87207C42.8425 9.55841 43.5236 10.5344 43.9373 11.7056C44.402 12.9964 44.5102 14.3565 44.5675 15.7166C44.612 16.7745 44.2429 17.7001 43.6891 18.5564C43.2053 19.3058 42.4606 19.7402 41.6776 20.118C41.493 20.2062 41.2448 20.1873 40.9074 20.2314C41.3721 19.0728 41.754 18.0212 41.7222 16.8752C41.684 15.7481 42.0213 14.5958 41.4612 13.4876C41.2766 13.9346 41.1684 14.3817 41.1111 14.8351C40.9838 15.8363 40.9392 16.85 40.761 17.8386C40.5255 19.1609 39.9908 20.2943 38.6859 20.9618C38.0048 21.3144 37.4319 21.3711 36.8017 20.9744C37.26 19.4632 37.7438 18.0023 38.1448 16.5226C38.5649 14.9925 38.4504 13.4624 37.9984 11.9386C37.8329 12.3227 37.6929 12.7257 37.7438 13.1035C38.0239 15.2884 37.3364 17.2782 36.5026 19.2176C36.1716 19.9858 35.605 20.6721 35.0704 21.327C34.5802 21.9252 33.6127 22.0133 32.9698 21.6041C31.5949 20.7288 30.5064 19.6206 30.3345 17.9079C30.239 16.9697 30.0863 15.9937 30.2518 15.0869C30.5 13.7268 31.0092 12.4108 31.4039 11.0759C31.4294 10.9878 31.3848 10.8744 31.3721 10.7737C31.0283 11.0759 30.8119 11.4159 30.6719 11.7812C30.43 12.4486 30.2645 13.1413 30.0162 13.8024C29.4115 15.4207 29.1251 17.0452 29.6852 18.7453C29.838 19.1987 29.8953 19.6899 30.0226 20.288C29.4306 20.1369 28.9023 20.1054 28.4758 19.8788C27.3746 19.2869 26.5471 18.4116 26.1334 17.2026C25.9551 16.6737 25.7896 16.1448 25.6496 15.6033C25.0322 13.2546 25.726 11.2396 27.2919 9.48285C27.7629 8.95392 28.304 8.49426 28.8387 8.02201C29.2333 7.66939 29.6343 7.31048 30.0799 7.03972C31.3848 6.24633 32.8361 5.83074 34.3256 5.57258C34.6248 5.5222 34.8985 5.49072 34.9685 5.04365C33.8482 4.98698 32.7534 4.69733 31.7031 5.21996C31.0729 5.5285 30.4809 5.92519 29.8317 6.20225C28.5649 6.74377 27.6611 7.75754 26.7253 8.67057C25.6623 9.70953 25.0576 11.1263 24.6884 12.5557C24.2683 14.1802 24.6566 15.8174 25.064 17.4104C25.1085 17.593 25.3122 17.7316 25.4141 17.9079C25.8342 18.5942 26.2543 19.2869 26.6617 19.9606C26.2225 20.1306 25.866 20.2755 25.5032 20.4014C24.1028 20.8988 23.008 21.8559 21.894 22.7878C21.5121 23.109 21.0283 23.3483 20.7292 23.7324C19.9908 24.6832 19.3161 25.6906 18.6413 26.6855C17.9157 27.7623 17.4828 28.9838 17.0182 30.1802C16.4707 31.5844 15.987 33.0263 15.8915 34.5438C15.8151 35.841 15.8406 37.1507 15.7642 38.4478C15.6878 39.7575 15.987 40.9728 16.528 42.1377C16.7826 42.6855 17.1264 43.1452 17.7565 43.183C18.0112 42.9248 18.2276 42.7107 18.4376 42.4966C18.5586 42.7548 18.5586 42.9248 18.5204 43.0948C18.2212 44.4864 17.922 45.878 17.6165 47.2632C17.3428 48.4785 16.9672 49.6749 16.789 50.9028C16.5217 52.7855 16.3753 54.6808 16.2034 56.5761C16.1525 57.1302 16.1015 57.7032 16.1716 58.2573C16.4071 60.0456 16.7253 61.8213 16.9545 63.6159C17.0563 64.4281 17.4701 65.0578 17.9475 65.6686C18.1957 65.9834 18.7814 66.059 19.0869 65.8701C19.698 65.4923 19.8126 64.3904 19.246 63.6977C19.0933 64.1637 18.9532 64.5793 18.7877 65.0956C18.1194 64.6485 17.8966 64.0755 17.7247 63.4836C17.0627 61.242 17.0118 58.9374 17.0818 56.6265C17.12 55.4112 17.1773 54.196 17.3237 52.987C17.4446 51.9606 17.6738 50.9405 17.9029 49.9268C18.2721 48.2581 18.6859 46.6021 19.1124 44.7949C19.4497 45.3931 19.3224 45.8654 19.2842 46.3187C19.0614 48.8311 18.775 51.3309 18.6159 53.8496C18.4822 55.9213 18.4695 57.9992 18.444 60.0771C18.4313 60.8768 18.5077 61.6765 18.5713 62.4762C18.6222 63.0932 18.7941 63.2758 19.4115 63.2507C19.7107 63.2381 20.0481 63.1121 20.2836 62.9295C20.7355 62.5769 20.9965 62.0795 21.1047 61.5002C21.4421 59.7182 21.7349 57.9362 21.614 56.1102C21.6012 55.9527 21.6585 55.7953 21.7094 55.4553C21.8367 55.7198 21.9004 55.8142 21.9259 55.9213C22.1359 56.7776 22.276 57.6655 22.5624 58.4966C22.9761 59.6993 23.4154 60.902 23.9946 62.0291C24.5229 63.0429 25.1658 64 26.1143 64.7367C27.7565 66.0086 29.6598 66.4746 31.6458 66.7516C32.3523 66.8524 33.0653 66.9154 33.7654 67.035C34.8221 67.2113 35.7196 67.6647 36.3943 68.6658C35.5287 69.1255 35.204 69.8937 35.2168 70.7627C35.0513 70.8319 34.9685 70.8823 34.8858 70.8949C33.409 71.1656 32.4287 71.9842 31.9895 73.4388C31.8877 73.7725 31.6394 74.0684 31.5503 74.4085C31.3084 75.29 31.092 76.1842 30.9074 77.0783C30.8246 77.4813 30.9265 77.8465 31.4739 77.8969C31.614 77.3616 31.7413 76.8453 31.8877 76.3353C32.0213 75.8567 32.1741 75.3782 32.3205 74.9059L32.5115 74.9626C32.3778 75.5608 32.2441 76.1653 32.1105 76.7635C31.9152 77.6072 31.9641 78.2117 32.2569 78.5769C32.5751 77.4687 32.8552 76.3856 33.1989 75.3278C33.6318 73.9866 34.4338 72.9728 35.2549 72.6895C35.0513 73.0987 34.8539 73.4514 34.7012 73.8166C34.0964 75.2774 33.7909 76.8201 33.549 78.3754C33.5045 78.6777 33.549 78.9043 33.9882 78.9988C34.0646 78.7595 34.1792 78.5265 34.211 78.281C34.4211 76.8327 34.8221 75.4474 35.4204 74.1062C35.6687 73.5521 35.9806 73.0925 36.4071 72.6769C36.7444 72.7713 37.05 72.8532 37.4001 72.9476C37.3364 73.3317 37.2982 73.6529 37.2282 73.9677C37.12 74.4588 36.9609 74.9374 36.8718 75.4285C36.6872 76.4486 36.5408 77.4813 36.3753 78.5013C36.3243 78.8225 36.3498 79.0806 36.7508 79.2129C37.1582 78.5832 37.2791 77.8843 37.3428 77.179C37.4701 75.8126 37.712 74.4777 38.2403 73.1365C38.635 73.1491 39.036 73.1617 39.3988 73.1743C39.4561 73.3128 39.4943 73.3632 39.4943 73.4136C39.4115 74.9815 39.3351 76.5494 39.2333 78.1172C39.2078 78.495 39.2142 78.8036 39.6152 79.0114C39.959 78.7469 40.0099 78.4069 40.0226 78.0417C40.0544 76.9712 40.0799 75.9008 40.1499 74.8366C40.1881 74.2259 40.3154 73.6214 40.4045 73.0169C40.8883 72.935 41.2575 72.8721 41.7158 72.7965C41.8049 73.8732 41.8304 74.8807 41.9959 75.8567C42.155 76.8201 41.9513 77.8276 42.2632 78.8414C42.7152 78.6273 42.8616 78.3754 42.8425 78.0102C42.817 77.5065 42.8234 77.0027 42.7852 76.499C42.7024 75.4663 42.5688 74.4399 42.5242 73.4073C42.4733 72.3872 42.5115 72.3872 43.5745 71.9527C43.6318 72.0409 43.74 72.1227 43.7591 72.2298C44.141 74.0433 45.1149 75.7308 44.8667 77.6765C44.8221 78.0102 44.9558 78.2558 45.4077 78.2495C45.4968 78.048 45.6814 77.8276 45.6623 77.6198C45.5796 76.6816 45.7069 75.7371 45.3823 74.8052C44.9876 73.6843 44.7139 72.5194 44.3383 71.2034C45.5159 71.8205 46.3307 72.5698 46.859 73.5836C47.6865 75.1893 48.3994 76.839 48.5904 78.6651C48.845 78.6273 49.106 78.6021 49.3606 78.5769C49.4052 77.4057 49.0105 76.3101 48.6541 75.2333C48.1894 73.8166 47.3555 72.5761 46.3434 71.3168C47.6547 71.3923 48.3867 72.1227 48.9278 73.0169C49.8126 74.4777 50.3409 76.0708 50.4236 77.7961C50.43 77.9283 50.4236 78.0858 50.4364 78.2306C50.6973 78.1172 50.9583 78.0102 51.2193 77.9095C51.2193 77.8906 51.2193 77.8717 51.2193 77.8528C51.4166 76.3479 50.8056 74.9941 50.3536 73.6214C50.2199 73.2058 49.9526 72.828 49.698 72.4691C49.3224 71.9401 48.9023 71.4427 48.4249 70.8445C49.1378 70.9642 49.6534 71.216 50.1054 71.619C51.2129 72.6076 51.7158 73.867 51.7667 75.3215C51.7922 76.1023 51.7986 76.8894 51.8176 77.6702C52.1359 77.5505 52.4542 77.4372 52.7725 77.3239C52.7215 76.4423 52.6388 75.5671 52.6388 74.6855C52.6388 73.3254 52.0977 72.2046 51.2639 71.2097C50.5637 70.3786 49.6852 69.73 48.5395 69.7237C47.5338 69.7237 46.528 69.8181 45.5223 69.9126C45.1913 69.9441 44.873 70.0826 44.5548 70.1708C44.5038 70.0385 44.4656 69.9819 44.4656 69.9315C44.5357 69.0436 44.2683 68.3573 43.3581 68.0299C43.0143 67.9039 42.8743 67.6332 42.9252 67.2491C42.9698 66.928 42.9443 66.5942 42.9825 66.2731C43.078 65.4797 43.3644 64.7367 43.9946 64.2581C45.2359 63.3199 46.2734 62.1928 47.2473 61.009C48.3358 59.6741 49.2524 58.2322 49.7234 56.5446C50.1245 55.1027 50.239 53.6292 50.2263 52.1369C50.2263 51.8158 50.239 51.4884 50.2836 51.1672C50.3409 50.7453 50.5382 50.4872 51.0347 50.4557C51.4676 50.4305 51.9195 50.3172 52.3269 50.1535C54.8412 49.146 55.9233 47.024 56.528 44.5871C56.859 43.2522 56.458 41.9551 55.8469 40.8091L55.8215 40.828ZM32.9061 74.2007C32.8807 74.2762 32.8297 74.3455 32.7915 74.4148C32.747 74.377 32.7024 74.3392 32.6579 74.3014L32.8488 73.8732C32.887 73.8858 32.9252 73.8984 32.957 73.9047C32.9443 74.0055 32.938 74.1062 32.9061 74.2007ZM44.0392 19.9606C44.7648 20.8296 45.325 21.5852 45.9679 22.2589C46.6108 22.9264 47.1773 23.6946 47.973 24.2046C48.5777 23.5749 48.584 23.512 48.1194 23.0145C47.4192 22.2652 46.7063 21.5285 46.0061 20.7792C45.7642 20.521 45.5159 20.244 45.6814 19.8095C47.8011 19.9165 49.8698 20.3384 51.6585 21.5159C52.8998 22.3282 53.81 23.5372 54.4084 24.9161C54.9112 26.0747 54.5866 27.2082 54.0455 28.2471C53.8737 28.5808 53.3644 28.7949 52.9698 28.9523C52.0086 29.3364 50.9901 29.2735 49.9908 29.1287C47.1391 28.7005 45.4141 26.9374 44.5929 24.2802C44.2301 23.109 44.1346 21.8559 43.9373 20.6344C43.9119 20.4769 43.9819 20.3006 44.0328 19.9606H44.0392ZM19.6407 62.0543C19.6534 62.325 19.6216 62.5076 19.2142 62.6273C18.9787 57.8732 19.2906 53.2074 19.7616 48.5415C19.838 48.5415 19.9208 48.5289 19.9971 48.5226C20.029 48.9193 20.099 49.316 20.0799 49.7064C19.9208 52.8736 19.7298 56.0409 19.5834 59.2145C19.5388 60.159 19.6025 61.1098 19.6407 62.0543ZM21.4612 54.8886C20.8565 55.2664 21.1238 55.8331 21.0665 56.3368C20.9456 57.4262 20.8056 58.5092 20.6655 59.5986C20.6528 59.6993 20.5891 59.7937 20.4618 59.8819C20.3154 57.2121 20.5 54.5612 20.6528 51.9102C20.7292 51.9102 20.8056 51.9039 20.8819 51.8976C21.0729 52.7036 21.2702 53.5033 21.4485 54.3093C21.493 54.5045 21.5439 54.8382 21.4612 54.8886ZM43.1926 68.9429C43.2944 69.1444 43.5108 69.3711 43.4854 69.5789C43.4345 70.007 43.3135 70.4415 43.1098 70.8193C42.9825 71.0586 42.6833 71.2412 42.4224 71.3546C40.6846 72.1102 38.8832 72.2739 37.05 71.789C36.2479 71.5749 36.0506 70.9138 36.5089 69.8433C36.8399 70.5171 37.3619 70.6115 37.9157 70.5423C39.3988 70.3471 40.9392 70.3723 42.2951 69.5852C42.5815 69.4152 42.8361 69.2011 43.1926 68.9429ZM45.8469 61.1916C45.1531 61.9157 44.4084 62.5958 43.6381 63.2444C42.4669 64.2267 41.9322 65.4356 41.9831 66.9783C42.0468 68.8044 42.0977 68.6847 40.29 69.1381C39.7744 69.2703 39.246 69.3459 38.7241 69.4655C38.3549 69.5474 38.1066 69.4341 37.9093 69.1066C37.2664 68.0299 36.4453 67.0665 35.3441 66.4872C34.6057 66.1031 33.7082 66.0086 32.8679 65.8323C31.7094 65.5867 30.5318 65.423 29.3797 65.1712C26.8336 64.6107 25.325 62.854 24.2683 60.6186C23.479 58.95 23.0907 57.1491 22.6515 55.3671C22.3014 53.9315 21.9004 52.5084 21.5376 51.0728C21.0793 49.2404 20.6337 47.4081 20.2008 45.5631C20.1436 45.3113 20.2008 45.0342 20.2072 44.7697L20.2327 44.8012C19.8317 44.0708 19.9144 43.2711 19.8062 42.4777C20.7164 42.4022 21.0411 41.7788 21.2129 41.1302C21.3912 40.4376 21.8431 40.1983 22.4478 40.0661C22.677 40.0157 22.8998 39.9339 23.1289 39.8772C23.8737 39.6883 24.1474 39.8268 24.5357 40.5383C24.6502 40.7461 24.7775 40.9476 24.9049 41.1491C25.1849 41.5962 25.5923 41.8355 26.1079 41.6906C26.4325 41.6025 26.6553 41.6717 26.929 41.8292C27.8838 42.3707 28.3103 42.2573 28.9023 41.3443C28.9532 41.3254 29.0105 41.2877 29.0678 41.2939C30.2581 41.3884 30.8437 41.0232 31.3148 39.9087C31.8877 38.5675 32.3205 37.1759 32.5433 35.7339C32.7597 34.2983 32.9443 32.8626 33.1098 31.4207C33.1671 30.9295 33.0971 30.4195 33.2053 29.8591C34.2301 31.8488 35.2613 33.8386 36.318 35.8788C36.1588 35.9228 35.9806 35.9858 35.796 36.0362C33.7718 36.5273 32.5051 37.8244 31.8495 39.7575C31.8049 39.8961 31.7476 40.0724 31.8049 40.1857C31.8877 40.362 32.0341 40.5446 32.2059 40.6202C32.3141 40.6643 32.556 40.5509 32.6451 40.4376C32.7979 40.2361 32.9061 39.9905 32.9889 39.7449C33.479 38.2841 34.5357 37.4844 35.9933 37.1507C36.5408 37.0248 36.9927 37.1318 37.381 37.6607C37.7947 38.2211 38.374 38.6682 38.9341 39.216C38.8577 39.5686 38.7623 39.9905 38.6604 40.4817C38.3612 40.5635 38.0302 40.6517 37.5974 40.7713C37.4765 40.3746 37.3746 40.0157 37.2664 39.6568C36.6553 39.5309 36.5408 39.5875 36.5726 40.1102C36.598 40.488 36.719 40.8595 36.8017 41.2688C36.5217 41.5521 36.2352 41.8418 35.9169 42.1629C35.7323 42.0118 35.535 41.9173 35.4332 41.7536C35.2231 41.4262 34.943 41.4828 34.7712 41.678C34.663 41.7977 34.7203 42.1062 34.7712 42.314C34.803 42.4399 35.0067 42.5092 35.0576 42.6414C35.1531 42.8681 35.2804 43.1326 35.2486 43.3593C35.1022 44.4738 34.9812 44.5431 33.8864 44.4045C33.74 44.3856 33.5936 44.3919 33.4154 44.3793C33.2499 44.7131 33.1798 45.009 33.6063 45.1664C33.9055 45.2798 34.2301 45.3364 34.6248 45.4309C34.6057 45.7898 34.5548 46.1676 34.5866 46.5391C34.5993 46.7028 34.7839 46.854 34.8858 47.0051C35.0131 46.8729 35.2168 46.7658 35.2613 46.6147C35.465 45.9032 35.6114 45.1727 35.8151 44.4612C35.9233 44.0771 36.1015 43.7056 36.2479 43.3278C36.3116 43.3341 36.3816 43.3467 36.4453 43.353C36.4644 43.5608 36.4962 43.7686 36.5026 43.9764C36.5662 45.2735 37.8138 46.5769 39.106 46.7091C40.0099 46.7973 41.0729 45.9346 41.3211 44.8768C41.4866 44.1653 41.4166 43.46 41.1811 42.7737C41.1111 42.5785 41.0347 42.3896 40.9329 42.1125C41.8113 42.207 42.0723 43.0507 42.677 43.3908C43.5108 42.9815 43.5236 42.8681 42.7534 41.9803C42.9189 41.5773 43.1035 41.1365 43.3071 40.6391C42.8807 40.6013 42.5306 40.6958 42.2823 41.0232C42.0468 41.338 41.8176 41.338 41.4803 41.0484C41.5185 40.6391 41.563 40.1794 41.6076 39.7324C40.7737 39.4679 40.901 40.3557 40.3027 40.6013C40.1626 40.5257 39.7807 40.4502 39.6661 40.2361C39.4816 39.8898 39.5579 39.4994 39.9908 39.2601C40.1627 39.1656 40.2709 38.9705 40.4427 38.7941C40.8947 39.0586 41.3593 39.1405 41.8367 38.8067C41.945 38.7312 42.1296 38.6934 42.2632 38.7186C43.0334 38.876 43.4408 38.5171 43.6572 37.8244C43.67 37.7867 43.7464 37.7678 43.8673 37.6922C43.9437 38.4667 44.0583 39.2097 44.0901 39.9527C44.1728 41.9992 44.262 44.0393 44.2683 46.0858C44.2747 48.6045 44.1155 51.1106 43.6827 53.6104C43.3262 55.6757 43.269 57.7977 43.0907 59.8945C43.0653 60.1841 43.1162 60.4864 43.1671 60.776C43.2244 61.1035 43.4345 61.2987 43.7782 61.3239C44.071 61.3427 44.1728 61.1664 44.281 60.9209C44.4593 60.5179 44.6566 60.1401 45.2168 60.1023C45.4204 60.0897 45.6432 59.8 45.7896 59.586C46.4007 58.7044 46.8654 57.7473 47.1709 56.7146C47.2664 56.3809 47.3555 56.0787 47.7629 55.8961C48.0366 55.7701 48.2467 55.4049 48.3931 55.0964C48.6413 54.5801 48.8132 54.0196 49.1569 53.497C49.1697 53.6481 49.1951 53.7993 49.1887 53.9504C49.1251 56.8406 47.8075 59.1641 45.8597 61.1853L45.8469 61.1916ZM21.9959 39.2538C22.155 38.303 22.3396 37.3396 22.4669 36.3636C22.5942 35.3687 22.6642 34.3675 22.817 33.3538C23.2244 35.1231 23.4726 36.9303 23.8291 38.6808C23.218 38.8697 22.6388 39.0523 21.9959 39.2475V39.2538ZM49.4115 39.0775C48.7177 37.8874 48.705 36.5399 48.2212 35.2554C48.183 35.4506 48.1066 35.6521 48.113 35.8473C48.1385 37.5096 48.4758 39.1342 48.7495 40.765C49.0614 42.6163 49.2779 44.4675 49.0487 46.3502C48.8705 47.8237 48.7623 49.3034 48.6159 50.7768C48.5968 50.9909 48.5331 51.1987 48.4949 51.4128C48.4249 51.4065 48.3549 51.4002 48.2849 51.3939C48.2594 50.0338 48.2339 48.6737 48.2085 47.2192C47.7502 47.4836 47.8138 47.8677 47.7629 48.1763C47.6229 49.0578 47.5274 49.9394 47.4001 50.8209C47.2473 51.8662 47.1455 52.9303 46.9036 53.9567C46.6044 55.216 46.1843 56.4439 45.8215 57.6906C45.7642 57.678 45.7005 57.6655 45.6432 57.6466C45.7005 57.0295 45.7069 56.3998 45.8278 55.7953C46.4007 53.0499 46.6617 50.2794 46.6299 47.4836C46.6108 45.3805 46.5026 43.2774 46.4007 41.1743C46.3816 40.7209 46.2289 40.2739 46.0634 39.8331C45.9933 40.5383 45.8278 41.2562 45.8788 41.9488C46.0506 44.1464 46.0061 46.3376 45.8215 48.5226C45.5923 51.2113 45.2677 53.8937 44.9112 56.5698C44.7903 57.5017 44.4529 58.4022 44.1601 59.5104C43.9373 58.9752 44.001 58.6226 44.0392 58.2636C44.2683 56.1416 44.5038 54.0196 44.733 51.8976C45.0449 49.0011 45.1404 46.0921 44.9367 43.183C44.7903 41.0232 44.6502 38.8634 44.4529 36.7099C44.3256 35.2743 44.1092 33.8512 43.9182 32.4218C43.8864 32.2078 43.7973 32 43.67 31.5907C43.3262 32.3022 43.4026 32.85 43.3835 33.379C43.3517 34.2353 43.339 35.0917 43.2435 35.9417C43.1926 36.4077 42.9952 36.8547 42.8552 37.3081C42.8234 37.4152 42.747 37.5159 42.6197 37.56C42.7597 34.6698 42.3078 31.9244 41.6521 29.1916C41.4421 30.2684 41.6012 31.3262 41.7285 32.3904C41.7349 32.447 41.8113 32.4911 41.8113 32.5478C41.7667 34.2857 41.9322 36.0362 41.4421 37.7426C41.4294 37.793 41.3657 37.8307 41.2702 37.9504C41.1366 37.8181 40.9329 37.7111 40.8883 37.56C40.7483 37.0814 40.6528 36.5903 40.5637 36.0928C40.1054 33.6182 39.6534 31.1436 39.2078 28.6627C39.0933 28.0267 38.9851 27.3782 38.9214 26.7359C38.8896 26.4148 38.8768 26.144 38.4185 26.1314C38.0939 26.5281 38.1576 27.0192 38.2467 27.4663C38.4185 28.3353 38.6986 29.1853 38.8641 30.0543C39.0678 31.0995 39.2015 32.1574 39.3606 33.2152C39.5707 34.5942 39.7871 35.9669 39.9781 37.3459C40.0162 37.6167 39.9781 37.9063 39.9781 38.196C39.1187 38.07 38.5777 37.5915 38.584 36.9303C38.584 36.5462 38.4376 36.3258 38.1194 36.3006C37.6101 36.2629 37.4128 35.9102 37.2218 35.5513C36.3498 33.9394 35.4905 32.3148 34.612 30.7028C34.1919 29.922 33.6827 29.179 33.3262 28.373C32.9125 27.4348 32.6197 26.4462 32.2378 25.3695C32.1168 25.5458 31.9895 25.6466 31.9895 25.7473C31.9895 26.3644 31.9895 26.9878 32.0341 27.6048C32.1996 29.6702 32.4606 31.7355 31.9895 33.8008C31.7094 35.0413 31.5121 36.3006 31.2193 37.5411C31.0538 38.2274 30.7928 38.8949 30.5127 39.5498C30.2709 40.1165 29.8889 40.5635 29.0423 40.4754C28.9978 39.8331 28.9596 39.1782 28.9023 38.5297C28.7623 36.9366 28.6413 35.3435 28.4631 33.7568C28.3294 32.5793 28.1448 31.4144 27.9348 30.2495C27.8329 29.7017 27.6547 29.1538 27.451 28.6312C27.3746 28.4297 27.1264 28.2975 26.9545 28.1338C26.8908 28.1653 26.8272 28.1904 26.7635 28.2219C26.7635 28.4738 26.6808 28.7571 26.7635 28.9712C27.1837 29.9976 27.3237 31.0806 27.4637 32.17C27.6483 33.6308 27.9157 35.0854 28.0748 36.5525C28.1703 37.434 28.1321 38.3282 28.1703 39.216C28.183 39.4994 28.1894 39.8142 28.3103 40.0598C28.4758 40.4061 28.4631 40.7398 28.2148 40.9539C28.0303 41.1113 27.7056 41.105 27.4828 41.1617C26.8145 40.0157 26.0379 39.1719 24.7648 38.8886C24.1346 36.0928 23.5108 33.2971 23.1862 30.388C22.2569 30.495 22.2505 30.495 22.1614 31.301C22.0086 32.6548 21.9386 34.0275 21.7094 35.3687C21.4039 37.1507 20.9774 38.9075 20.6019 40.6769C20.5891 40.7335 20.5764 40.7965 20.5509 40.8469C20.4173 41.1428 20.3154 41.5017 19.8953 41.4703C19.4943 41.4388 19.3924 41.0862 19.297 40.7776C19.2078 40.4817 19.176 40.1605 19.1187 39.8331C18.5331 39.8331 18.4185 40.1668 18.3358 40.5635C18.2403 41.0106 18.2276 41.5017 17.7565 41.9614C17.5847 41.6529 17.4383 41.4199 17.3173 41.168C16.8336 40.129 16.649 39.0208 16.6553 37.8874C16.6744 35.268 16.9099 32.6926 17.9093 30.2054C18.6477 28.3793 19.437 26.6037 20.6591 25.061C22.2123 23.109 24.2238 21.7867 26.5535 20.9429C26.8781 20.8233 27.2409 20.8107 27.6292 20.7414C25.3823 23.2727 24.7648 24.2613 24.8412 25.3695C25.064 25.0862 25.2231 24.8973 25.3759 24.7021C25.9169 23.9968 26.4389 23.279 26.9927 22.5864C27.5465 21.8937 28.2403 21.434 29.2651 21.3144C29.2206 21.5915 29.2015 21.837 29.1378 22.07C28.8005 23.342 28.6159 24.6202 28.7559 25.9425C28.7877 26.2448 28.8259 26.5092 29.1187 26.7359C29.437 26.4022 29.2906 26.0307 29.3288 25.7032C29.4306 24.8217 29.4688 23.9339 29.5961 23.0586C29.6534 22.6556 29.8253 22.2589 30.0035 21.8874C30.2518 21.3648 30.4618 21.2766 30.9965 21.4655C31.2384 21.5537 31.4612 21.7174 31.6776 21.8685C32.3141 22.3093 32.9698 22.706 33.7654 22.7753C34.3447 22.8256 34.6375 23.2475 34.8921 23.6883C35.3504 24.488 35.7005 25.3317 35.7833 26.2636C35.7896 26.377 35.8469 26.484 35.8915 26.5911C35.8979 26.61 35.9424 26.6163 36.0443 26.654C36.1206 26.5407 36.2607 26.4211 36.2734 26.2825C36.4007 25.3506 36.3116 24.4502 35.8151 23.619C35.605 23.2664 35.4014 22.9075 35.1658 22.4982C35.4523 22.2904 35.7069 22.1078 36.0124 21.8937C36.1206 21.9315 36.2989 21.963 36.4516 22.0511C37.6993 22.7438 38.8005 22.3471 39.8189 21.56C40.1945 21.2703 40.5127 21.1003 41.022 21.2514C41.6394 21.434 41.7922 21.3396 43.0016 20.7918C43.3517 21.3711 43.339 22.0322 43.3899 22.6556C43.5172 24.1291 43.95 25.5017 44.663 26.7863C45.6432 28.5557 47.2282 29.5191 49.1124 30.0858C50.4045 30.4699 51.684 30.3943 52.9698 30.0669C53.2562 29.9913 53.5427 29.9472 53.9055 29.878C54.5929 31.6411 55.465 33.3286 55.4586 35.2869C55.4586 36.3132 55.2804 37.0185 54.4656 38.7375C54.1601 38.5926 53.8546 38.4352 53.5363 38.303C53.2117 38.1645 52.8743 38.0511 52.5306 37.9189C52.5815 37.3837 52.6324 36.8359 52.6833 36.2817C52.7215 35.841 52.7661 35.3939 52.7979 34.9468C52.817 34.7076 52.8106 34.4683 52.416 34.3864C52.1041 35.715 51.9895 37.1192 51.1238 38.2274L50.8692 38.1645C50.9265 37.3333 50.9901 36.5021 51.0347 35.671C51.0793 34.8524 51.0984 34.0401 51.1302 33.1208C50.6719 33.2719 50.6337 33.5364 50.5891 33.826C50.43 34.9972 50.2836 36.1747 50.0672 37.3396C49.959 37.9315 49.7043 38.4982 49.4243 39.0712L49.4115 39.0775ZM55.3504 45.1224C54.7266 46.791 53.931 48.4281 52.0723 49.0767C51.3912 49.316 50.6337 49.3412 49.7362 49.4986C49.8253 48.5541 49.8953 47.8048 49.9781 46.961C50.239 47.1499 50.4491 47.3388 50.691 47.4773C51.5694 48 52.4351 47.6474 52.7088 46.6714C53.0525 45.4372 52.5879 44.7257 51.3148 44.5242C51.1684 44.499 51.022 44.4801 50.8819 44.4423C50.8374 44.4297 50.8056 44.3605 50.7674 44.3227C51.1556 43.4096 51.8686 42.95 52.8043 42.9878C53.1544 43.0004 53.5172 43.0067 53.8609 42.9374C54.0201 42.9059 54.141 42.6855 54.281 42.5533C54.1474 42.4148 54.0392 42.2007 53.8737 42.1566C52.6133 41.7851 51.4039 41.7158 50.4618 42.8744C50.3536 43.0067 50.2327 43.12 50.0226 43.3341C49.8953 42.4966 49.6852 41.7725 49.7043 41.061C49.7298 40.3242 50.1945 39.7198 50.8883 39.4301C52.3014 38.8382 53.8227 39.2916 54.6057 40.6202C55.4204 42.0055 55.9551 43.5356 55.3568 45.1287L55.3504 45.1224ZM50.6973 45.9409C50.8056 45.7331 51.1047 45.6261 51.2066 45.5568C51.7858 45.6072 51.9704 45.8276 51.9195 46.218C51.8813 46.4825 51.7604 46.6588 51.4612 46.6399C51.092 46.621 50.57 46.1802 50.6973 45.9409Z" fill="black"/>
<path d="M20.2326 44.8076C20.2772 44.2283 20.3791 44.1212 20.7864 44.2975C20.971 44.3731 21.1302 44.5053 21.2766 44.5998C21.9895 44.2409 21.5185 43.6867 21.5503 43.2523C21.8176 42.9878 22.0468 43.1389 22.295 43.2334C22.8106 43.4349 22.9507 43.3467 23.0589 42.7926C23.1034 42.5596 23.1098 42.3078 23.2053 42.1063C23.2689 41.9803 23.4854 41.8481 23.619 41.8607C23.7336 41.8733 23.8927 42.0811 23.9182 42.2196C23.9628 42.4778 23.9182 42.7485 23.9182 43.0949L25.064 43.2019C25.3886 42.8619 25.3122 42.1 26.1206 42.0307L25.9806 43.5104C26.2225 43.7056 26.4643 43.9008 26.6617 44.0583C27.2791 43.9638 27.2982 42.95 28.1003 43.246C28.1894 43.649 28.1002 43.9449 27.8456 44.2535C27.4192 44.7635 27.4573 44.8328 27.9729 45.3617C28.2785 45.1476 28.5777 44.9461 28.8705 44.7383C28.7368 44.3479 28.6031 43.9386 28.444 43.4727C29.0423 43.3782 29.1187 43.6993 29.2015 44.0646C29.2715 44.3731 29.4115 44.6627 29.5579 45.072C29.2524 45.3617 28.8959 45.7017 28.4758 46.0984C28.6795 46.6399 28.8259 47.2696 29.2778 47.8426C29.8189 48.5289 29.9144 49.4105 29.8698 50.2857C29.8507 50.6572 29.8571 51.0287 29.8507 51.5073C29.8316 51.5262 29.7425 51.6521 29.6152 51.7151C28.985 52.0362 28.8068 53.0185 29.0805 53.5159C29.3861 54.0638 30.2836 54.3408 30.9838 54.1078C31.2893 54.0071 31.5948 53.8812 31.9067 53.8056C32.0595 53.7678 32.2314 53.8308 32.416 53.8434C31.423 55.3231 29.5516 55.4931 28.4758 54.2527C27.9029 53.5915 27.9857 52.0488 28.6413 51.3814C28.8768 51.1421 29.2651 51.0539 29.2715 50.5943C29.2842 50.059 29.3097 49.5364 29.0551 49.0327C28.8705 48.6675 28.7432 48.2708 28.5649 47.83C28.3994 47.7733 28.183 47.6978 27.9666 47.6222C27.9093 47.66 27.8265 47.6852 27.8138 47.723C27.3491 49.5175 25.5605 49.209 24.5929 48.2645C23.5681 47.2633 23.4663 45.8969 24.0582 44.4801C24.1028 44.3731 24.1537 44.2723 24.2174 44.1338C23.0843 43.8505 22.4796 44.5305 21.9067 45.2798C21.7476 45.4939 21.633 45.7458 21.4548 45.941C21.3593 46.0417 21.1684 46.0606 20.901 46.1614C21.0729 45.4121 20.7419 45.0217 20.1945 44.7698L20.2199 44.8013L20.2326 44.8076Z" fill="black"/>
<path d="M38.7177 55.2601C38.5395 54.8886 38.1894 54.6115 38.5777 54.2715C39.7807 54.5674 40.1881 55.4049 39.6534 56.5635C39.4816 56.469 39.3224 56.3809 39.1569 56.2864C39.106 56.3116 39.0424 56.3242 39.0042 56.3557C36.5599 58.421 33.8355 59.8882 30.5955 60.1967C29.9271 60.2597 29.2397 60.14 28.5713 60.0645C28.374 60.0393 28.1958 59.8756 28.0112 59.7748C28.0175 59.7056 28.0303 59.63 28.0366 59.5607C28.304 59.5041 28.5777 59.3844 28.8387 59.4033C30.6655 59.4978 32.346 58.9374 34.001 58.2888C35.4396 57.7284 36.7572 56.935 37.973 55.9779C38.2276 55.7764 38.4376 55.5308 38.7177 55.2664V55.2601Z" fill="black"/>
<path d="M40.9838 49.5113C40.621 49.209 40.4236 49.0453 40.2327 48.8879C39.5707 48.9572 39.6407 49.5302 39.5325 49.9206C38.9787 50.185 38.966 49.612 38.6923 49.4294C37.8584 49.5742 36.9927 49.8324 36.2798 49.0831C36.4262 48.6234 36.7699 48.6801 37.0818 48.7431C38.304 48.9949 39.3352 48.4975 40.3409 47.9308C41.1175 47.49 41.8177 46.9548 42.3078 46.1803C42.416 46.0103 42.6452 45.9095 42.9316 45.6829C42.938 46.0481 42.9443 46.237 42.9507 46.4637C43.1926 46.6903 43.9373 46.64 43.5236 47.2633C43.0716 47.6789 42.5879 46.64 42.155 47.4334C42.3333 47.7356 42.9634 47.9623 42.4224 48.5164C42.2632 48.4282 42.1041 48.3086 41.9195 48.2519C41.7158 48.189 41.4548 48.1008 41.2766 48.1764C41.022 48.2771 41.0538 48.4975 41.1811 48.762C41.2511 48.9068 41.0856 49.165 40.9838 49.5176V49.5113Z" fill="black"/>
<path d="M26.2352 51.1608C26.057 51.4757 25.9551 51.8976 25.7578 51.9416C25.2168 52.0739 25.4841 51.3875 25.1085 51.1797C25.0131 51.2301 24.8412 51.2742 24.7457 51.3875C24.6184 51.545 24.5802 51.7779 24.4402 51.9228C24.3383 52.0235 24.1028 52.0865 23.9882 52.0361C23.8928 51.992 23.81 51.7087 23.8609 51.6079C24.1155 51.1357 24.1219 50.7642 23.5108 50.4745C23.3772 50.5501 23.1798 50.6571 22.8616 50.8334C22.8043 50.3927 22.817 50.0085 22.6897 49.6748C22.5497 49.3096 22.2759 48.9885 22.0532 48.6359C22.4924 48.4344 22.6833 48.6547 22.9125 48.8562C23.5299 49.3915 24.1092 49.9708 24.9303 50.2289C25.6178 50.443 26.2734 50.7201 26.9672 50.2793C27.0691 50.2163 27.2473 50.273 27.4383 50.273C27.3555 50.7516 27.2855 51.1734 27.1964 51.7276C26.8017 51.5009 26.5089 51.3309 26.2352 51.1671V51.1608Z" fill="black"/>
<path d="M33.549 60.8076C34.2237 60.9965 34.8157 61.1602 35.4077 61.3302C35.0449 61.8214 34.542 62.0229 34.0901 61.8781C33.6954 61.7521 33.5808 61.5443 33.549 60.8139V60.8076Z" fill="black"/>
<path d="M34.5802 42.5911C34.3893 43.0381 34.211 43.4474 34.0264 43.8693C33.479 43.5986 33.5299 43.2396 33.7018 42.8618C33.8482 42.5407 34.0519 42.3077 34.5802 42.5911Z" fill="black"/>
<path d="M40.4844 79.9862C62.291 79.9862 79.9688 62.3046 79.9688 40.4931C79.9688 18.6817 62.291 1 40.4844 1C18.6778 1 1 18.6817 1 40.4931C1 62.3046 18.6778 79.9862 40.4844 79.9862Z" stroke="#47665A" stroke-width="1.62" stroke-miterlimit="10"/>
</g>
<defs>
<clipPath id="clip0_147_4072">
<rect width="80" height="80" fill="white" transform="translate(0.5)"/>
</clipPath>
</defs>
</svg>
