<svg width="81" height="80" viewBox="0 0 81 80" fill="none" xmlns="http://www.w3.org/2000/svg">
<g clip-path="url(#clip0_147_4035)">
<path d="M51.6821 77.7328C51.9717 77.5086 52.3117 77.3466 52.6895 77.2781C53.3569 77.166 54.0306 77.0476 54.6854 76.8856C54.8113 76.8047 54.9373 76.7237 55.0632 76.6489C55.4095 76.4434 55.7747 76.269 56.1336 76.0883C56.121 76.0696 56.1084 76.0509 56.0958 76.0323C56.0643 75.9949 56.0769 75.9264 56.0643 75.8578C56.228 75.7582 56.398 75.6523 56.6247 75.5153C56.4861 74.2321 56.3539 72.9489 56.2154 71.6657C56.0013 69.6475 55.1891 67.8846 53.8669 66.371C53.0547 65.4491 52.041 64.8386 50.8195 64.5583C49.6484 64.2905 48.4899 63.9728 47.3377 63.6364C46.3114 63.3374 46.2485 63.3 46.3492 62.2224C46.4373 61.2756 46.7207 60.3475 46.9222 59.4193C48.6851 58.5223 49.9947 57.1893 51.2225 55.7566C51.3736 55.5822 51.5184 55.3953 51.6317 55.1898C52.1543 54.2492 52.6832 53.3086 53.1806 52.3556C53.9739 50.8357 54.4713 49.2161 54.6413 47.5093C54.7925 45.9396 54.9562 44.3699 54.4399 42.8313C54.3013 42.8438 54.1628 42.8562 54.0054 42.8687C53.9236 44.2328 53.8543 45.5721 53.7725 46.9113C53.7347 47.4657 53.7662 48.045 53.6214 48.5745C52.8721 51.3153 51.7954 53.9004 49.8184 56.012C49.2455 56.6287 48.6158 57.208 47.9547 57.725C46.5633 58.8213 44.8822 59.2823 43.2074 59.737C41.52 60.198 39.7822 60.1793 38.0508 60.1606C37.3771 60.1544 36.7097 60.0235 36.036 59.955C36.0171 60.0173 35.9982 60.0734 35.9793 60.1357C36.3382 60.2914 36.6845 60.4783 37.0497 60.6028C37.3519 60.7087 37.6793 60.7648 37.9941 60.7959C38.4033 60.8333 38.6174 61.0451 38.7496 61.4189C38.9008 61.8611 39.0896 62.2909 39.2596 62.727C39.5619 63.4994 39.4422 63.842 38.7119 64.2406C38.5041 64.3527 38.2837 64.4337 38.0571 64.5023C37.1882 64.7701 36.3004 64.9757 35.4567 65.2871C34.2604 65.7294 33.0704 66.2962 32.4408 67.4548C31.3642 69.4357 30.3568 71.4726 30.4323 73.8272C30.4764 75.1726 30.596 76.5244 30.7156 77.8636C30.7219 77.9508 30.7408 78.0443 30.7597 78.1315C30.9045 78.1439 31.0556 78.1626 31.2005 78.1688C31.2445 78.1688 31.2886 78.1813 31.3327 78.1875C31.2571 77.3092 31.1879 76.4621 31.106 75.5464C31.7797 75.8267 32.296 76.1195 32.8438 76.2565C34.8963 76.7611 36.9615 77.2033 39.0833 77.2781C40.6952 77.3404 42.3133 77.384 43.9189 77.5646C46.4373 77.8449 48.9621 77.8761 51.4869 77.7515C51.5499 77.7515 51.6129 77.739 51.6758 77.739L51.6821 77.7328ZM45.9337 59.9363C45.7825 61.0451 45.6377 62.0667 45.4992 63.0882C45.4614 63.3748 45.43 63.6738 45.4551 63.9665C45.5055 64.5396 45.2159 64.7701 44.7122 64.9694C43.6733 65.3743 42.5841 65.2871 41.5137 65.3681C41.1674 65.393 40.8022 65.1501 40.5504 65.0629C40.2104 63.9229 39.9081 62.9512 39.6374 61.967C39.5493 61.6431 39.5493 61.3005 39.4926 60.8582C41.7404 60.9766 43.8244 60.5842 45.9399 59.9426L45.9337 59.9363ZM37.6667 65.5425C37.7548 65.8104 37.8241 66.0035 37.9185 66.3025C37.2322 66.3398 36.6971 66.4582 36.0108 66.0533C36.6467 65.8602 37.1189 65.7107 37.6667 65.5425ZM35.5197 66.7447C36.2689 66.8818 37.0308 66.9254 37.7926 67.0001C38.0508 67.025 38.2648 67.0375 38.4726 67.2929C39.3919 68.4266 40.5378 68.738 42.1685 68.3082C42.0237 68.1712 41.9355 68.0279 41.8096 67.9781C41.457 67.8473 41.0918 67.6978 40.7141 67.6542C39.7256 67.542 39.2722 66.7945 38.7559 66.1156C38.6741 66.0035 38.5859 65.8104 38.63 65.7107C38.7245 65.4927 38.9008 65.3058 39.0456 65.1065C39.2093 65.2435 39.5178 65.3743 39.5241 65.5114C39.5367 66.1779 39.9081 66.209 40.4118 66.1093C40.5504 66.0844 40.7141 66.0657 40.8463 66.1093C41.8978 66.4519 42.9492 66.1841 43.9881 66.0969C44.5737 66.0471 45.1529 65.773 45.7196 65.555C46.2107 65.3619 46.5696 65.0317 46.3429 64.3278C48.1121 64.739 49.7429 65.1688 51.3232 65.8104C49.9444 66.0844 48.5907 66.4146 47.1551 66.3149C47.1173 66.0035 47.0859 65.7356 47.0418 65.3743C46.3681 65.9287 45.7825 66.4146 45.1403 66.9378C45.1214 67.2057 45.3985 67.3116 45.5874 67.1994C46.2548 66.8008 46.9222 66.9814 47.6084 67.0499C48.0429 67.0935 48.4899 67.025 48.9244 67.0001C50.064 66.944 51.2099 66.8693 52.3495 66.8319C53.3191 66.8008 53.9047 67.3178 54.1439 68.4702C52.9791 68.601 51.8269 68.7692 50.6684 68.8439C49.3588 68.9311 48.0429 68.9934 46.727 68.9623C44.687 68.9124 42.6533 69.2488 40.6007 68.9436C38.5733 68.6446 36.5208 68.4826 34.4808 68.2584C34.0464 68.2085 33.6119 68.1338 33.1019 68.0591C33.7945 66.7883 34.3297 66.5454 35.526 66.7634L35.5197 66.7447ZM53.6465 71.0926C53.571 71.1175 53.4891 71.1362 53.4136 71.1611C53.3821 71.0428 53.3506 70.9244 53.3191 70.7998L53.5206 70.7376C53.5584 70.8559 53.6025 70.9743 53.6402 71.0926H53.6465ZM43.2703 69.8593C43.2263 70.1458 43.1948 70.3825 43.1318 70.8248C42.924 70.4261 42.8107 70.1956 42.6533 69.8904C42.8989 69.8779 43.0626 69.8655 43.2703 69.853V69.8593ZM33.4419 68.8501C33.3034 69.199 33.1649 69.5353 33.0138 69.9215C32.7997 69.8593 32.5856 69.8032 32.3149 69.7222C32.4912 69.0453 32.8669 68.7526 33.4419 68.8439V68.8501ZM48.2633 73.4161C46.2485 73.7275 44.2337 73.8645 42.2189 73.6901C40.2985 73.5282 38.3908 73.198 36.4767 72.9302C35.1356 72.7433 33.8008 72.5315 32.4597 72.326C32.1197 72.2761 31.7734 72.2138 31.3138 72.1329C31.509 71.5037 31.6727 70.9805 31.849 70.4136C32.9949 70.7002 34.0841 71.0303 35.1923 71.2421C36.6026 71.51 38.0256 71.7155 39.4485 71.9024C42.4707 72.2948 45.5055 72.6063 48.5655 72.4755C50.1773 72.4069 51.7766 72.2138 53.3884 72.083C54.3391 72.0083 54.5343 71.267 54.7799 70.5071C55.548 70.9493 55.3276 71.728 55.5669 72.4443C53.0673 72.7682 50.6558 73.0361 48.257 73.4036L48.2633 73.4161Z" fill="black"/>
<path d="M54.4525 42.8312C54.4965 42.2394 54.9876 42.3951 55.3213 42.3266C56.0076 42.1834 56.7191 42.1273 57.3802 41.9217C59.4832 41.2739 60.7487 39.7852 61.3846 37.7233C61.5924 37.0568 61.8002 36.3966 61.668 35.6553C61.3217 33.6744 59.7854 32.765 57.8965 32.927C57.4936 32.9643 57.0906 33.0827 56.6939 33.1886C56.1525 33.3381 55.611 33.4004 55.1136 33.3007C55.0443 32.846 54.9751 32.4535 54.9247 32.0611C54.761 30.7219 54.6476 29.3764 54.4399 28.0434C54.2636 26.9221 54.0243 25.8009 53.7347 24.6983C53.4451 23.5958 53.0547 22.5244 52.6958 21.4405C52.5825 21.1104 52.4314 20.7927 52.2866 20.475C51.8206 19.4659 51.4051 18.4194 50.8636 17.4539C49.5351 15.0744 47.8288 13.0749 45.1781 12.072C44.1644 11.6858 43.1948 11.1999 42.1811 10.8262C41.6081 10.6144 40.9974 10.4774 40.393 10.4026C38.2208 10.141 36.0486 10.1971 33.933 10.7826C32.8186 11.0878 31.8112 11.6858 30.766 12.1904C29.0975 13.0001 27.8698 14.2584 26.7742 15.6849C26.5853 15.934 26.472 16.2393 26.3209 16.5196C26.239 16.6753 26.1887 16.8684 26.069 16.9743C25.0805 17.8215 25.0176 19.086 24.6776 20.1947C24.262 21.5589 24.0731 22.9916 23.7898 24.3931C23.7709 24.4741 23.8087 24.5613 23.8402 24.7793C24.155 24.6174 24.4446 24.5115 24.6964 24.3371C25.5276 23.7702 26.4153 23.4899 27.429 23.602C27.9201 23.6581 28.4301 23.602 28.9149 23.6892C30.7408 24.0069 31.7797 25.1531 32.1953 26.9159C32.3842 27.7194 31.8364 28.6974 30.9108 28.959C30.1931 29.1646 29.4186 29.202 28.6694 29.2954C27.9453 29.3888 27.1961 29.3764 26.4972 29.5695C25.5653 29.8249 24.6713 29.9619 23.645 29.5633C23.5505 29.937 23.3931 30.2609 23.3868 30.5911C23.3302 33.6682 23.242 36.7454 23.5253 39.8225C23.752 42.2893 24.2683 44.6874 24.8413 47.0856C25.2127 48.6242 25.6031 50.1628 26.0879 51.664C26.7616 53.7258 27.9957 55.4139 29.8216 56.6161C30.8416 57.2889 31.9056 57.8993 32.9319 58.5783C33.6119 59.0268 34.2478 59.5376 34.9278 60.0421C34.6697 60.3972 34.4115 60.2477 34.2038 60.1356C32.5101 59.2137 30.8164 58.3167 29.2486 57.1643C26.8561 55.4077 25.6094 53.0344 24.9357 50.25C24.4509 48.2629 23.922 46.2821 23.3868 44.3075C23.305 44.0085 23.1539 43.7095 22.9713 43.4603C22.3794 42.663 21.5861 41.9653 21.1706 41.0933C20.4465 39.5734 20.012 37.9289 20.925 36.2969C21.1265 35.9418 21.5043 35.6241 21.8757 35.4373C22.3857 35.1881 22.6124 34.8891 22.6376 34.3036C22.7509 31.4071 22.8454 28.5043 23.0846 25.6203C23.2861 23.1971 23.7583 20.8052 24.6335 18.5129C24.7153 18.2949 24.7531 18.0582 24.8413 17.8464C25.0616 17.348 25.2127 16.8248 25.729 16.4884C26.0187 16.3016 26.1509 15.8842 26.3775 15.5977C26.919 14.9125 27.429 14.1837 28.0398 13.5608C29.8216 11.7543 31.9749 10.521 34.4178 9.88561C35.5134 9.59907 36.6656 9.47449 37.7989 9.43089C39.5933 9.36237 41.3878 9.52432 43.0752 10.2282C44.0763 10.6456 45.0333 11.175 46.0533 11.5425C47.2244 11.9661 48.1562 12.7261 49.0062 13.5545C50.2214 14.7443 51.2792 16.0711 51.8836 17.7156C52.2236 18.6437 52.6769 19.5407 53.1303 20.4252C53.7536 21.6399 54.0117 22.9667 54.4462 24.2374C55.2962 26.7353 55.4032 29.3577 55.8062 31.9241C55.8439 32.1546 55.8754 32.3788 55.9258 32.6903C56.2721 32.5657 56.5743 32.4722 56.8702 32.3539C58.2554 31.7995 59.5902 32.0051 60.8368 32.7276C61.8442 33.3132 62.2598 34.316 62.4361 35.431C62.6061 36.5024 62.4046 37.5302 62.0646 38.5456C61.6365 39.8225 60.9754 40.9625 59.8483 41.7349C59.2313 42.1584 58.5387 42.5197 57.8335 42.744C57.0906 42.9745 56.291 43.0554 55.5039 43.1053C55.1576 43.1302 54.7988 42.9059 54.4399 42.8L54.4651 42.825L54.4525 42.8312ZM24.8413 25.0285C25.0994 25.3399 25.389 25.6265 25.6031 25.9691C25.9746 26.5608 26.2768 27.1962 26.642 27.7942C27.2212 28.7348 27.2653 28.741 28.3986 28.4545C28.3483 27.6634 27.1016 25.477 26.0501 24.3433C25.5716 24.4243 25.0994 24.5364 24.8539 25.0534C24.7657 25.0596 24.6398 25.0347 24.5957 25.0783C23.8213 25.9317 23.4309 26.9533 23.6828 28.0683C23.8779 28.9341 24.1109 29.1584 24.8098 29.0089C24.2368 27.7817 24.1172 27.2523 24.3502 26.729C24.5894 27.3208 24.7783 27.8689 25.0301 28.386C25.345 29.0338 25.6409 29.0836 26.4531 28.6414C25.9809 27.7755 25.5338 26.8972 25.0301 26.0563C24.8287 25.7199 24.5957 25.4334 24.8287 25.0347L24.8413 25.0285ZM26.9064 24.362C27.6116 25.6639 28.2601 26.8349 28.8897 28.0184C29.0471 28.3112 29.2423 28.4856 29.576 28.4358C29.8783 28.3922 30.1868 28.3299 30.5142 28.2738C30.4134 26.7353 29.5194 25.6701 28.8079 24.5239C28.7575 24.443 28.6127 24.3744 28.512 24.3682C28.002 24.3495 27.4857 24.362 26.9127 24.362H26.9064ZM22.5998 35.8982C21.7183 36.3343 21.372 36.9385 21.2461 37.6984C20.9376 39.5173 21.668 40.9562 22.9461 42.227C22.8328 40.1589 22.7194 38.0846 22.5998 35.8982ZM29.6453 24.8416C30.3064 25.7573 30.4575 26.947 31.2508 27.8378C31.8175 26.8162 31.1942 25.6639 29.6453 24.8416Z" fill="black"/>
<path d="M48.1185 33.7491C47.6399 34.0294 47.407 33.774 47.1803 33.4813C46.7774 32.958 46.3618 32.441 45.7133 32.1358C46.154 32.8085 46.0659 33.5373 46.0344 34.2599C46.0281 34.4032 46.0218 34.5527 45.984 34.696C45.7322 35.73 45.0837 36.1473 44.0448 35.9355C42.9492 35.7175 42.2063 35.0572 41.8159 34.0357C41.5578 33.3629 41.3815 32.6528 41.1359 31.8555C40.4622 32.3414 40.0026 32.9767 39.5682 33.6619C39.0959 34.4032 39.4674 35.2192 39.2596 35.9667C38.6993 36.0539 38.523 35.9729 38.5041 35.5057C38.4852 35.132 38.5734 34.752 38.63 34.3783C39.033 31.6001 41.6774 29.9182 44.2526 30.3294C44.7248 30.4041 45.2348 30.6034 45.5937 30.9087C46.4374 31.625 47.2055 32.4286 47.9799 33.2197C48.0933 33.338 48.0807 33.5747 48.1248 33.7429L48.1185 33.7491Z" fill="black"/>
<path d="M45.1781 28.7222C44.3407 28.5976 43.5033 28.4918 42.6722 28.3485C41.627 28.1678 40.5818 28.1056 39.5304 28.3298C39.1904 28.4045 38.8315 28.4045 38.4789 28.3921C37.0559 28.336 36.7097 27.3518 36.7663 26.1621C36.7663 26.05 36.8041 25.9254 36.8608 25.8257C37.2008 25.1966 37.503 24.5425 37.9059 23.9508C38.2522 23.44 38.8882 23.3216 39.4485 23.1784C41.0981 22.7485 42.7163 22.7049 44.3281 23.4524C45.7699 24.1189 46.6766 25.1717 46.9977 26.704C47.2496 27.8875 46.4373 28.7347 45.1781 28.7222ZM45.3103 25.209C44.9074 26.025 44.5107 26.8473 44.0888 27.7007C44.4037 27.9374 44.6807 27.8315 44.8948 27.5574C45.2662 27.0778 45.6125 26.5732 46.0344 25.9939C45.7762 25.726 45.5307 25.4769 45.2851 25.2277C45.0144 24.6484 44.6492 24.4242 44.347 24.7356C43.5977 25.5018 42.8863 26.3116 42.5966 27.3892C43.0374 27.6321 43.3207 27.5761 43.5474 27.1899C43.9 26.5919 44.2966 26.0126 44.6303 25.4021C44.8129 25.0658 45.0522 25.1779 45.2977 25.209H45.3103ZM38.5922 27.6882C39.2093 27.5138 39.7696 27.6757 40.1033 27.0279C40.6007 26.0437 41.1926 25.1094 41.7341 24.1439C41.8096 24.0068 41.8222 23.8324 41.8663 23.6642C41.4255 23.5396 41.0541 23.577 40.7518 23.8573C39.6626 24.8727 39.0141 26.1372 38.5985 27.682L38.5922 27.6882ZM43.9818 24.2124C42.8233 23.7141 42.7729 23.6954 42.1874 24.5176C41.7341 25.1592 41.3563 25.8506 40.9596 26.5358C40.8274 26.7725 40.7455 27.0404 40.6322 27.3269C41.4381 27.4515 41.8915 27.1338 42.2566 26.5857C42.5463 26.1496 42.8611 25.7323 43.1696 25.3087C43.4214 24.9599 43.6859 24.6173 43.9818 24.2124ZM39.7633 23.9445C38.5733 23.7888 37.9815 24.4989 37.6226 25.4457C37.3708 26.1122 37.1252 26.8348 37.8808 27.5013C38.5167 26.2991 39.1274 25.1467 39.7633 23.9383V23.9445Z" fill="black"/>
<path d="M30.9864 32.9331C31.2445 33.3505 31.4838 33.7865 31.7671 34.1914C32.233 34.8517 32.5667 35.6615 32.573 36.3404C32.3212 36.2781 32.0882 36.2283 31.8553 36.166C31.8301 36.1972 31.7671 36.2345 31.7545 36.2781C31.6034 37.0941 30.9738 37.3495 30.2875 37.4554C29.639 37.5613 29.1038 37.3122 28.6883 36.764C28.109 36.0041 27.8068 35.1195 27.5423 34.2288C27.3535 33.5934 27.4164 32.9518 28.1846 32.4971C27.0827 32.2728 26.3586 32.7276 25.6912 33.3193C25.5401 33.4564 25.4268 33.6432 25.2505 33.7491C25.1372 33.8176 24.9546 33.774 24.7657 33.7865C25.7542 31.6686 27.7942 31.2077 29.3053 31.9676C29.8971 32.2666 30.4512 32.6279 31.0242 32.9643L30.9927 32.9331H30.9864Z" fill="black"/>
<path d="M33.1775 33.7242C33.2719 33.8737 33.3978 34.017 33.4671 34.1914C34.0401 35.6366 34.6445 37.0693 34.8775 38.6265C34.9026 38.8072 35.0663 38.9691 35.2175 39.2307C34.9719 39.3989 34.7263 39.5858 34.4556 39.7353C33.6812 40.1713 33.0201 40.732 32.4849 41.4483C31.9245 42.1958 31.7797 43.0741 31.8175 43.9524C31.8427 44.6064 32.3023 45.0923 32.9445 45.2854C33.9015 45.5719 34.8649 45.6841 35.8849 45.4661C36.6971 45.2916 37.3645 44.9864 37.9311 44.3884C38.0382 44.2763 38.2145 44.2389 38.4096 44.2265C38.1263 45.0549 37.6793 45.7526 36.8482 46.0765C35.6708 46.5375 34.4178 46.6807 33.2278 46.226C31.4271 45.5408 30.6275 44.214 31.1249 42.3515C31.4712 41.0434 32.4219 40.1589 33.4797 39.3802C33.6686 39.2432 33.8827 39.1498 34.1093 39.019C34.1534 38.3774 34.1534 37.7607 33.8889 37.1316C33.5175 36.247 33.2467 35.3189 32.9256 34.4094C32.8312 34.1478 32.7493 33.8987 33.1712 33.718L33.1775 33.7242Z" fill="black"/>
<path d="M39.543 57.9179C39.3541 58.3228 39.203 58.7401 38.9763 59.1014C38.5482 59.7991 38.0445 59.824 37.5219 59.2135C37.3519 59.0204 37.1819 58.8273 36.993 58.6093C36.7537 58.7339 36.5523 58.8523 36.3445 58.9395C35.803 59.1637 35.4441 59.008 35.2552 58.4349C34.9026 57.4009 34.7201 56.3482 35.0349 55.2643C35.0915 55.0712 35.0915 54.8532 35.1608 54.6601C35.2867 54.2801 35.3308 53.7693 35.6015 53.5575C36.0863 53.1776 36.7034 52.9284 37.2889 52.7104C37.8304 52.5111 38.3215 52.7353 38.7371 53.1091C39.7256 53.9936 40.3615 55.0837 40.5756 56.398C40.733 57.376 40.4874 57.6936 39.543 57.9054V57.9179ZM39.8011 56.7531C39.7382 55.4823 39.2219 54.4109 38.5482 53.8192C37.6541 53.0343 36.3697 53.3582 35.8534 54.4358C35.3623 55.4699 35.4504 56.5413 35.4819 57.6189C35.4819 57.7871 35.5386 57.974 35.6141 58.1235C35.7463 58.3975 36.0549 58.4349 36.2626 58.2107C36.3571 58.1048 36.3886 57.9553 36.4578 57.8307C36.7034 57.3822 36.9237 57.3573 37.226 57.7559C37.3834 57.9615 37.4715 58.2231 37.6352 58.4287C37.7674 58.5969 37.95 58.7277 38.1893 58.9519C38.3782 58.6093 38.5734 58.3788 38.6363 58.111C38.7622 57.5753 38.8441 57.0271 38.8882 56.4728C38.9071 56.1924 38.9511 56.0243 39.3037 56.0118C39.373 56.1115 39.4548 56.2236 39.5367 56.3419C39.6248 56.479 39.713 56.6098 39.8011 56.7468V56.7531Z" fill="black"/>
<path d="M31.4649 50.1565C31.7419 50.1565 32.0441 50.088 32.3023 50.169C35.5449 51.1283 38.6804 50.5988 41.7781 49.49C42.137 49.3654 42.4707 49.1723 42.8044 48.9855C43.4781 48.6117 43.4718 48.6055 43.5977 47.9016C44.2337 48.1259 44.3911 48.5744 44.2085 49.7703C43.6481 49.2782 43.2389 49.7392 42.7603 49.9385C41.8978 50.2873 41.0289 50.6362 40.1348 50.8729C38.7496 51.2342 37.3393 51.5269 35.8911 51.5082C34.4997 51.4896 33.1712 51.1532 31.8616 50.7172C31.6853 50.6611 31.5593 50.4618 31.4145 50.331C31.4334 50.2687 31.4523 50.2126 31.4775 50.1503L31.4649 50.1565Z" fill="black"/>
<path d="M58.9354 34.6089C59.1432 34.9515 58.9984 35.0948 58.7465 35.2006C57.6762 35.6616 57.0528 36.5088 56.6876 37.5802C56.6688 37.6362 56.6625 37.6923 56.6625 37.7483C56.6625 37.7733 56.6876 37.7982 56.738 37.8792C57.0717 37.7733 57.4117 37.6362 57.7706 37.5677C58.2176 37.4805 58.715 37.3248 59.0676 37.7919C59.3258 38.1283 59.2376 38.9506 58.9102 39.3679C58.5199 39.8725 57.5376 40.1714 56.908 39.9783C56.3602 39.8102 55.8314 38.9942 55.8314 38.3214C55.8314 36.5399 57.2417 34.8331 58.9291 34.6089H58.9354ZM56.8388 38.9755C57.8588 39.3181 58.2302 39.1374 58.3058 38.2965C57.7328 38.2965 57.2417 38.4211 56.8388 38.9755Z" fill="black"/>
<path d="M39.9019 31.3385C39.2282 31.706 38.8189 32.248 38.1011 32.4847C38.2837 31.4257 38.8126 31.0769 39.9019 31.3385Z" fill="black"/>
<path d="M40.5504 37.5303C41.1045 37.8542 41.5641 38.1283 42.0678 38.4273C41.9167 38.7449 41.6459 38.7387 41.3563 38.6577C40.8778 38.5269 40.6826 38.2715 40.5504 37.5365V37.5303Z" fill="black"/>
<path d="M31.0179 32.9581C30.999 32.5968 30.4386 32.4224 30.6653 31.9116C31.2319 32.1546 31.6475 32.4909 31.9308 33.0079C31.5216 33.3194 31.2571 33.0889 30.9864 32.9332L31.0179 32.9643V32.9581Z" fill="black"/>
<path d="M32.1323 38.5393C32.1323 39.3429 31.9371 39.4737 31.1375 39.3179C31.509 39.0252 31.8238 38.7822 32.1323 38.5393Z" fill="black"/>
<path d="M40.5 79.0718C62.0698 79.0718 79.5556 61.5802 79.5556 40.0031C79.5556 18.426 62.0698 0.934326 40.5 0.934326C18.9302 0.934326 1.44444 18.426 1.44444 40.0031C1.44444 61.5802 18.9302 79.0718 40.5 79.0718Z" stroke="#47665A" stroke-miterlimit="10"/>
</g>
<defs>
<clipPath id="clip0_147_4035">
<rect width="80" height="80" fill="white" transform="translate(0.5)"/>
</clipPath>
</defs>
</svg>
